<?xml version="1.0" encoding="utf-8"?>
<!-- Generator: Adobe Illustrator 21.0.2, SVG Export Plug-In . SVG Version: 6.00 Build 0)  -->
<svg version="1.1" id="Badges" xmlns="http://www.w3.org/2000/svg" xmlns:xlink="http://www.w3.org/1999/xlink" x="0px" y="0px"
	 width="176px" height="55px" viewBox="20.228 11.5 176 55" enable-background="new 20.228 11.5 176 55" xml:space="preserve">
<g>
	<path d="M192.229,66.5h-168c-2.209,0-4-1.791-4-4v-47c0-2.209,1.791-4,4-4h168c2.209,0,4,1.791,4,4v47
		C196.229,64.709,194.438,66.5,192.229,66.5z"/>
	<path fill="#FFFFFF" d="M57.327,38.66c-0.039-4.297,3.518-6.388,3.681-6.486c-2.014-2.938-5.138-3.339-6.234-3.37
		c-2.623-0.275-5.166,1.57-6.503,1.57c-1.363,0-3.421-1.542-5.637-1.497c-2.853,0.044-5.523,1.696-6.987,4.261
		c-3.021,5.23-0.768,12.917,2.126,17.145c1.448,2.07,3.14,4.383,5.354,4.301c2.167-0.09,2.976-1.382,5.591-1.382
		c2.591,0,3.35,1.382,5.609,1.329c2.325-0.038,3.79-2.08,5.187-4.169c1.673-2.374,2.345-4.711,2.372-4.831
		C61.833,45.513,57.371,43.811,57.327,38.66z"/>
	<path fill="#FFFFFF" d="M53.06,26.023c1.165-1.458,1.962-3.44,1.741-5.453c-1.687,0.075-3.796,1.166-5.01,2.592
		c-1.074,1.256-2.034,3.315-1.787,5.251C49.899,28.554,51.844,27.458,53.06,26.023z"/>
	<path fill="#FFFFFF" d="M88.683,54.286h-3.027l-1.659-5.212h-5.765l-1.58,5.212h-2.948l5.712-17.743h3.528L88.683,54.286z
		 M83.497,46.888l-1.501-4.633c-0.158-0.474-0.456-1.589-0.895-3.343h-0.053c-0.175,0.755-0.456,1.869-0.842,3.343l-1.474,4.633
		H83.497z"/>
	<path fill="#FFFFFF" d="M103.373,47.732c0,2.176-0.588,3.896-1.764,5.159c-1.053,1.124-2.361,1.685-3.922,1.685
		c-1.685,0-2.896-0.605-3.633-1.816h-0.053v6.74h-2.843V45.704c0-1.369-0.036-2.772-0.105-4.212h2.501l0.158,2.027h0.053
		c0.948-1.527,2.387-2.29,4.317-2.29c1.51,0,2.769,0.596,3.778,1.789C102.868,44.213,103.373,45.784,103.373,47.732z
		 M100.477,47.836c0-1.245-0.281-2.272-0.842-3.079c-0.614-0.842-1.439-1.264-2.475-1.264c-0.702,0-1.339,0.234-1.908,0.698
		c-0.571,0.466-0.944,1.076-1.119,1.831c-0.088,0.352-0.131,0.641-0.131,0.867v2.133c0,0.931,0.285,1.716,0.855,2.357
		s1.312,0.961,2.225,0.961c1.07,0,1.904-0.413,2.501-1.237C100.178,50.276,100.477,49.188,100.477,47.836z"/>
	<path fill="#FFFFFF" d="M118.089,47.732c0,2.176-0.588,3.896-1.766,5.159c-1.052,1.124-2.359,1.685-3.922,1.685
		c-1.685,0-2.896-0.605-3.632-1.816h-0.052v6.74h-2.843V45.704c0-1.369-0.036-2.772-0.105-4.212h2.501l0.158,2.027h0.053
		c0.947-1.527,2.385-2.29,4.317-2.29c1.508,0,2.768,0.596,3.779,1.789C117.583,44.213,118.089,45.784,118.089,47.732z
		 M115.193,47.836c0-1.245-0.281-2.272-0.844-3.079c-0.614-0.842-1.437-1.264-2.474-1.264c-0.703,0-1.339,0.234-1.909,0.698
		c-0.57,0.466-0.942,1.076-1.118,1.831c-0.087,0.352-0.131,0.641-0.131,0.867v2.133c0,0.931,0.285,1.716,0.853,2.357
		c0.57,0.641,1.313,0.961,2.227,0.961c1.07,0,1.904-0.413,2.5-1.237C114.893,50.276,115.193,49.188,115.193,47.836z"/>
	<path fill="#FFFFFF" d="M134.542,49.311c0,1.509-0.523,2.737-1.576,3.685c-1.156,1.037-2.766,1.553-4.833,1.553
		c-1.909,0-3.44-0.368-4.599-1.105l0.659-2.37c1.247,0.755,2.617,1.133,4.109,1.133c1.07,0,1.904-0.242,2.503-0.725
		c0.596-0.483,0.893-1.13,0.893-1.939c0-0.72-0.245-1.327-0.737-1.819c-0.49-0.492-1.307-0.949-2.448-1.372
		c-3.107-1.159-4.659-2.855-4.659-5.089c0-1.458,0.544-2.654,1.633-3.586c1.086-0.932,2.534-1.398,4.344-1.398
		c1.615,0,2.956,0.281,4.026,0.842l-0.711,2.317c-1-0.544-2.13-0.816-3.396-0.816c-1,0-1.781,0.246-2.341,0.738
		c-0.474,0.439-0.711,0.973-0.711,1.606c0,0.702,0.271,1.281,0.815,1.737c0.474,0.422,1.333,0.878,2.581,1.37
		c1.526,0.615,2.649,1.333,3.37,2.158C134.182,47.056,134.542,48.083,134.542,49.311z"/>
	<path fill="#FFFFFF" d="M143.94,43.625h-3.133v6.212c0,1.579,0.552,2.37,1.659,2.37c0.508,0,0.93-0.044,1.263-0.131l0.078,2.159
		c-0.56,0.21-1.297,0.315-2.211,0.315c-1.122,0-2-0.343-2.633-1.026c-0.63-0.685-0.948-1.835-0.948-3.449v-6.449h-1.867v-2.133
		h1.867v-2.343l2.792-0.842v3.186h3.133V43.625z"/>
	<path fill="#FFFFFF" d="M158.078,47.784c0,1.966-0.563,3.581-1.685,4.844c-1.177,1.3-2.74,1.948-4.687,1.948
		c-1.878,0-3.372-0.622-4.487-1.868c-1.115-1.246-1.672-2.818-1.672-4.712c0-1.983,0.573-3.607,1.724-4.87
		c1.149-1.264,2.698-1.896,4.646-1.896c1.878,0,3.388,0.622,4.529,1.87C157.534,44.31,158.078,45.871,158.078,47.784z
		 M155.128,47.876c0-1.18-0.253-2.191-0.763-3.037c-0.596-1.021-1.448-1.531-2.552-1.531c-1.143,0-2.01,0.51-2.607,1.531
		c-0.51,0.845-0.763,1.874-0.763,3.09c0,1.18,0.253,2.191,0.763,3.035c0.614,1.021,1.474,1.531,2.581,1.531
		c1.086,0,1.938-0.519,2.552-1.557C154.865,50.077,155.128,49.055,155.128,47.876z"/>
	<path fill="#FFFFFF" d="M167.318,43.992c-0.281-0.052-0.581-0.078-0.896-0.078c-1,0-1.773,0.378-2.318,1.133
		c-0.474,0.667-0.711,1.509-0.711,2.526v6.713h-2.841l0.026-8.766c0-1.475-0.036-2.818-0.107-4.029h2.477l0.104,2.448h0.078
		c0.299-0.841,0.773-1.518,1.422-2.026c0.633-0.457,1.318-0.685,2.055-0.685c0.263,0,0.5,0.018,0.711,0.052V43.992z"/>
	<path fill="#FFFFFF" d="M180.031,47.284c0,0.509-0.034,0.939-0.104,1.289h-8.529c0.034,1.264,0.445,2.23,1.237,2.897
		c0.719,0.596,1.648,0.895,2.789,0.895c1.263,0,2.414-0.202,3.451-0.605l0.445,1.974c-1.211,0.527-2.641,0.79-4.289,0.79
		c-1.984,0-3.542-0.583-4.674-1.751c-1.13-1.167-1.698-2.733-1.698-4.699c0-1.93,0.526-3.536,1.581-4.818
		c1.104-1.369,2.596-2.052,4.474-2.052c1.844,0,3.24,0.684,4.187,2.052C179.654,44.344,180.031,45.687,180.031,47.284z
		 M177.32,46.547c0.018-0.842-0.167-1.57-0.552-2.185c-0.492-0.79-1.248-1.185-2.266-1.185c-0.93,0-1.685,0.385-2.263,1.159
		c-0.474,0.615-0.755,1.351-0.841,2.211H177.32z"/>
	<path fill="#FFFFFF" d="M82.557,25.626c0,1.57-0.47,2.751-1.41,3.544c-0.871,0.732-2.108,1.099-3.711,1.099
		c-0.794,0-1.475-0.035-2.044-0.104v-8.575c0.742-0.12,1.543-0.181,2.406-0.181c1.526,0,2.677,0.332,3.453,0.996
		C82.121,23.156,82.557,24.23,82.557,25.626z M81.083,25.665c0-1.018-0.269-1.798-0.809-2.341c-0.539-0.543-1.326-0.814-2.361-0.814
		c-0.44,0-0.815,0.03-1.125,0.091v6.518c0.172,0.026,0.487,0.039,0.944,0.039c1.069,0,1.894-0.297,2.477-0.893
		C80.791,27.67,81.083,26.803,81.083,25.665z"/>
	<path fill="#FFFFFF" d="M90.368,26.997c0,0.966-0.276,1.759-0.828,2.38c-0.578,0.639-1.345,0.958-2.302,0.958
		c-0.923,0-1.658-0.306-2.206-0.918c-0.547-0.612-0.82-1.384-0.82-2.315c0-0.974,0.281-1.772,0.846-2.393
		c0.565-0.621,1.326-0.931,2.283-0.931c0.923,0,1.664,0.306,2.225,0.918C90.1,25.29,90.368,26.058,90.368,26.997z M88.919,27.043
		c0-0.579-0.125-1.077-0.375-1.492c-0.293-0.502-0.711-0.753-1.254-0.753c-0.561,0-0.988,0.251-1.281,0.753
		c-0.25,0.415-0.375,0.921-0.375,1.517c0,0.58,0.125,1.077,0.375,1.492c0.302,0.501,0.724,0.752,1.268,0.752
		c0.534,0,0.952-0.255,1.254-0.765C88.79,28.124,88.919,27.622,88.919,27.043z"/>
	<path fill="#FFFFFF" d="M100.843,23.906l-1.966,6.286h-1.28l-0.815-2.729c-0.207-0.681-0.375-1.358-0.505-2.03h-0.025
		c-0.121,0.69-0.289,1.367-0.505,2.03l-0.866,2.729h-1.294l-1.849-6.286h1.436l0.711,2.988c0.172,0.707,0.314,1.379,0.427,2.018
		h0.025c0.104-0.525,0.276-1.194,0.518-2.005l0.892-3.001h1.138l0.854,2.936c0.207,0.716,0.375,1.406,0.504,2.069h0.039
		c0.095-0.647,0.237-1.336,0.427-2.069l0.763-2.936H100.843z"/>
	<path fill="#FFFFFF" d="M108.087,30.192h-1.397v-3.6c0-1.109-0.422-1.664-1.267-1.664c-0.414,0-0.75,0.152-1.009,0.458
		c-0.258,0.305-0.388,0.665-0.388,1.078v3.728h-1.397v-4.488c0-0.552-0.017-1.151-0.051-1.798h1.228l0.065,0.982h0.039
		c0.163-0.305,0.405-0.558,0.724-0.758c0.379-0.235,0.802-0.353,1.267-0.353c0.587,0,1.074,0.189,1.462,0.569
		c0.483,0.465,0.724,1.16,0.724,2.082V30.192z"/>
	<path fill="#FFFFFF" d="M111.94,30.192h-1.396v-9.17h1.396V30.192z"/>
	<path fill="#FFFFFF" d="M120.167,26.997c0,0.966-0.276,1.759-0.828,2.38c-0.578,0.639-1.346,0.958-2.302,0.958
		c-0.925,0-1.659-0.306-2.206-0.918c-0.547-0.612-0.82-1.384-0.82-2.315c0-0.974,0.281-1.772,0.846-2.393
		c0.565-0.621,1.326-0.931,2.281-0.931c0.925,0,1.664,0.306,2.227,0.918C119.899,25.29,120.167,26.058,120.167,26.997z
		 M118.716,27.043c0-0.579-0.125-1.077-0.375-1.492c-0.292-0.502-0.711-0.753-1.253-0.753c-0.563,0-0.99,0.251-1.281,0.753
		c-0.25,0.415-0.375,0.921-0.375,1.517c0,0.58,0.125,1.077,0.375,1.492c0.302,0.501,0.724,0.752,1.268,0.752
		c0.534,0,0.95-0.255,1.253-0.765C118.589,28.124,118.716,27.622,118.716,27.043z"/>
	<path fill="#FFFFFF" d="M126.93,30.192h-1.255l-0.104-0.724h-0.039c-0.43,0.577-1.042,0.867-1.836,0.867
		c-0.594,0-1.073-0.19-1.435-0.57c-0.328-0.344-0.492-0.771-0.492-1.28c0-0.768,0.32-1.353,0.963-1.759
		c0.643-0.405,1.547-0.603,2.711-0.595v-0.116c0-0.827-0.435-1.241-1.305-1.241c-0.62,0-1.167,0.156-1.638,0.465l-0.284-0.918
		c0.583-0.362,1.305-0.543,2.156-0.543c1.643,0,2.466,0.867,2.466,2.6v2.315C126.839,29.321,126.87,29.822,126.93,30.192z
		 M125.479,28.032v-0.97c-1.542-0.026-2.312,0.397-2.312,1.267c0,0.328,0.089,0.574,0.268,0.738c0.18,0.163,0.409,0.245,0.682,0.245
		c0.307,0,0.594-0.097,0.854-0.291c0.263-0.194,0.424-0.441,0.484-0.743C125.471,28.209,125.479,28.127,125.479,28.032z"/>
	<path fill="#FFFFFF" d="M134.87,30.192h-1.24l-0.065-1.009h-0.039c-0.396,0.768-1.07,1.152-2.018,1.152
		c-0.758,0-1.388-0.298-1.888-0.893c-0.5-0.595-0.75-1.367-0.75-2.315c0-1.018,0.271-1.841,0.815-2.47
		c0.526-0.587,1.172-0.879,1.94-0.879c0.844,0,1.435,0.284,1.771,0.853h0.026v-3.609h1.398v7.476
		C134.82,29.11,134.836,29.674,134.87,30.192z M133.422,27.541v-1.048c0-0.181-0.013-0.328-0.039-0.439
		c-0.078-0.336-0.247-0.619-0.505-0.847c-0.26-0.228-0.573-0.343-0.935-0.343c-0.521,0-0.93,0.207-1.229,0.621
		c-0.297,0.414-0.448,0.944-0.448,1.591c0,0.621,0.143,1.126,0.43,1.514c0.302,0.413,0.711,0.62,1.221,0.62
		c0.458,0,0.826-0.173,1.104-0.517C133.289,28.373,133.422,27.989,133.422,27.541z"/>
	<path fill="#FFFFFF" d="M146.82,26.997c0,0.966-0.276,1.759-0.828,2.38c-0.578,0.639-1.344,0.958-2.302,0.958
		c-0.922,0-1.656-0.306-2.206-0.918c-0.547-0.612-0.82-1.384-0.82-2.315c0-0.974,0.281-1.772,0.846-2.393
		c0.565-0.621,1.326-0.931,2.284-0.931c0.922,0,1.664,0.306,2.224,0.918C146.552,25.29,146.82,26.058,146.82,26.997z
		 M145.372,27.043c0-0.579-0.125-1.077-0.375-1.492c-0.294-0.502-0.711-0.753-1.255-0.753c-0.56,0-0.987,0.251-1.281,0.753
		c-0.25,0.415-0.375,0.921-0.375,1.517c0,0.58,0.125,1.077,0.375,1.492c0.302,0.501,0.724,0.752,1.268,0.752
		c0.534,0,0.953-0.255,1.255-0.765C145.242,28.124,145.372,27.622,145.372,27.043z"/>
	<path fill="#FFFFFF" d="M154.333,30.192h-1.396v-3.6c0-1.109-0.422-1.664-1.268-1.664c-0.414,0-0.75,0.152-1.008,0.458
		c-0.258,0.305-0.388,0.665-0.388,1.078v3.728h-1.398v-4.488c0-0.552-0.016-1.151-0.049-1.798h1.227l0.065,0.982h0.039
		c0.164-0.305,0.406-0.558,0.724-0.758c0.38-0.235,0.802-0.353,1.268-0.353c0.586,0,1.073,0.189,1.461,0.569
		c0.484,0.465,0.724,1.16,0.724,2.082V30.192z"/>
	<path fill="#FFFFFF" d="M163.737,24.954h-1.539v3.053c0,0.776,0.273,1.164,0.815,1.164c0.25,0,0.458-0.021,0.622-0.065l0.036,1.061
		c-0.276,0.104-0.638,0.156-1.086,0.156c-0.552,0-0.982-0.169-1.292-0.505c-0.313-0.337-0.466-0.901-0.466-1.694v-3.169h-0.919
		v-1.047h0.919v-1.151l1.37-0.413v1.565h1.539V24.954z"/>
	<path fill="#FFFFFF" d="M171.136,30.192h-1.399v-3.574c0-1.127-0.422-1.69-1.266-1.69c-0.648,0-1.091,0.327-1.333,0.981
		c-0.042,0.137-0.065,0.305-0.065,0.503v3.78h-1.396v-9.17h1.396v3.788h0.026c0.44-0.689,1.07-1.033,1.888-1.033
		c0.578,0,1.057,0.189,1.438,0.569c0.474,0.474,0.711,1.177,0.711,2.108V30.192z"/>
	<path fill="#FFFFFF" d="M178.766,26.752c0,0.25-0.018,0.461-0.052,0.633h-4.19c0.018,0.621,0.219,1.095,0.607,1.423
		c0.354,0.294,0.812,0.44,1.372,0.44c0.62,0,1.185-0.099,1.695-0.298l0.219,0.97c-0.596,0.258-1.297,0.388-2.109,0.388
		c-0.974,0-1.74-0.286-2.294-0.86c-0.557-0.574-0.833-1.343-0.833-2.309c0-0.949,0.258-1.738,0.776-2.367
		c0.542-0.673,1.273-1.009,2.198-1.009c0.904,0,1.591,0.336,2.055,1.009C178.581,25.308,178.766,25.967,178.766,26.752z
		 M177.432,26.39c0.01-0.414-0.081-0.772-0.271-1.073c-0.242-0.388-0.612-0.582-1.112-0.582c-0.456,0-0.828,0.189-1.112,0.569
		c-0.232,0.302-0.37,0.664-0.414,1.087H177.432z"/>
</g>
</svg>
