<?xml version="1.0" encoding="utf-8"?>
<!-- Generator: Adobe Illustrator 21.0.2, SVG Export Plug-In . SVG Version: 6.00 Build 0)  -->
<svg version="1.1" id="Слой_1" xmlns="http://www.w3.org/2000/svg" xmlns:xlink="http://www.w3.org/1999/xlink" x="0px" y="0px"
	 width="17px" height="21px" viewBox="0 0 17 21" style="enable-background:new 0 0 17 21;" xml:space="preserve">
<style type="text/css">
	.st0{fill:#FFFFFF;}
</style>
<path class="st0" d="M16.468,7.163c-0.093,0.058-2.301,1.293-2.301,4.03c0.104,3.121,2.787,4.216,2.833,4.216
	c-0.046,0.058-0.405,1.491-1.468,2.993C14.688,19.696,13.751,21,12.328,21c-1.353,0-1.839-0.862-3.4-0.862
	C7.252,20.138,6.777,21,5.494,21c-1.422,0-2.429-1.374-3.319-2.656c-1.156-1.677-2.139-4.31-2.174-6.837
	c-0.023-1.339,0.232-2.656,0.879-3.774c0.913-1.561,2.544-2.621,4.325-2.656c1.364-0.046,2.579,0.943,3.411,0.943
	c0.798,0,2.29-0.943,3.978-0.943C13.322,5.078,15.265,5.299,16.468,7.163z M8.501,4.81C8.258,3.587,8.928,2.364,9.553,1.584
	C10.351,0.64,11.611,0,12.698,0c0.069,1.223-0.37,2.423-1.156,3.296C10.837,4.24,9.622,4.95,8.501,4.81z"/>
</svg>
