<?xml version="1.0" encoding="utf-8"?>
<!-- Generator: Adobe Illustrator 19.1.1, SVG Export Plug-In . SVG Version: 6.00 Build 0)  -->
<svg version="1.1" id="Layer_1" xmlns="http://www.w3.org/2000/svg" xmlns:xlink="http://www.w3.org/1999/xlink" x="0px" y="0px"
	 width="20px" height="20px" viewBox="-319 121 20 20" style="enable-background:new -319 121 20 20;" xml:space="preserve">
<style type="text/css">
	.st0{fill:#858688;}
</style>
<path class="st0" d="M-306,131l6.7-6.7c0.4-0.4,0.4-1,0-1.4l-1.6-1.6c-0.4-0.4-1-0.4-1.4,0l-6.7,6.7l-6.7-6.7c-0.4-0.4-1-0.4-1.4,0
	l-1.6,1.6c-0.4,0.4-0.4,1,0,1.4l6.7,6.7l-6.7,6.7c-0.4,0.4-0.4,1,0,1.4l1.6,1.6c0.4,0.4,1,0.4,1.4,0l6.7-6.7l6.7,6.7
	c0.4,0.4,1,0.4,1.4,0l1.6-1.6c0.4-0.4,0.4-1,0-1.4L-306,131z"/>
</svg>
