<?xml version="1.0" encoding="utf-8"?>
<!-- Generator: Adobe Illustrator 21.0.2, SVG Export Plug-In . SVG Version: 6.00 Build 0)  -->
<svg version="1.1" id="Layer_1" xmlns="http://www.w3.org/2000/svg" xmlns:xlink="http://www.w3.org/1999/xlink" x="0px" y="0px"
	 width="20px" height="14px" viewBox="0 0 20 14" enable-background="new 0 0 20 14" xml:space="preserve">
<path fill="#FFFFFF" d="M16.8,6.081C16.928,5.747,17,5.381,17,5c0-1.656-1.344-3-3-3c-0.616,0-1.191,0.188-1.666,0.506
	C11.469,1.006,9.853,0,8,0C5.238,0,3,2.237,3,5c0,0.084,0.003,0.169,0.006,0.253C1.256,5.869,0,7.538,0,9.5
	C0,11.984,2.016,14,4.5,14H16c2.209,0,4-1.791,4-4C20,8.066,18.625,6.45,16.8,6.081z M12.428,8.072l-0.337,0.337
	c-0.3,0.3-0.788,0.291-1.078-0.016L10,7.316v3.934C10,11.666,9.666,12,9.25,12h-0.5C8.334,12,8,11.666,8,11.25V7.316L6.988,8.394
	C6.697,8.703,6.209,8.709,5.909,8.409L5.572,8.072c-0.294-0.294-0.294-0.769,0-1.059l2.897-2.897c0.294-0.294,0.769-0.294,1.059,0
	l2.897,2.897C12.719,7.306,12.719,7.781,12.428,8.072z"/>
</svg>
