<?xml version="1.0" encoding="utf-8"?>
<!-- Generator: Adobe Illustrator 21.0.2, SVG Export Plug-In . SVG Version: 6.00 Build 0)  -->
<svg version="1.1" id="Слой_1" xmlns="http://www.w3.org/2000/svg" xmlns:xlink="http://www.w3.org/1999/xlink" x="0px" y="0px"
	 width="10px" height="18px" viewBox="0 0 10 18" enable-background="new 0 0 10 18" xml:space="preserve">
<path fill="#FFFFFF" d="M7.357,8.511L3.32,7.344C2.771,7.186,2.327,6.739,2.24,6.166C2.104,5.273,2.788,4.5,3.646,4.5h2.562
	c0.552,0,1.094,0.176,1.542,0.496c0.222,0.158,0.521,0.134,0.712-0.06l0.795-0.805c0.236-0.239,0.212-0.64-0.052-0.847
	C8.347,2.612,7.305,2.25,6.208,2.25H6.111V0.563C6.111,0.253,5.861,0,5.556,0H4.444C4.139,0,3.889,0.253,3.889,0.563V2.25H3.802
	c-1.708,0-3.284,1.118-3.694,2.798c-0.483,1.976,0.701,3.909,2.534,4.44l4.038,1.167c0.549,0.158,0.993,0.605,1.08,1.178
	C7.896,12.727,7.212,13.5,6.354,13.5H3.792c-0.552,0-1.094-0.176-1.542-0.496c-0.222-0.158-0.521-0.134-0.712,0.06l-0.795,0.805
	c-0.236,0.239-0.212,0.64,0.052,0.847c0.854,0.671,1.896,1.034,2.996,1.034h0.097v1.688c0,0.309,0.25,0.563,0.556,0.563h1.111
	c0.306,0,0.556-0.253,0.556-0.563V15.75h0.087c1.708,0,3.284-1.118,3.694-2.798C10.374,10.976,9.191,9.042,7.357,8.511L7.357,8.511z
	"/>
</svg>
