<svg width="176" height="55" viewBox="0 0 176 55" fill="none" xmlns="http://www.w3.org/2000/svg">
<path d="M170.5 55H5.5C2.475 55 0 52.525 0 49.5V5.5C0 2.475 2.475 0 5.5 0H170.5C173.525 0 176 2.475 176 5.5V49.5C176 52.525 173.525 55 170.5 55Z" fill="black"/>
<path fill-rule="evenodd" clip-rule="evenodd" d="M13.4746 26.95V12.5125C13.4746 11.6875 14.1621 11 14.8496 11C15.5371 11 15.8121 11.1375 16.2246 11.4125L42.7621 25.9875C43.3121 26.2625 43.5871 26.675 43.5871 27.0875C43.5871 27.5 43.3121 27.9125 42.7621 28.1875L16.2246 42.7625C15.9496 42.9 15.5371 43.175 14.8496 43.175C14.1621 43.175 13.4746 42.4875 13.4746 41.6625V26.95Z" fill="url(#paint0_linear)"/>
<path fill-rule="evenodd" clip-rule="evenodd" d="M30.6627 27.0875L14.5752 11C14.7127 11 14.7127 11 14.8502 11C15.5377 11 15.8127 11.1375 16.2252 11.4125L35.7502 22.1375L30.6627 27.0875Z" fill="url(#paint1_linear)"/>
<path fill-rule="evenodd" clip-rule="evenodd" d="M35.6121 31.9L30.6621 26.95L35.7496 21.8625L42.7621 25.7125C43.3121 25.9875 43.5871 26.4 43.5871 26.8125C43.5871 27.225 43.3121 27.6375 42.7621 27.9125L35.6121 31.9Z" fill="url(#paint2_linear)"/>
<path fill-rule="evenodd" clip-rule="evenodd" d="M14.7129 42.9L30.6629 26.95L35.6129 31.9L16.2254 42.4875C15.8129 42.7625 15.5379 42.9 14.7129 42.9C14.8504 42.9 14.8504 42.9 14.7129 42.9Z" fill="url(#paint3_linear)"/>
<path fill-rule="evenodd" clip-rule="evenodd" d="M97.7623 46.6125C97.0748 46.0625 96.5248 45.1 96.2498 44.55L98.4498 43.5875C98.5873 43.8625 98.8623 44.275 99.1373 44.6875C99.6873 45.2375 100.512 45.7875 101.337 45.7875C102.162 45.7875 103.125 45.375 103.675 44.6875C104.087 44 104.362 43.3125 104.362 42.35V41.525C102.712 43.5875 99.2747 43.3125 97.3497 41.1125C95.2872 38.9125 95.2872 35.2 97.3497 33C99.4122 30.9375 102.437 30.6625 104.225 32.5875V31.625H106.562V41.9375C106.562 44.55 105.6 46.0625 104.362 47.025C103.537 47.7125 102.3 47.9875 101.2 47.9875C99.9623 47.85 98.7248 47.4375 97.7623 46.6125ZM155.375 47.1625L157.712 41.6625L153.587 32.175H155.925L158.812 38.9125L161.7 32.175H164.037L157.712 47.1625H155.375ZM144.237 41.9375C143.55 41.25 143.275 40.2875 143.275 39.325C143.275 38.5 143.55 37.675 144.1 37.125C145.062 36.1625 146.437 35.75 147.95 35.75C148.912 35.75 149.737 35.8875 150.425 36.3C150.425 34.65 149.05 33.9625 147.95 33.9625C146.987 33.9625 146.025 34.5125 145.612 35.475L143.55 34.65C143.962 33.6875 145.062 31.9 147.812 31.9C149.187 31.9 150.562 32.3125 151.387 33.275C152.212 34.2375 152.487 35.3375 152.487 36.85V42.625H150.15V41.6625C149.875 42.075 149.325 42.35 148.912 42.625C148.362 42.9 147.675 43.0375 146.987 43.0375C146.162 42.9 144.925 42.625 144.237 41.9375ZM70.9498 36.9875C70.9498 34.2375 73.0123 31.2125 76.7248 31.2125C80.2998 31.2125 82.4998 34.2375 82.4998 36.9875C82.4998 39.7375 80.4373 42.7625 76.7248 42.7625C73.0123 42.7625 70.9498 39.7375 70.9498 36.9875ZM83.3248 36.9875C83.3248 34.2375 85.3873 31.2125 89.0998 31.2125C92.6748 31.2125 94.8748 34.2375 94.8748 36.9875C94.8748 39.7375 92.8123 42.7625 89.0998 42.7625C85.5248 42.7625 83.3248 39.7375 83.3248 36.9875ZM55.4123 40.0125C51.9748 36.575 52.1123 30.9375 55.5498 27.3625C57.3373 25.575 59.5373 24.75 61.8748 24.75C64.0748 24.75 66.2748 25.575 67.9248 27.225L66.2748 29.0125C63.7998 26.5375 59.8123 26.675 57.4748 29.15C54.9998 31.7625 54.9998 35.75 57.4748 38.3625C59.9498 40.975 64.0748 41.1125 66.5498 38.5C67.3748 37.675 67.6498 36.575 67.7873 35.475H62.0123V33H70.1248C70.2623 33.55 70.2623 34.2375 70.2623 34.925C70.2623 36.9875 69.4373 39.05 68.0623 40.425C66.5498 41.9375 64.3498 42.7625 62.1498 42.7625C59.6748 42.625 57.1998 41.8 55.4123 40.0125ZM113.575 40.975C111.512 38.775 111.512 35.0625 113.575 32.725C115.637 30.525 119.075 30.525 121 32.725C121.687 33.4125 122.1 34.375 122.512 35.3375L114.95 38.5C115.362 39.4625 116.325 40.2875 117.7 40.2875C118.937 40.2875 119.762 39.875 120.587 38.6375L122.65 40.0125C122.375 40.2875 122.1 40.5625 121.962 40.8375C119.625 43.175 115.637 43.175 113.575 40.975ZM127.875 42.625V27.3625H132.825C135.712 27.3625 138.05 29.425 138.05 31.9C138.05 34.375 135.987 36.4375 133.375 36.4375H130.35V42.4875H127.875V42.625ZM139.425 42.625V27.3625H141.762V42.625H139.425ZM108.35 42.35V25.3H110.825V42.35H108.35ZM150.287 38.0875C149.737 37.675 148.912 37.5375 148.087 37.5375C146.437 37.5375 145.475 38.3625 145.475 39.325C145.475 40.2875 146.437 40.8375 147.4 40.8375C148.775 40.8375 150.287 39.7375 150.287 38.0875ZM79.8873 36.9875C79.8873 35.3375 78.7873 33.55 76.7248 33.55C74.6623 33.55 73.5623 35.3375 73.5623 36.9875C73.5623 38.6375 74.6623 40.425 76.7248 40.425C78.6498 40.425 79.8873 38.6375 79.8873 36.9875ZM92.2623 36.9875C92.2623 35.3375 91.1623 33.55 89.0998 33.55C87.0373 33.55 85.9373 35.3375 85.9373 36.9875C85.9373 38.6375 87.0373 40.425 89.0998 40.425C91.1623 40.425 92.2623 38.6375 92.2623 36.9875ZM104.5 37.95C104.5 37.8125 104.5 37.675 104.637 37.5375C104.637 37.4 104.637 37.125 104.637 36.9875C104.637 36.85 104.637 36.575 104.637 36.4375V36.3C104.637 36.1625 104.5 35.8875 104.5 35.75C104.087 34.375 102.85 33.4125 101.612 33.4125C99.9623 33.4125 98.5873 35.0625 98.5873 36.85C98.5873 38.775 99.9623 40.2875 101.75 40.2875C102.85 40.425 103.95 39.4625 104.5 37.95ZM114.537 36.7125L119.625 34.5125C119.075 33.55 118.25 33.275 117.562 33.275C115.5 33.4125 114.262 35.6125 114.537 36.7125ZM135.575 32.0375C135.575 30.6625 134.475 29.7 132.962 29.7H130.212V34.5125H133.1C134.475 34.5125 135.575 33.4125 135.575 32.0375Z" fill="white"/>
<path fill-rule="evenodd" clip-rule="evenodd" d="M157.163 44.4124H157.025V44.2749H157.163H157.025V44.4124H157.163Z" fill="white"/>
<path fill-rule="evenodd" clip-rule="evenodd" d="M157.437 44.4124C157.437 44.2749 157.437 44.2749 157.437 44.4124C157.3 44.2749 157.3 44.2749 157.437 44.4124C157.3 44.4124 157.3 44.4124 157.437 44.4124ZM157.437 44.2749C157.437 44.4124 157.437 44.4124 157.437 44.2749C157.437 44.4124 157.3 44.4124 157.437 44.2749C157.437 44.2749 157.3 44.2749 157.437 44.2749Z" fill="white"/>
<path fill-rule="evenodd" clip-rule="evenodd" d="M157.575 44.2749H157.438H157.575V44.4124V44.2749Z" fill="white"/>
<path d="M53.4873 13.8874C53.4873 11.4124 55.2748 9.8999 57.4748 9.8999C58.9873 9.8999 59.9498 10.5874 60.6373 11.5499L59.5373 12.2374C59.1248 11.6874 58.4373 11.2749 57.4748 11.2749C55.9623 11.2749 54.8623 12.3749 54.8623 14.0249C54.8623 15.6749 55.9623 16.7749 57.4748 16.7749C58.2998 16.7749 58.9873 16.3624 59.2623 16.0874V14.8499H57.0623V13.6124H60.7748V16.4999C60.0873 17.3249 58.9873 17.8749 57.6123 17.8749C55.2748 17.8749 53.4873 16.2249 53.4873 13.8874Z" fill="white"/>
<path d="M62.4248 17.7376V10.0376H67.6498V11.2751H63.6623V13.2001H67.5123V14.4376H63.6623V16.6376H67.6498V17.8751L62.4248 17.7376Z" fill="white"/>
<path d="M71.4996 17.7376V11.2751H69.1621V10.0376H75.2121V11.2751H72.8746V17.7376H71.4996Z" fill="white"/>
<path d="M79.8877 17.7376V10.0376H81.2627V17.7376H79.8877Z" fill="white"/>
<path d="M84.9752 17.7376V11.2751H82.6377V10.0376H88.6877V11.2751H86.3502V17.7376H84.9752Z" fill="white"/>
<path d="M93.0879 13.8874C93.0879 11.5499 94.7379 9.8999 97.0754 9.8999C99.4129 9.8999 101.063 11.5499 101.063 13.8874C101.063 16.2249 99.4129 17.8749 97.0754 17.8749C94.7379 17.8749 93.0879 16.0874 93.0879 13.8874ZM99.5504 13.8874C99.5504 12.2374 98.5879 11.1374 96.9379 11.1374C95.4254 11.1374 94.3254 12.3749 94.3254 13.8874C94.3254 15.5374 95.2879 16.6374 96.9379 16.6374C98.5879 16.6374 99.5504 15.3999 99.5504 13.8874Z" fill="white"/>
<path d="M107.938 17.7376L103.95 12.2376V17.7376H102.575V10.0376H103.95L107.938 15.4001V10.0376H109.313V17.7376H107.938Z" fill="white"/>
<defs>
<linearGradient id="paint0_linear" x1="22.3673" y1="9.0387" x2="30.0648" y2="40.6512" gradientUnits="userSpaceOnUse">
<stop stop-color="#006884"/>
<stop offset="1" stop-color="#8AD1D0"/>
</linearGradient>
<linearGradient id="paint1_linear" x1="12.9812" y1="13.5352" x2="33.9582" y2="24.8755" gradientUnits="userSpaceOnUse">
<stop stop-color="#24BBB6"/>
<stop offset="1" stop-color="#DBE692"/>
</linearGradient>
<linearGradient id="paint2_linear" x1="37.1169" y1="32.4777" x2="37.1169" y2="21.5486" gradientUnits="userSpaceOnUse">
<stop stop-color="#FCC072"/>
<stop offset="1" stop-color="#F58A5B"/>
</linearGradient>
<linearGradient id="paint3_linear" x1="17.0431" y1="45.745" x2="33.6142" y2="28.8803" gradientUnits="userSpaceOnUse">
<stop stop-color="#712B8F"/>
<stop offset="1" stop-color="#EA1D27"/>
</linearGradient>
</defs>
</svg>
