<?xml version="1.0" encoding="utf-8"?>
<!-- Generator: Adobe Illustrator 21.0.2, SVG Export Plug-In . SVG Version: 6.00 Build 0)  -->
<svg version="1.1" id="Слой_1" xmlns="http://www.w3.org/2000/svg" xmlns:xlink="http://www.w3.org/1999/xlink" x="0px" y="0px"
	 width="20px" height="22px" viewBox="0 0 20 22" style="enable-background:new 0 0 20 22;" xml:space="preserve">
<style type="text/css">
	.st0{fill:#FFFFFF;}
</style>
<g id="surface1">
	<path class="st0" d="M1.049,0l10.686,10.29l2.93-2.842L1.712,0.194C1.496,0.073,1.264,0.006,1.049,0z M0.154,0.479
		C0.058,0.645,0,0.841,0,1.062v19.996c0,0.161,0.035,0.305,0.093,0.434l10.933-10.529L0.154,0.479z M15.559,7.942l-3.13,3.021
		l3.13,3.006l3.824-2.124c0.544-0.305,0.621-0.692,0.617-0.897c-0.006-0.34-0.227-0.658-0.601-0.852
		C19.073,9.925,16.654,8.558,15.559,7.942z M11.735,11.636L0.956,22c0.179-0.009,0.374-0.047,0.555-0.15
		c0.422-0.237,8.959-5.025,8.959-5.025l4.21-2.348L11.735,11.636z"/>
</g>
</svg>
