<?xml version="1.0" encoding="utf-8"?>
<!-- Generator: Adobe Illustrator 21.0.2, SVG Export Plug-In . SVG Version: 6.00 Build 0)  -->
<svg version="1.1" id="Слой_1" xmlns="http://www.w3.org/2000/svg" xmlns:xlink="http://www.w3.org/1999/xlink" x="0px" y="0px"
	 width="15px" height="12px" viewBox="0 0 15 12" style="enable-background:new 0 0 15 12;" xml:space="preserve">
<style type="text/css">
	.st0{fill:#582C7E;}
</style>
<path class="st0" d="M12.2,11.8H9.7c-0.2,0-0.4-0.2-0.4-0.4v-1.2c0-0.2,0.2-0.4,0.4-0.4h2.5c0.5,0,0.9-0.4,0.9-1V2.9
	c0-0.5-0.4-1-0.9-1H9.7C9.5,2,9.4,1.8,9.4,1.6V0.4C9.4,0.2,9.5,0,9.7,0h2.5C13.7,0,15,1.3,15,2.9v5.9C15,10.4,13.7,11.8,12.2,11.8z
	 M10.8,5.6L5.9,0.5C5.4,0,4.7,0.3,4.7,1v2.9h-4C0.3,3.9,0,4.2,0,4.7v2.9C0,8,0.3,8.3,0.7,8.3h4v2.9c0,0.7,0.8,1,1.2,0.5l4.9-5.1
	C11.1,6.4,11.1,5.9,10.8,5.6z"/>
</svg>
