<svg width="89" height="27" viewBox="0 0 89 27" fill="none" xmlns="http://www.w3.org/2000/svg">
<path d="M5.48591 10.977H8.58664C11.358 10.977 12.7437 9.83148 12.7437 7.54043V7.40697C12.7437 6.22809 12.3916 5.39397 11.6874 4.90462C11.0059 4.39303 9.97231 4.13723 8.58664 4.13723H5.48591V10.977ZM0 23.8558V0H8.72293C11.676 0 13.9817 0.611687 15.6399 1.83506C17.2982 3.03619 18.1273 4.83789 18.1273 7.24015V7.37361C18.1273 10.6211 16.4577 12.7342 13.1185 13.7129L19.5584 23.8558H13.6977L7.87108 14.6471H5.48591V23.8558H0Z" fill="black"/>
<path class="mobile" d="M65.1514 24.015C64.7064 24.015 64.3276 23.8678 64.0149 23.5734C63.7022 23.2673 63.5459 22.8963 63.5459 22.4606C63.5459 22.0367 63.7022 21.6775 64.0149 21.3831C64.3276 21.077 64.7064 20.9239 65.1514 20.9239C65.6084 20.9239 65.9932 21.077 66.3059 21.3831C66.6186 21.6775 66.7749 22.0367 66.7749 22.4606C66.7749 22.8963 66.6186 23.2673 66.3059 23.5734C65.9932 23.8678 65.6084 24.015 65.1514 24.015Z" fill="#222222"/>
<path class="mobile" d="M74.5853 24.0503C73.8758 24.0503 73.2564 23.8973 72.7273 23.5911C72.2101 23.2849 71.8253 22.8845 71.5728 22.39V23.856H68.9571V10.4316H71.5728V16.0664C71.8494 15.5953 72.2522 15.2008 72.7814 14.8829C73.3226 14.5649 73.9239 14.406 74.5853 14.406C75.7879 14.406 76.774 14.824 77.5437 15.6601C78.3134 16.4962 78.6982 17.6561 78.6982 19.1398V19.2811C78.6982 20.7649 78.3134 21.9307 77.5437 22.7786C76.774 23.6264 75.7879 24.0503 74.5853 24.0503ZM73.8096 22.0543C74.5312 22.0543 75.0844 21.8188 75.4692 21.3478C75.854 20.8768 76.0465 20.1938 76.0465 19.2988V19.1575C76.0465 18.2508 75.842 17.5619 75.4331 17.0909C75.0242 16.608 74.4771 16.3666 73.7916 16.3666C73.082 16.3666 72.5168 16.608 72.0959 17.0909C71.687 17.5619 71.4826 18.2508 71.4826 19.1575V19.2988C71.4826 20.2055 71.687 20.8944 72.0959 21.3655C72.5048 21.8247 73.076 22.0543 73.8096 22.0543Z" fill="#222222"/>
<path class="mobile" d="M81.3693 27.0002L83.0289 22.9199L79.2767 14.6179H82.0909L84.3818 20.1643L86.4924 14.6179H88.9998L83.8948 27.0002H81.3693Z" fill="#222222"/>
<path d="M20.3428 23.8602V23.0046L29.3062 13.8883C30.5834 12.5938 31.5413 11.42 32.18 10.3669C32.8414 9.31372 33.1721 8.28252 33.1721 7.27326C33.1721 6.28594 32.887 5.50705 32.3168 4.9366C31.7694 4.36615 30.9711 4.08092 29.922 4.08092C27.664 4.08092 26.364 5.51802 26.0219 8.39222H20.9928C21.1296 5.69355 21.9963 3.62017 23.5929 2.1721C25.2122 0.724035 27.4017 0 30.1615 0C32.83 0 34.9055 0.658213 36.388 1.97464C37.8933 3.26913 38.6459 4.99145 38.6459 7.14162C38.6459 8.61163 38.2468 10.0158 37.4485 11.3542C36.6503 12.6706 35.4757 14.0419 33.9247 15.468L29.3062 19.8122H38.817V23.8602H20.3428Z" fill="#FF3333"/>
<path d="M52.4415 23.8602V19.1869H40.4332V17.2452L51.0046 0.329106H57.8127V15.3693H61.0285V19.1869H57.8127V23.8602H52.4415ZM45.9755 15.3693H52.5441V4.34421L45.9755 15.3693Z" fill="#FF3333"/>
</svg>