<?xml version="1.0" encoding="utf-8"?>
<!-- Generator: Adobe Illustrator 19.1.1, SVG Export Plug-In . SVG Version: 6.00 Build 0)  -->
<svg version="1.1" id="Layer_1" xmlns="http://www.w3.org/2000/svg" xmlns:xlink="http://www.w3.org/1999/xlink" x="0px" y="0px"
	 width="23px" height="20px" viewBox="-255 85 23 20" style="enable-background:new -255 85 23 20;" xml:space="preserve">
<style type="text/css">
	.st0{fill:#858688;}
</style>
<path class="st0" d="M-254.2,88.7h21.4c0.5,0,0.8-0.4,0.8-0.8v-2c0-0.5-0.4-0.8-0.8-0.8h-21.4c-0.5,0-0.8,0.4-0.8,0.8v2
	C-255,88.3-254.6,88.7-254.2,88.7z M-254.2,96.8h21.4c0.5,0,0.8-0.4,0.8-0.8v-2c0-0.5-0.4-0.8-0.8-0.8h-21.4c-0.5,0-0.8,0.4-0.8,0.8
	v2C-255,96.5-254.6,96.8-254.2,96.8z M-254.2,105h21.4c0.5,0,0.8-0.4,0.8-0.8v-2c0-0.5-0.4-0.8-0.8-0.8h-21.4
	c-0.5,0-0.8,0.4-0.8,0.8v2C-255,104.6-254.6,105-254.2,105z"/>
</svg>
