<?xml version="1.0" encoding="utf-8"?>
<!-- Generator: Adobe Illustrator 21.0.2, SVG Export Plug-In . SVG Version: 6.00 Build 0)  -->
<svg version="1.1" id="Слой_1" xmlns:ev="http://www.w3.org/2001/xml-events"
	 xmlns="http://www.w3.org/2000/svg" xmlns:xlink="http://www.w3.org/1999/xlink" x="0px" y="0px" width="156.119px"
	 height="21.359px" viewBox="0 0 156.119 21.359" style="enable-background:new 0 0 156.119 21.359;" xml:space="preserve">
<style type="text/css">
	.st0{fill:none;enable-background:new    ;}
	.st1{fill:#858688;}
	.st2{fill:#582C7E;}
</style>
<path class="st0" d="z"/>
<g>
	<path class="st1" d="M4.021,21H0V6h3.99v0.84c1.36-0.799,2.61-1.199,3.75-1.199c2,0,3.38,0.59,4.141,1.77
		c0.76,1.18,1.14,3,1.14,5.46V21H9v-8.01c0-1.279-0.149-2.225-0.449-2.836C8.25,9.545,7.65,9.24,6.75,9.24
		c-0.82,0-1.609,0.141-2.369,0.42l-0.36,0.119V21z"/>
	<path class="st1" d="M20.625,17.205c0.471,0.41,1.145,0.615,2.025,0.615c1.859,0,3.52-0.061,4.98-0.18l0.84-0.091l0.06,2.97
		c-2.3,0.561-4.38,0.84-6.239,0.84c-2.261,0-3.9-0.6-4.92-1.799c-1.021-1.201-1.531-3.15-1.531-5.851
		c0-5.38,2.211-8.069,6.631-8.069c4.359,0,6.539,2.26,6.539,6.779l-0.299,2.79h-8.82C19.91,16.131,20.155,16.795,20.625,17.205z
		 M25.051,12.15c0-1.2-0.19-2.035-0.57-2.506c-0.381-0.469-1.045-0.705-1.995-0.705s-1.62,0.246-2.01,0.735
		c-0.39,0.491-0.595,1.315-0.615,2.476H25.051z"/>
	<path class="st1" d="M40.74,6h4.02v15h-3.989v-0.84c-1.44,0.8-2.69,1.199-3.75,1.199c-2.081,0-3.48-0.574-4.2-1.725
		c-0.721-1.149-1.08-3.074-1.08-5.775V6h4.02v7.92c0,1.48,0.121,2.49,0.36,3.03c0.24,0.54,0.819,0.81,1.74,0.81
		c0.88,0,1.71-0.14,2.489-0.42l0.391-0.119V6z"/>
	<path class="st1" d="M56.79,9.42H53.1v6.15c0,0.6,0.016,1.025,0.045,1.275c0.031,0.25,0.141,0.465,0.33,0.645
		c0.19,0.18,0.485,0.27,0.886,0.27l2.28-0.06l0.18,3.21c-1.34,0.3-2.36,0.449-3.061,0.449c-1.8,0-3.029-0.404-3.689-1.215
		c-0.66-0.81-0.99-2.305-0.99-4.484V9.42h-1.77V6h1.77V1.83h4.02V6h3.69V9.42z"/>
	<path class="st1" d="M59.4,21V6h3.99v1.59c1.68-1,3.279-1.65,4.799-1.949v4.049c-1.619,0.341-3.01,0.69-4.17,1.051l-0.6,0.21V21
		H59.4z"/>
	<path class="st1" d="M71.369,7.695c1.061-1.37,2.83-2.055,5.311-2.055c2.479,0,4.25,0.685,5.311,2.055
		c1.059,1.369,1.59,3.295,1.59,5.775c0,5.26-2.301,7.889-6.9,7.889s-6.9-2.629-6.9-7.889C69.779,10.99,70.31,9.064,71.369,7.695z
		 M74.475,16.859c0.41,0.721,1.145,1.08,2.205,1.08s1.795-0.359,2.205-1.08c0.41-0.719,0.615-1.85,0.615-3.389
		c0-1.541-0.205-2.66-0.615-3.361c-0.41-0.699-1.145-1.049-2.205-1.049s-1.795,0.35-2.205,1.049c-0.41,0.701-0.615,1.82-0.615,3.361
		C73.859,15.01,74.064,16.141,74.475,16.859z"/>
	<path class="st1" d="M90.539,21h-4.02V6h3.99v0.84c1.359-0.799,2.609-1.199,3.75-1.199c2,0,3.379,0.59,4.141,1.77
		c0.76,1.18,1.139,3,1.139,5.46V21h-4.02v-8.01c0-1.279-0.15-2.225-0.449-2.836C94.77,9.545,94.17,9.24,93.27,9.24
		c-0.82,0-1.609,0.141-2.369,0.42l-0.361,0.119V21z"/>
	<path class="st2" d="M103.47,21V0.6h7.05l3.6,14.881L117.72,0.6h7.05V21h-4.141V5.221h-0.449l-3.99,14.879h-4.141L108.06,5.221
		h-0.45V21H103.47z"/>
	<path class="st2" d="M140.34,10.68v6.24c0.039,0.48,0.119,0.815,0.239,1.005c0.12,0.19,0.37,0.325,0.75,0.405l-0.12,3.029
		c-1.02,0-1.835-0.07-2.445-0.209c-0.609-0.141-1.225-0.42-1.844-0.84c-1.44,0.699-2.91,1.049-4.41,1.049
		c-3.101,0-4.65-1.639-4.65-4.92c0-1.6,0.43-2.734,1.29-3.404c0.859-0.67,2.18-1.064,3.96-1.186l3.21-0.24v-0.93
		c0-0.619-0.14-1.045-0.42-1.275c-0.28-0.229-0.73-0.344-1.351-0.344l-5.64,0.239l-0.12-2.79c2.141-0.58,4.175-0.869,6.105-0.869
		c1.93,0,3.319,0.4,4.17,1.199C139.914,7.641,140.34,8.92,140.34,10.68z M133.59,14.641c-1.121,0.1-1.681,0.699-1.681,1.799
		c0,1.101,0.489,1.65,1.47,1.65c0.76,0,1.59-0.119,2.49-0.359l0.45-0.121V14.4L133.59,14.641z"/>
	<path class="st2" d="M144.179,4.08V0h4.021v4.08H144.179z M144.179,21V6h4.021v15H144.179z"/>
	<path class="st2" d="M152.099,21V0h4.021v21H152.099z"/>
</g>
</svg>
