<?xml version="1.0" encoding="utf-8"?>
<!-- Generator: Adobe Illustrator 19.1.1, SVG Export Plug-In . SVG Version: 6.00 Build 0)  -->
<svg version="1.1" id="Layer_1" xmlns="http://www.w3.org/2000/svg" xmlns:xlink="http://www.w3.org/1999/xlink" x="0px" y="0px"
	 width="133.1px" height="49.5px" viewBox="-320.8 282 133.1 49.5" style="enable-background:new -320.8 282 133.1 49.5;"
	 xml:space="preserve">
<style type="text/css">
	.st0{fill:none;stroke:#B0B0B0;stroke-width:2;stroke-miterlimit:10;}
	.st1{fill:none;stroke:#B0B0B0;stroke-width:3;stroke-miterlimit:10;}
	.st2{fill:#B0B0B0;}
</style>
<path class="st0" d="M-243,323c0,1.7-1.3,3-3,3h-18c-1.7,0-3-1.3-3-3v-19c0-1.7,1.3-3,3-3h18c1.7,0,3,1.3,3,3V323z"/>
<path class="st1" d="M-246.5,298v-5.8c0,0-1-4.5-8.5-4.5c-7.5,0-8.5,5.3-8.5,5.3v5"/>
<circle class="st2" cx="-254.5" cy="310.5" r="2.5"/>
<path class="st2" d="M-253,316c0,0.6-0.7,1-1.5,1s-1.5-0.4-1.5-1v-4c0-0.5,0.7-1,1.5-1s1.5,0.5,1.5,1V316z"/>
<path class="st2" d="M-273,309h3v8h-3V309z M-273,323.5l-6.2-10.5l6.2-10.5V323.5z M-240,309h3v8h-3V309z M-237,303l6.2,10l-6.2,10
	V303z"/>
<g>
	<path class="st0" d="M-192.1,306.5c4.6-4.6,4.6-12,0-16.6s-12.1-4.6-16.6,0c-3.5,3.5-4.3,8.6-2.5,12.9l-3.1,3.1l-3.2,0.1l-0.7,4.3
		l-3.3,0l-0.9,4.1l-3.4,0l-0.3,3.2l-2.7,2.5v6.9h7.1l17.4-17.6C-200.3,310.9-195.4,309.9-192.1,306.5L-192.1,306.5z M-223.6,321.7
		l15-15"/>
	<circle class="st0" cx="-198.6" cy="295.9" r="2.9"/>
</g>
<path class="st0" d="M-300.1,330.5c0,0,11-5.4,15.2-11.8c4.2-6.4,3.4-22.7,3.4-24.5s0.8-5.5,0.8-5.5s-5.1,0-9.3-0.9
	c-4.2-0.9-10.1-4.6-10.1-4.6s-5.9,3.6-10.1,4.6c-4.2,0.9-9.3,0.9-9.3,0.9s0.8,3.6,0.8,5.5s-0.8,18.2,3.4,24.5
	C-311.1,325-300.1,330.5-300.1,330.5z"/>
<g>
	<path class="st2" d="M-302,298h4v16h-4V298z M-308,304h16v4h-16V304z"/>
</g>
</svg>
