<?xml version="1.0" encoding="utf-8"?>
<!-- Generator: Adobe Illustrator 19.1.1, SVG Export Plug-In . SVG Version: 6.00 Build 0)  -->
<svg version="1.1" id="Layer_1" xmlns="http://www.w3.org/2000/svg" xmlns:xlink="http://www.w3.org/1999/xlink" x="0px" y="0px"
	 width="80px" height="20.046px" viewBox="1044.896 -27.45 80 20.046" style="enable-background:new 1044.896 -27.45 80 20.046;"
	 xml:space="preserve">
<style type="text/css">
	.st0{fill:#B3B3B3;}
</style>
<path class="st0" d="M1093.631-21.75c-1.287,0-2.298,0.276-3.31,0.827c0-2.942,0-5.608,0.092-6.528l-6.161,1.103v0.552l0.644,0.092
	c0.827,0.184,1.104,0.643,1.286,1.747c0.185,2.207,0.092,13.976,0,15.908c1.655,0.368,3.403,0.644,5.15,0.644
	c4.873,0,7.816-3.035,7.816-7.816C1099.148-18.991,1096.757-21.75,1093.631-21.75L1093.631-21.75z M1091.516-8.417
	c-0.368,0-0.828,0-1.103-0.091c-0.092-1.287-0.184-6.713-0.092-11.494c0.552-0.184,0.919-0.276,1.38-0.276
	c2.024,0,3.128,2.391,3.128,5.332C1094.827-11.267,1093.447-8.417,1091.516-8.417L1091.516-8.417z M1061.08-27.082h-16.184v0.827
	l0.92,0.092c1.195,0.184,1.655,0.919,1.838,2.666c0.277,3.31,0.184,9.288,0,12.137c-0.184,1.748-0.643,2.575-1.838,2.666
	l-0.92,0.185v0.735h10.391v-0.735l-1.103-0.185c-1.195-0.091-1.655-0.919-1.839-2.666c-0.092-1.196-0.184-3.127-0.184-5.517
	l2.207,0.092c1.38,0,2.023,1.103,2.299,2.666h0.828v-6.526h-0.828c-0.277,1.563-0.919,2.666-2.299,2.666l-2.206,0.092
	c0-3.126,0.092-6.069,0.184-7.816h3.218c2.483,0,3.771,1.563,4.69,4.322l0.92-0.276L1061.08-27.082L1061.08-27.082z"/>
<path class="st0" d="M1066.321-21.933c4.598,0,6.897,3.126,6.897,7.264c0,3.954-2.575,7.265-7.173,7.265
	c-4.597,0-6.896-3.127-6.896-7.265C1059.149-18.623,1061.723-21.933,1066.321-21.933L1066.321-21.933z M1066.045-21.014
	c-2.023,0-2.575,2.759-2.575,6.344c0,3.494,0.92,6.344,2.759,6.344c2.113,0,2.666-2.759,2.666-6.344
	C1068.896-18.163,1067.977-21.014,1066.045-21.014z M1100.343-14.577c0-3.77,2.391-7.356,7.08-7.356c3.861,0,5.701,2.851,5.701,6.62
	h-8.552c-0.092,3.402,1.563,5.885,4.874,5.885c1.471,0,2.207-0.367,3.127-1.011l0.367,0.459c-0.92,1.287-2.942,2.575-5.516,2.575
	C1103.285-7.405,1100.343-10.347,1100.343-14.577L1100.343-14.577z M1104.572-16.324l4.322-0.092c0-1.839-0.276-4.597-1.839-4.597
	C1105.492-21.014,1104.663-18.439,1104.572-16.324z M1124.067-21.197c-1.103-0.46-2.574-0.736-4.229-0.736
	c-3.402,0-5.518,2.023-5.518,4.414s1.562,3.402,3.771,4.138c2.298,0.827,2.942,1.471,2.942,2.574s-0.828,2.114-2.299,2.114
	c-1.746,0-3.035-1.011-4.046-3.77l-0.644,0.185l0.092,4.046c1.103,0.459,3.126,0.828,4.874,0.828c3.586,0,5.885-1.84,5.885-4.69
	c0-1.931-1.012-3.034-3.403-3.954c-2.575-1.011-3.494-1.655-3.494-2.85c0-1.195,0.829-2.023,1.932-2.023
	c1.654,0,2.757,1.012,3.586,3.494l0.643-0.184L1124.067-21.197L1124.067-21.197z M1085.171-21.565
	c-1.563-0.919-4.322-0.46-5.793,2.851l0.091-3.218l-6.16,1.195v0.552l0.644,0.092c0.828,0.092,1.195,0.552,1.288,1.747
	c0.184,2.207,0.092,6.069,0,8c-0.092,1.102-0.459,1.654-1.288,1.746l-0.644,0.092v0.735h8.551v-0.735l-1.103-0.092
	c-0.919-0.092-1.195-0.644-1.288-1.746c-0.184-1.747-0.184-5.241-0.091-7.448c0.459-0.644,2.482-1.195,4.321,0L1085.171-21.565
	L1085.171-21.565z"/>
</svg>
