<?xml version="1.0" encoding="utf-8"?>
<!-- Svg Vector Icons : http://www.onlinewebfonts.com/icon -->
<!DOCTYPE svg PUBLIC "-//W3C//DTD SVG 1.1//EN" "http://www.w3.org/Graphics/SVG/1.1/DTD/svg11.dtd">
<svg version="1.1" xmlns="http://www.w3.org/2000/svg" xmlns:xlink="http://www.w3.org/1999/xlink" x="0px" y="0px" viewBox="0 0 1000 1000" enable-background="new 0 0 1000 1000" xml:space="preserve">
<metadata> Svg Vector Icons : http://www.onlinewebfonts.com/icon </metadata>
<g><g transform="translate(0.000000,200.000000) scale(0.100000,-0.100000)"><path d="M103.9-2830.8c0-2074.1,7.9-3750.8,15.7-3731.1c7.9,23.6,133.8,598.2,275.5,1279.1C536.9-4601.9,678.6-3928.8,710-3787.1c31.5,141.7,98.4,468.4,153.5,728.1c55.1,259.8,161.4,775.3,240.1,1141.4c78.7,370,236.1,1129.6,354.2,1696.3C1575.9,341.4,1674.3,829.5,1682.2,861c7.9,47.2-122,55.1-783.2,66.9l-799,7.9L103.9-2830.8z"/><path d="M2540.2,121c-314.9-905.2-641.5-1849.8-1416.9-4085.3C839.9-4786.8,517.2-5711.7,407-6022.6c-110.2-310.9-188.9-570.7-181-582.5c11.8-7.9,232.2,429,495.9,976.1c739.9,1550.7,1885.2,3943.6,2530.7,5289.6C3575.3,333.6,3839,896.4,3839,912.1c0,11.8-228.3,23.6-507.7,23.6h-503.8L2540.2,121z"/><path d="M4842.6,514.6C4515.9-12.8,4327-311.9,4008.2-803.9l-244-385.7h-220.4h-216.5v-350.3v-350.3l-712.4-1121.7l-708.4-1125.6l-204.6-11.8l-204.7-11.8l-3.9-318.8l-7.9-318.8l-444.8-704.5c-240.1-385.7-535.3-850.1-653.3-1031.2c-114.1-177.1-208.6-342.4-208.6-362.1c0-23.6,1763.2-39.4,4860.6-39.4H9900V-3000V935.7H7503.1H5110.2L4842.6,514.6z M4992.1-1295.8c11.8-19.7,23.6-173.2,31.5-346.3l15.8-314.9l-440.8-11.8l-444.7-11.8v-153.5v-157.4h373.9h373.9v-334.5v-330.6l-362.1-11.8l-366-11.8l-11.8-401.5l-11.8-405.4h-350.3h-354.2v1259.4v1259.4h763.5C4630-1268.3,4984.3-1280.1,4992.1-1295.8z M6672.7-1331.3c551-161.4,897.3-590.4,932.8-1157.1c35.4-488-259.8-980-728.1-1208.3c-192.9-94.4-271.6-110.2-558.9-110.2s-366,15.8-554.9,110.2c-877.7,429-991.8,1574.3-216.5,2156.8C5881.6-1287.9,6279.1-1213.2,6672.7-1331.3z M8235.2-1524.1c173.1-287.3,165.3-287.3,350.3,47.2l114.2,208.6H9105c224.3,0,401.5-15.7,393.6-31.5c-3.9-15.8-157.4-279.4-334.5-586.4c-181-307-326.7-578.5-326.7-602.2c0-39.4,468.4-846.2,700.5-1208.3l55.1-90.5h-413.3h-413.3l-177.1,303.1L8412.3-3185l-114.2-185c-59-102.3-141.7-240.1-177.1-303c-70.8-114.2-70.8-114.2-464.4-114.2c-216.5,0-393.6,7.9-393.6,15.8c0,7.8,157.4,287.3,354.2,617.9c192.9,334.6,354.2,625.8,354.2,653.4c0,23.6-149.6,299.1-334.5,606.1c-185,310.9-334.6,574.6-334.6,594.3c0,15.7,173.2,31.5,389.7,31.5h385.7L8235.2-1524.1z M9085.3-4184.6c181.1-47.2,393.6-228.3,460.5-393.6c59-141.7,43.3-161.4-228.3-251.9l-208.6-66.9l-78.7,102.3c-102.4,129.9-362.1,145.6-425.1,27.5c-63-118.1,27.5-184.9,393.6-295.2c185-55.1,381.8-137.8,436.9-181c366-287.3,267.6-976.1-169.2-1204.3c-429-220.4-1035.1-90.5-1259.4,271.5c-78.7,129.9-133.8,295.2-110.2,322.7c7.9,7.9,125.9,35.4,263.7,63l247.9,51.2l94.5-122c106.3-133.8,283.4-185,436.9-129.9c78.7,31.5,98.4,63,86.6,145.6c-11.8,98.4-47.2,118.1-373.9,228.3c-511.7,173.2-680.9,350.3-680.9,716.3C7975.4-4381.4,8522.5-4027.2,9085.3-4184.6z M2583.5-4771.1c181-303.1,342.4-551,358.2-551c19.7,0,31.5,247.9,31.5,551v554.9l267.6-11.8l263.7-11.8l11.8-1149.2l7.9-1153.2h-263.7h-267.6L2599.2-5881l-393.6,657.3l-11.8-633.6l-7.9-633.7l-208.6-27.6c-110.2-11.8-244-23.6-291.3-23.6h-90.5v1133.5c0,625.8,11.8,1149.2,27.6,1161c11.8,15.8,161.4,27.6,330.6,27.6h303L2583.5-4771.1z M5169.2-4483.8l-11.8-267.6l-440.8-11.8l-444.7-11.8v-173.2v-177.1h373.9h373.9v-236.1v-236.1h-373.9h-373.9v-196.8v-196.8h452.6h452.6v-275.5v-275.5l-736,7.9l-739.9,11.8l-11.8,1102c-3.9,606.1,0,1121.7,11.8,1149.2c11.8,39.4,196.8,51.2,747.8,51.2h732L5169.2-4483.8z M5905.2-4306.7c11.8-51.2,74.8-338.5,137.8-637.6c63-299.1,122-554.9,129.9-562.8c7.9-7.9,47.2,141.7,82.7,330.6c35.4,192.8,94.4,484.1,129.9,653.3l62.9,303.1h244h244l129.9-629.7c70.8-346.3,145.6-629.7,165.3-629.7c15.7,0,31.5,23.6,31.5,51.2c0,23.6,55.1,307,122,629.7l126,578.6h228.3c129.9,0,232.2-11.8,232.2-27.6c0-19.7-118.1-539.2-259.7-1161L7448-6542.2h-263.7h-263.7l-133.8,633.6c-82.7,417.2-137.7,610-157.4,562.9c-15.8-39.4-78.7-322.7-141.7-625.8l-110.2-551h-271.6h-271.5l-244,1043c-133.8,574.6-255.8,1090.2-267.6,1153.2l-27.6,106.3h295.2C5861.9-4220.1,5885.5-4228,5905.2-4306.7z"/><path d="M6145.3-1866.5c-51.2-70.8-63-204.6-63-661.2c0-645.5,31.5-747.8,236.2-747.8s236.1,102.3,236.1,747.8c0,645.5-31.5,747.8-236.1,747.8C6247.6-1779.9,6184.6-1811.4,6145.3-1866.5z"/></g></g>
</svg>