<?xml version="1.0" encoding="utf-8"?>
<!-- Generator: Adobe Illustrator 19.1.1, SVG Export Plug-In . SVG Version: 6.00 Build 0)  -->
<svg version="1.1" id="Layer_1" xmlns="http://www.w3.org/2000/svg" xmlns:xlink="http://www.w3.org/1999/xlink" x="0px" y="0px"
	 width="55px" height="45.357px" viewBox="-17 -101 55 45.357" style="enable-background:new -17 -101 55 45.357;"
	 xml:space="preserve">
<style type="text/css">
	.st0{fill:#B3B3B3;}
</style>
<path class="st0" d="M11.325-86.138c-0.045-0.996-0.113-1.88-0.181-1.993c-0.045-0.09-2.083-0.158-4.505-0.158H2.246v14.498h4.053
	l0.136-4.645l4.189-0.136V-82.4H6.322v-1.79l5.094-0.136L11.325-86.138z"/>
<path class="st0" d="M26.179-81.266c-0.204-3.262-2.196-5.731-5.366-6.66c-2.264-0.68-4.551-0.25-6.476,1.201
	c-4.46,3.353-3.804,9.945,1.246,12.415c1.087,0.543,1.539,0.634,3.192,0.634c1.653,0,2.106-0.091,3.215-0.634
	C24.684-75.625,26.382-78.457,26.179-81.266z M18.775-76.736c-1.178,0-1.359-0.589-1.359-4.304c0-2.628,0.068-3.398,0.362-3.806
	c0.226-0.317,0.589-0.499,0.996-0.499c1.177,0,1.358,0.589,1.358,4.304C20.133-77.325,19.952-76.736,18.775-76.736z"/>
<path class="st0" d="M29.859-86.72c-0.019-0.031-0.038-0.064-0.058-0.096l-0.906-1.473h-2.219c-1.245,0-2.242,0.091-2.242,0.181
	c0,0.113,0.861,1.631,1.925,3.421c1.064,1.767,1.924,3.353,1.924,3.489c0,0.159-0.928,1.835-2.038,3.761
	c-1.132,1.903-2.038,3.512-2.038,3.557c0,0.045,1.019,0.091,2.264,0.091c1.597,0,2.068,0,2.349-0.231
	c0.118-0.096,0.202-0.233,0.322-0.427c0.108-0.192,0.294-0.507,0.494-0.848c0.177-0.3,0.366-0.621,0.525-0.896l0.657-1.065
	l1.018,1.722l1.019,1.745h4.755l-0.317-0.521c-1.335-2.084-4.03-6.728-4.03-6.955c0-0.136,0.838-1.699,1.88-3.466
	c0.19-0.33,0.375-0.651,0.551-0.955l0-0.001l0,0c0.767-1.328,1.354-2.345,1.372-2.419c0.045-0.091-0.974-0.181-2.264-0.181h-2.332
	l-0.657,1.201c-0.024,0.043-0.047,0.086-0.07,0.127l-0.001,0.002l0,0c-0.503,0.91-0.745,1.349-0.989,1.35
	C30.529-85.608,30.3-85.987,29.859-86.72L29.859-86.72z"/>
<path class="st0" d="M37.341-69.237c-0.385-0.951-1.607-1.994-2.649-2.266c-3.238-0.906-6.385,1.133-6.407,4.124
	c0,2.107,0.973,3.126,3.917,4.123c1.879,0.634,2.083,0.748,2.151,1.314c0.068,0.475-0.045,0.657-0.498,0.838
	c-0.883,0.317-1.902,0.022-2.513-0.748l-0.544-0.702l-1.426,0.295c-0.793,0.159-1.472,0.317-1.517,0.363
	c-0.136,0.158,0.181,1.11,0.634,1.857c1.29,2.084,4.777,2.831,7.245,1.563c2.513-1.314,3.079-5.278,0.973-6.932
	c-0.317-0.249-1.449-0.725-2.513-1.042c-2.106-0.635-2.627-1.019-2.264-1.699c0.362-0.68,1.856-0.589,2.446,0.158l0.453,0.589
	l1.2-0.385C37.59-68.308,37.68-68.422,37.341-69.237z"/>
<path class="st0" d="M-0.652-64.955c-0.091,0-1.019-1.427-2.061-3.172l-1.88-3.172h-1.743c-0.973,0-1.834,0.068-1.902,0.159
	c-0.091,0.068-0.159,3.081-0.159,6.683v6.524h0.521c0.272,0,1.042-0.068,1.676-0.136l1.2-0.159l0.045-3.648l0.068-3.647l2.264,3.783
	l2.265,3.806h3.057L2.654-64.57l-0.068-6.615l-3.057-0.136v3.194C-0.471-66.382-0.539-64.955-0.652-64.955z"/>
<path class="st0" d="M7.001-68.105l5.094-0.136l0.136-3.059H8.02c-3.17,0-4.234,0.068-4.302,0.295
	c-0.068,0.158-0.09,3.126-0.068,6.615l0.068,6.343l4.257,0.068l4.234,0.045v-3.172H7.001v-2.266h4.302v-2.718H7.001V-68.105z"/>
<path class="st0" d="M17.19-67.13c-0.362-1.722-0.725-3.375-0.793-3.67c-0.113-0.453-0.249-0.498-1.811-0.499h-1.698l0.159,0.612
	c0.046,0.247,0.388,1.708,0.845,3.662l0,0.001l0,0.001c0.213,0.909,0.45,1.925,0.694,2.975l1.404,6.003h3.124l0.634-3.172
	c0.362-1.745,0.724-3.375,0.815-3.602c0.113-0.271,0.43,0.839,0.905,3.24l0.77,3.647h3.034l1.518-6.525
	c0.815-3.579,1.494-6.569,1.494-6.683c0-0.091-0.589-0.159-1.336-0.159h-1.313l-0.725,3.33c-0.385,1.857-0.702,3.489-0.702,3.625
	c0,0.159-0.091,0.295-0.181,0.295c-0.113,0-0.544-1.631-0.951-3.625l-0.747-3.625h-2.807l-0.362,1.745
	c-0.204,0.974-0.544,2.651-0.747,3.76c-0.204,1.087-0.43,1.948-0.476,1.903C17.892-63.936,17.552-65.408,17.19-67.13z"/>
<path class="st0" d="M-16.547-55.893c0-0.113,0.544-1.065,1.2-2.084c0.679-1.042,2.377-3.715,3.758-5.936l2.559-4.055l0.045-1.835
	l0.022-1.835l2.355-0.136l4.075-6.479l4.098-6.456v-4.033H4.08l1.404-2.22c1.834-2.832,2.921-4.554,4.8-7.589l1.539-2.424
	L11.851-101H4.574l-0.063,0.161c0,0.09-1.517,3.33-3.374,7.204c-3.714,7.747-10.302,21.521-14.559,30.447
	c-1.517,3.149-2.785,5.664-2.853,5.618c-0.045-0.068,0.407-1.563,1.041-3.353c0.634-1.79,2.49-7.113,4.121-11.848
	c1.834-5.291,3.232-9.325,4.368-12.604l0-0.001l0.005-0.015c1.624-4.687,2.712-7.83,3.778-10.894l1.653-4.689L-1.295-101h-6.501
	l-0.102,0.455c-0.02,0.078-0.136,0.645-0.316,1.523l0,0.001l0,0c-0.238,1.16-0.588,2.863-0.974,4.705
	c-0.177,0.85-0.37,1.776-0.565,2.718l0,0.001l0,0.001c-0.555,2.67-1.137,5.469-1.472,7.043c-0.281,1.307-0.623,2.945-0.918,4.358
	c-0.18,0.865-0.343,1.645-0.464,2.212c-0.128,0.604-0.267,1.272-0.4,1.906l0,0.001c-0.195,0.935-0.375,1.798-0.483,2.284
	c-0.181,0.816-0.996,4.69-1.812,8.609c-0.815,3.919-1.539,7.227-1.585,7.362L-17-57.398v1.756h0.345L-16.547-55.893z"/>
</svg>
