<?xml version="1.0" encoding="utf-8"?>
<!-- Generator: Adobe Illustrator 19.1.1, SVG Export Plug-In . SVG Version: 6.00 Build 0)  -->
<svg version="1.1" id="Layer_1" xmlns="http://www.w3.org/2000/svg" xmlns:xlink="http://www.w3.org/1999/xlink" x="0px" y="0px"
	 width="140px" height="24.977px" viewBox="880.588 76.66 140 24.977" style="enable-background:new 880.588 76.66 140 24.977;"
	 xml:space="preserve">
<style type="text/css">
	.st0{fill:#B3B3B3;}
</style>
<g>
	<path class="st0" d="M891.899,77.196c-0.124,1.283-1.591,3.173-3.313,3.27c-1.773,0.061-3.655-1.674-5.508-1.607
		c-0.99,0.036-2.145,0.452-2.193,1.688c-0.013,0.987,0.808,1.439,2.047,1.423c1.056-0.067,1.29-0.201,2.124-0.716
		c-0.415,0.716-1.235,1.169-2.131,1.248c-1.483-0.03-2.205-0.985-2.333-2.069c-0.097-1.251,1.089-3.607,3.688-3.605
		c2.323-0.002,4.192,1.447,5.508,1.478C890.715,78.29,891.284,77.785,891.899,77.196"/>
	<path class="st0" d="M889.35,82.574c0.552,0.008,1.071,0.501,1.071,1.176c0,0.607-0.539,1.088-1.076,1.086
		c-0.566-0.002-1.42-0.621-0.814-1.561c0,0-0.89,0.401-0.639,1.423c0.84,0.637,2.025,1.633,1.791,3.303
		c-0.263,1.875-3.032,2.327-3.481,3.976c-0.486-1.173-1.227-1.725-2.181-1.714c-1.625,0.017-2.587,1.324-2.546,2.279
		c0.066,1.507,1.037,2.144,3.133,2.092c1.976-0.099,3.165-0.953,3.975-2.281c-0.256,0.943-1.295,3.138-4.11,3.171
		c-2.647-0.033-3.502-1.977-3.534-3.385c0.034-2.613,2.109-3.654,3.517-3.67c1.517-0.018,2.161,0.672,3.049,1.593
		c0,0,0.488-1.06-0.076-2.026c-1.026-1.756-2.718-1.397-3.107-3.57c-0.326-1.812,2.144-3.72,2.881-3.94
		c-0.566,0.593-1.488,1.247-0.905,2.733c0.255,0.65,1.294,1.174,1.294,1.174C887.58,83.877,888.059,82.557,889.35,82.574
		 M891.375,83.605l1.349-1.909c0,0,1.069,0.15,1.638,1.482l1.097-1.439c0,0,0.829,1.309,1.964,0.08c0,0-0.533,2.097-1.898,2.157
		c-0.489,0.022-1.04-0.384-1.04-0.384l-0.002,5.777c0,0-0.094,0.672,0.842,0.882c0,0-0.935,0.965-1.569,1.908
		c-0.797-0.975-1.749-1.749-1.749-1.749s0.44-0.158,0.444-0.799l0.004-5.635C892.454,83.974,892.356,83.097,891.375,83.605"/>
	<path class="st0" d="M902.512,89.141l-0.015-5.15c0,0-0.045-0.198,0.346-0.62l-1.724-1.615c0,0-1.501,1.256-2.816,1.715
		c-1.024,0.357-0.996,1.332-0.996,1.332l0.006,5.264c0,0-0.245,1.009,1.857,2.151c0,0,0.602-1.079,1.464-1.956
		c0,0,0.139,1.331,1.537,1.852c0,0,0.401-1.096,1.277-1.748C903.051,90.19,902.514,89.978,902.512,89.141z M899.927,90.181
		c-0.471,0-0.748-0.535-0.731-0.991v-5.037c-0.017-0.407,0.114-0.812,0.553-1.024l0,0c0.877,0.585,0.829,1.089,0.828,1.09
		l0.002,5.232C900.579,89.451,900.577,90.181,899.927,90.181z"/>
	<path class="st0" d="M905.772,81.816c-0.651,0.945-1.539,1.991-1.539,1.991s0.942,0.127,0.904,0.812l0.012,4.939
		c-0.006,0.757-0.479,0.793-0.479,0.793s0.908,0.744,1.511,1.835c0,0,0.658-1.157,1.375-1.858c0,0-0.483,0.022-0.483-0.824
		l-0.015-4.872c0.012-0.291,0.389-0.763,0.715-0.763c0.667,0,0.796,0.538,0.779,0.961v5.049c-0.014,0.684-0.012,1.373,1.324,2.285
		c0,0,0.69-1.108,1.553-1.841c0,0-0.92,0.093-0.92-0.949l-0.012-5.098c0,0,0-0.676,0.245-0.84c0,0-0.965-0.725-1.709-1.659
		l-1.924,2.14C906.767,82.073,905.772,81.816,905.772,81.816"/>
	<path class="st0" d="M916.447,78.161L916.447,78.161c-0.19-0.232-0.444,0.119-0.444,0.119l-0.988,1.211l-0.008-0.655
		c-0.021-0.533,0.209-1.076,0.736-1.493c0,0-1.513-0.135-1.997,1.727c0,0-0.573-0.356-0.945-0.32c0.117,0.235,0.12,0.589,0.12,0.589
		v2.77l-0.505-0.004v0.891l0.529-0.003l-0.01,6.559c0.003,0.604-0.452,0.775-0.452,0.775s0.961,0.67,1.597,2.011
		c0,0,0.554-1.244,1.929-1.932c0,0-0.988-0.201-1.005-0.973l0.003-6.44l0.874,0.003v-0.892l-0.86,0.002l-0.002-0.15l1.212-1.063
		C917.507,79.636,916.812,78.381,916.447,78.161z M915,81.738v-1.969C916.337,80.741,915,81.738,915,81.738z"/>
	<path class="st0" d="M921.114,76.955c0,0-0.861,2.567-3.349,2.683l0.008,2.32h-0.601v0.958l0.582,0.002l0.01,12.987h0.415
		l0.002-2.484c0,0-0.041-1.077,0.626-1.195l0.568-0.085c0,0,0.487,0.006,0.474-0.531l-0.01-8.683l1.013-0.006v-0.961l-0.975-0.002
		l-0.003-2.921c0,0,2.473,2.094,3.36-1.877C923.235,77.16,922.235,78.775,921.114,76.955"/>
	<path class="st0" d="M923.294,81.761c-0.731,1.105-1.545,1.662-1.545,1.662s0.666,0.13,0.679,0.868l0.033,5.546
		c0.002,0.585-0.374,0.707-0.374,0.707c0.734,0.597,1.629,1.726,1.629,1.726s1.516-1.815,2.262-2.286
		c-0.266,1.302,1.377,2.234,1.377,2.234l1.318-1.829c0,0-0.703-0.178-0.734-0.942l-0.015-5.26c0.015-0.601,0.392-0.896,0.392-0.896
		c-1.011-0.633-1.334-1.627-1.334-1.627c-0.345,0.707-0.86,1.317-1.499,1.776c0,0,0.443,0.293,0.443,0.715l0.01,5.069
		c0.004,0.39-0.253,0.943-0.808,0.943c-0.455,0-0.683-0.552-0.715-0.797l-0.033-5.586C924.379,82.528,923.294,81.761,923.294,81.761
		 M929.676,83.685l1.362-1.915c0,0,0.88,0.326,1.328,1.534l0.835-1.552c0,0,0.578,1.109,1.42,0.095c0,0,0.097,2.472-1.25,2.482
		c-0.544,0.004-0.938-0.498-0.938-0.498l-0.002,5.538c0,0-0.134,1.082,1.108,1.013c0,0-1.13,0.813-1.669,1.854
		c-0.797-0.975-1.893-1.724-1.893-1.724s0.523-0.14,0.548-0.743l-0.02-5.16C930.508,84.61,930.572,83.829,929.676,83.685
		 M935.77,82.063l-0.409-0.004l-0.002,1.013l0.428-0.004l0.022,6.812c0.021,0.456-0.324,0.684-0.324,0.684s0.788,0.611,1.521,1.539
		c0.766-1.083,1.849-1.667,1.849-1.667s-1.083-0.116-1.083-0.768l-0.014-6.613l1.062,0.007l-0.003-1.004l-1.045,0.004l-0.01-3.02
		l-1.983,0.724L935.77,82.063"/>
	<path class="st0" d="M944.335,85.392c0.371-0.394,0.503-0.659,0.52-1.212c0.029-0.953-0.748-1.599-1.282-2.464v0
		c-0.735,0.75-1.303,0.793-1.781,1.044c-0.822,0.433-1.963,0.731-1.952,2.266l0.006,4.548c0.018,1.934,1.62,2.066,2.588,2.594
		c0.647-1.23,2.05-2.238,2.05-2.238l-0.214-0.133c0,0-0.505,0.547-1.172,0.522c-1.238-0.049-1.251-1.339-1.251-1.339L941.846,87
		C941.846,87,943.473,86.306,944.335,85.392z M941.844,86.824l0.002-2.541c-0.016-1.121,0.233-1.263,0.233-1.263
		C944.473,85.773,941.844,86.825,941.844,86.824z"/>
	<path class="st0" d="M945.247,83.399c0.637-0.503,1.478-1.764,1.478-1.764s0.753,0.27,1.306,1.579
		c0.452-0.587,0.906-1.593,0.906-1.593s0.837,1.458,1.796-0.002c0,0-0.205,2.467-1.615,2.601c-0.542,0.052-1.038-0.653-1.038-0.653
		v5.651c0,0.922,1.125,1.073,1.125,1.073s-1.159,0.637-1.73,1.813c-0.797-0.975-1.71-1.729-1.71-1.729s0.339-0.066,0.366-0.669
		l0.006-5.391C946.138,83.307,945.247,83.399,945.247,83.399"/>
	<path class="st0" d="M962.087,89.237l-2.367-10.09c0,0-0.476-2.485-2.896-2.488c-1.392-0.001-2.647,0.945-2.647,2.39
		c0,0.932,0.762,1.755,1.687,1.755c0.734,0.002,1.125-0.697,1.125-0.697v0c0,0-0.633,0.434-1.138,0.434
		c-0.48,0-0.862-0.419-0.859-0.846c0.003-0.624,0.673-0.938,1.298-0.938c1.267,0,1.525,1.759,1.525,1.759l-2.971,8.541
		c-1.511,0.017-2.779,1.494-2.762,3.283c0.017,1.85,1.544,3.168,3.542,3.156c3.073-0.018,3.983-2.929,3.983-2.929
		c-0.601,0.633-1.178,2.041-4.048,2.029c-1.436-0.006-3.005-0.599-3.036-1.85c-0.018-0.699,0.734-1.413,1.638-1.413
		c1.072,0,1.722,0.747,1.722,0.747l2.2-2.355l-0.171-0.184l-0.534,0.528c-0.797-0.865-2.065-1.002-2.065-1.002l0.914-2.674
		l2.947,0.005l1.012,4.285c0.311,1.122,0.912,0.831,1.926,1.588l1.118-2.273C963.229,89.999,962.364,90.229,962.087,89.237z
		 M956.487,85.681l1.507-4.414l1.013,4.421L956.487,85.681z"/>
	<path class="st0" d="M964.123,89.549c0.021,0.457-0.636,0.664-0.636,0.664s0.926,0.861,1.726,2.021
		c0.644-1.302,1.718-1.858,1.718-1.858s-0.791-0.055-0.791-0.707V77.718l-2.018,0.961V89.549 M968.494,89.491
		c-0.003,0.527-0.435,0.791-0.435,0.791s0.903,0.906,1.561,1.967c0.675-1.369,1.759-1.882,1.759-1.882s-0.872-0.047-0.872-0.699
		V77.541l-2.013,1.143V89.491"/>
	<g>
		<polygon class="st0" points="976.634,81.598 976.634,81.598 976.634,81.598 		"/>
		<path class="st0" d="M984.068,81.592L984.068,81.592c-0.534,0.422-1.607,1.009-2.116,1.188c-1.822,0.636-1.842,0.884-1.842,2.248
			l0.002,4.632c0,2.075,1.614,1.768,2.651,2.517c0.231-1.038,1.674-2.25,1.674-2.25l-0.081-0.09c0,0-0.386,0.33-1.055,0.303
			c-1.238-0.049-1.22-1.158-1.22-1.158l0.001-1.797c0,0,1.431-0.81,2.413-1.736c0.395-0.372,0.505-0.714,0.522-1.267
			C985.045,83.227,984.506,83.002,984.068,81.592z M982.079,86.971l0.002-2.688c-0.017-1.121,0.268-1.379,0.268-1.379
			C984.538,86.123,982.079,86.972,982.079,86.971z"/>
		<path class="st0" d="M978.059,83.735c-0.002-0.411,0.342-0.744,0.342-0.744c-1.051-0.591-1.767-1.392-1.767-1.392
			c-2.299,1.658-3.881,1.239-3.9,2.817l0.018,5.613c-0.005,1.03,0.823,1.582,1.717,2.169l1.618-1.918l0.003,1.062
			c-0.012,1.245,0.914,1.18,0.899,2.382c-0.012,0.894-0.72,1.32-1.432,1.317c-1.155-0.006-1.519-0.607-1.573-0.709
			c-0.006-0.009-0.008-0.015-0.008-0.015s0.003,0.006,0.008,0.015c0.02,0.029,0.09,0.089,0.333,0.085
			c0.622-0.014,1.013-0.367,1.011-0.963c-0.002-0.573-0.452-0.964-1.012-0.954c-0.59,0.011-1.024,0.461-1.02,0.962
			c0.005,0.799,0.476,1.855,2.404,1.848c1.923-0.008,3.235-1.454,3.235-2.59c0-0.885-0.826-1.093-0.826-2.12L978.059,83.735z
			 M975.46,90.247c-0.489,0.015-0.693-0.24-0.721-0.831l-0.011-5.53c0.002-0.831,0.331-1.024,0.331-1.024l1.006,1.02v0l0.01,5.49
			C976.076,89.986,975.914,90.233,975.46,90.247z"/>
	</g>
	<path class="st0" d="M987.315,81.58l-1.606,1.912c0,0,0.935,0.066,0.935,0.718l0.025,5.358c-0.01,0.702-0.313,0.865-0.313,0.865
		s0.793,0.699,1.414,1.76c0.453-1.029,1.381-1.876,1.381-1.876s-0.415-0.363-0.433-0.879l-0.017-4.868
		c0.084-0.451,0.374-0.677,0.653-0.687c0.351-0.007,0.642,0.27,0.653,0.621l0.034,5.038c0,0.479-0.297,0.713-0.297,0.713
		s0.742,0.929,1.254,1.987c0.562-1.244,1.479-1.93,1.479-1.93s-0.495-0.386-0.495-1.054l-0.014-4.868
		c0.079-0.433,0.289-0.612,0.617-0.671c0.341-0.061,0.638,0.199,0.703,0.538l0.041,5.906c0,0.975,0.813,1.446,1.661,1.959
		c0.387-1.098,1.358-1.956,1.358-1.956s-1.102,0.116-1.102-0.896l-0.026-5.534c0.012-0.457,0.388-0.719,0.388-0.719
		c-1.029-0.457-1.849-1.423-1.849-1.423l-1.826,2.228c0.081-1.164-1.275-2.193-1.275-2.193l-1.976,2.404
		C988.54,81.975,987.315,81.58,987.315,81.58"/>
	<g>
		<path class="st0" d="M1001.147,81.568c-2.809,2.163-3.64,1.821-3.64,2.904l0.004,5.725c0,1.268,1.075,1.238,2.111,1.987
			c0.487-0.93,1.415-1.708,2.224-2.277l-0.099-0.108c0,0-0.46,0.371-1.13,0.359c-1.369-0.025-1.22-1.177-1.22-1.177l0.001-1.834
			c0,0,1.069-0.574,2.092-1.465c0.409-0.355,0.706-0.927,0.73-1.481C1002.271,83.179,1001.65,82.933,1001.147,81.568
			L1001.147,81.568z M999.395,86.899l0.002-2.616c-0.017-1.12,0.062-1.283,0.062-1.283c0,0,0,0,0,0l0,0v0
			C1001.701,85.68,999.687,86.721,999.395,86.899z"/>
		<path class="st0" d="M1017.637,86.999c0,0,0.871-0.422,2.092-1.298c0.44-0.315,0.83-0.772,0.856-1.325
			c0.047-1.023-0.48-1.153-0.995-2.876l0,0c-1.686,1.723-3.816,1.599-3.852,3.302l0.01,5.395c0.045,1.012,0.942,1.208,1.979,1.957
			c0.834-1.227,1.854-1.813,2.663-2.382l-0.1-0.108c0,0-0.813,0.635-1.48,0.622c-1.37-0.025-1.174-1.306-1.174-1.306
			L1017.637,86.999z M1017.85,82.919C1017.85,82.919,1017.85,82.919,1017.85,82.919L1017.85,82.919L1017.85,82.919
			c1.563,1.42,0.959,3.374-0.217,3.887l0.002-2.523C1017.618,83.163,1017.85,82.919,1017.85,82.919z"/>
	</g>
	<path class="st0" d="M1008.727,81.642l-1.334,1.776c0,0,0.996,0.141,0.959,0.833l0.017,5.415c0.018,0.249-0.354,0.603-0.354,0.603
		s0.853,0.907,1.189,1.849c0.64-0.996,1.564-1.849,1.564-1.849s-0.498-0.266-0.498-0.78v-4.9c0.143-0.426,0.409-0.709,0.746-0.728
		c0.319-0.018,0.692,0.284,0.656,0.621l0.017,5.344c0,1.668,1.475,2.256,1.475,2.256l1.261-1.83c0,0-0.819,0-0.837-0.621
		l-0.017-5.702c0.053-0.513,0.337-0.78,0.337-0.78c-0.975-0.39-1.65-1.296-1.65-1.296l-1.935,2.132
		C1010.235,82.05,1008.727,81.642,1008.727,81.642 M1004.679,81.659c-0.533,0.799-1.67,1.635-1.67,1.635s0.782,0.112,0.782,0.766
		l-0.002,5.535c0.017,0.461-0.445,0.746-0.445,0.746s0.801,0.852,1.314,1.779c0.622-0.961,1.474-1.797,1.474-1.797
		s-0.444-0.284-0.426-0.746l-0.017-5.557c0.017-0.515,0.427-0.781,0.427-0.781C1005.356,82.619,1004.679,81.659,1004.679,81.659
		 M1003.615,78.624c-0.016-0.608,0.464-1.114,1.072-1.13c0.608-0.016,1.114,0.464,1.13,1.072c0,0.02,0,0.04,0,0.059
		c-0.017,0.608-0.523,1.088-1.131,1.071C1004.101,79.68,1003.631,79.209,1003.615,78.624"/>
	<path class="st0" d="M904.548,101.377l-0.065,0.089v0.092h3.049l0.031-0.182L904.548,101.377L904.548,101.377z M908.991,101.377
		c-0.078,0.061-0.199,0.091-0.389,0.089v0.092h2.844l0.061-0.182L908.991,101.377L908.991,101.377z M912.961,101.377
		c-0.08,0.064-0.213,0.089-0.425,0.089v0.092h1.625v-0.092c-0.203,0-0.335-0.025-0.418-0.089H912.961z M916.105,101.377
		c-0.076,0.059-0.199,0.091-0.39,0.089v0.092h1.583v-0.092c-0.18,0-0.311-0.025-0.395-0.091L916.105,101.377z M919.593,101.377
		c0.237,0.163,0.568,0.26,1.006,0.26c0.382,0,0.688-0.097,0.917-0.261l-0.493,0.002c-0.124,0.026-0.251,0.038-0.378,0.037
		c-0.119,0-0.227-0.014-0.324-0.038L919.593,101.377L919.593,101.377z M923.826,101.377c-0.084,0.063-0.215,0.093-0.409,0.089v0.092
		h1.275v-0.092c-0.17,0.002-0.291-0.025-0.374-0.088L923.826,101.377z M926.505,101.377l0.199,0.222h0.072v-0.224L926.505,101.377z
		 M929.083,101.377c0.308,0.161,0.691,0.26,1.148,0.26c0.501,0,0.803-0.075,1.18-0.26h-0.714c-0.136,0.044-0.277,0.065-0.42,0.063
		c-0.145,0.001-0.29-0.021-0.429-0.063H929.083z M935.862,101.377c-0.076,0.062-0.195,0.093-0.374,0.089v0.092h1.558v-0.092
		c-0.183,0.002-0.308-0.025-0.388-0.089H935.862z M940.271,101.377c0.237,0.163,0.568,0.26,1.006,0.26
		c0.382,0,0.688-0.097,0.917-0.261l-0.494,0.002c-0.113,0.025-0.239,0.037-0.378,0.037c-0.118,0-0.227-0.014-0.323-0.038
		L940.271,101.377L940.271,101.377z M944.441,101.377c-0.075,0.058-0.191,0.091-0.371,0.089v0.092h1.543v-0.092
		c-0.183,0.004-0.299-0.03-0.374-0.089H944.441L944.441,101.377z M946.639,101.377l0.146,0.182h0.921v-0.092
		c-0.109-0.009-0.214-0.04-0.311-0.091L946.639,101.377z M951.135,101.377c-0.079,0.059-0.203,0.089-0.395,0.089v0.092h1.794
		c0.358,0,0.685-0.066,0.967-0.183l-1.043,0.002c-0.029,0.002-0.059,0.002-0.088,0.002c-0.026,0-0.053,0-0.077-0.002
		L951.135,101.377L951.135,101.377z M955.941,101.377c-0.077,0.061-0.199,0.091-0.388,0.089v0.092h2.844l0.061-0.182
		L955.941,101.377L955.941,101.377z M960.478,101.377c0.235,0.163,0.566,0.26,1.005,0.26c0.382,0,0.687-0.097,0.917-0.261
		l-0.494,0.002c-0.124,0.026-0.251,0.038-0.378,0.037c-0.117,0-0.225-0.014-0.323-0.038L960.478,101.377L960.478,101.377z
		 M965.206,101.377c-0.079,0.059-0.2,0.091-0.391,0.089v0.092h1.584v-0.092c-0.18,0-0.311-0.025-0.396-0.091L965.206,101.377z
		 M968.049,101.377v0.26h0.092c0.052-0.13,0.118-0.186,0.21-0.186c0.181,0,0.453,0.186,0.906,0.186c0.284,0,0.543-0.099,0.737-0.26
		h-0.505c-0.105,0.043-0.217,0.064-0.33,0.063c-0.135,0-0.256-0.022-0.364-0.065L968.049,101.377L968.049,101.377z M972.285,101.377
		c0.284,0.165,0.618,0.26,0.979,0.26c0.358,0,0.672-0.088,0.939-0.264l-0.425,0.004c-0.222,0.05-0.452,0.05-0.674,0L972.285,101.377
		L972.285,101.377z M975.953,101.377c-0.078,0.061-0.199,0.089-0.385,0.089v0.092h1.583v-0.092c-0.19,0-0.319-0.025-0.401-0.089
		H975.953z M978.253,101.377c-0.081,0.065-0.211,0.092-0.408,0.089v0.092h1.596v-0.092c-0.194,0-0.324-0.023-0.405-0.091
		L978.253,101.377L978.253,101.377z M980.758,101.377c-0.079,0.063-0.208,0.093-0.413,0.089v0.092h2.818l0.057-0.182
		L980.758,101.377L980.758,101.377z M984.158,101.377c-0.065,0.05-0.142,0.081-0.224,0.089v0.092h1.018v-0.092
		c-0.15,0-0.258-0.031-0.32-0.089H984.158z M986.611,101.377c-0.061,0.058-0.163,0.089-0.302,0.089h-0.005v0.092h1.45v-0.092
		c-0.138,0-0.233-0.016-0.315-0.089H986.611L986.611,101.377z M988.738,101.377c-0.084,0.063-0.214,0.093-0.408,0.089v0.092h1.276
		v-0.092c-0.17,0.002-0.292-0.025-0.374-0.088L988.738,101.377L988.738,101.377z M991.419,101.377l0.198,0.222h0.073v-0.224
		L991.419,101.377z M993.481,101.377c-0.079,0.059-0.202,0.089-0.394,0.089v0.092h1.795c0.331,0.003,0.659-0.059,0.966-0.183
		l-1.043,0.002c-0.029,0.002-0.059,0.002-0.089,0.002c-0.025,0-0.052,0-0.076-0.002L993.481,101.377"/>
	<path class="st0" d="M904.735,101.116l-0.187,0.26h3.016l0.044-0.26h-0.209c-0.128,0.174-0.311,0.221-0.652,0.221h-1.491
		l0.16-0.222L904.735,101.116L904.735,101.116z M909.107,101.116c-0.01,0.115-0.043,0.203-0.116,0.262l2.516-0.002l0.084-0.26
		h-0.245c-0.152,0.155-0.362,0.241-0.579,0.235h-0.884c-0.143,0-0.206-0.071-0.215-0.236L909.107,101.116z M913.067,101.116
		c-0.008,0.122-0.038,0.206-0.106,0.26h0.782c-0.069-0.054-0.103-0.139-0.113-0.26L913.067,101.116L913.067,101.116z
		 M916.224,101.116c-0.01,0.111-0.042,0.198-0.12,0.259l0.799,0.002c-0.07-0.057-0.108-0.14-0.117-0.261L916.224,101.116
		L916.224,101.116z M919.331,101.116c0.069,0.1,0.156,0.186,0.262,0.26h0.729c-0.166-0.041-0.317-0.132-0.431-0.26L919.331,101.116
		L919.331,101.116z M921.52,101.116c-0.123,0.127-0.288,0.215-0.496,0.26h0.493c0.103-0.075,0.189-0.161,0.26-0.26L921.52,101.116
		L921.52,101.116z M923.948,101.116c-0.012,0.114-0.049,0.2-0.122,0.259l0.493,0.002c-0.071-0.056-0.113-0.14-0.131-0.261
		L923.948,101.116L923.948,101.116z M926.274,101.116l0.23,0.259l0.27,0.002v-0.261L926.274,101.116L926.274,101.116z
		 M928.703,101.116c0.111,0.099,0.237,0.186,0.38,0.26h0.766c-0.18-0.055-0.347-0.144-0.492-0.263L928.703,101.116z
		 M931.069,101.116v0.066c-0.115,0.08-0.24,0.144-0.372,0.193l0.714,0.002c0.069-0.034,0.139-0.071,0.213-0.112v-0.15
		L931.069,101.116L931.069,101.116z M935.976,101.116c-0.011,0.114-0.045,0.2-0.115,0.259l0.796,0.002
		c-0.07-0.057-0.105-0.142-0.116-0.26L935.976,101.116z M940.009,101.116c0.069,0.1,0.156,0.186,0.263,0.26h0.729
		c-0.167-0.041-0.317-0.132-0.432-0.26L940.009,101.116L940.009,101.116z M942.198,101.116c-0.123,0.127-0.288,0.215-0.497,0.26
		h0.494c0.102-0.075,0.189-0.161,0.26-0.26L942.198,101.116L942.198,101.116z M944.556,101.116
		c-0.008,0.107-0.039,0.196-0.115,0.259l0.797,0.002c-0.081-0.065-0.112-0.156-0.121-0.26L944.556,101.116L944.556,101.116z
		 M946.43,101.116l0.209,0.26h0.757c-0.12-0.07-0.228-0.157-0.32-0.26H946.43z M951.256,101.116c-0.011,0.115-0.044,0.202-0.12,0.26
		h1.158c-0.162-0.004-0.323-0.03-0.479-0.076v-0.184H951.256z M953.318,101.116c-0.257,0.164-0.555,0.254-0.859,0.26h1.043
		c0.164-0.071,0.314-0.158,0.446-0.26H953.318L953.318,101.116z M956.058,101.116c-0.01,0.115-0.043,0.203-0.117,0.262l2.516-0.002
		l0.084-0.26h-0.244c-0.152,0.156-0.362,0.241-0.58,0.235h-0.884c-0.143,0-0.206-0.071-0.215-0.236L956.058,101.116z
		 M960.214,101.116c0.069,0.1,0.156,0.186,0.264,0.26h0.726c-0.166-0.042-0.316-0.132-0.43-0.26L960.214,101.116L960.214,101.116z
		 M962.403,101.116c-0.123,0.127-0.288,0.215-0.497,0.26h0.494c0.101-0.075,0.189-0.161,0.26-0.26L962.403,101.116L962.403,101.116z
		 M965.325,101.116c-0.01,0.111-0.042,0.198-0.119,0.259l0.797,0.002c-0.07-0.057-0.108-0.14-0.116-0.261L965.325,101.116
		L965.325,101.116z M968.049,101.116v0.26h0.747c-0.139-0.056-0.261-0.145-0.358-0.26L968.049,101.116L968.049,101.116z
		 M969.776,101.116c-0.062,0.117-0.163,0.209-0.286,0.259l0.505,0.002c0.089-0.074,0.164-0.162,0.222-0.262L969.776,101.116
		L969.776,101.116z M971.94,101.116c0.103,0.1,0.218,0.188,0.344,0.26h0.82c-0.2-0.046-0.387-0.135-0.547-0.262L971.94,101.116z
		 M974.321,101.116c-0.161,0.123-0.346,0.211-0.542,0.259l0.425,0.002c0.11-0.075,0.213-0.161,0.307-0.262L974.321,101.116
		L974.321,101.116z M976.073,101.116c-0.01,0.116-0.044,0.203-0.12,0.26h0.798c-0.068-0.054-0.104-0.139-0.115-0.26L976.073,101.116
		L976.073,101.116z M978.367,101.116c-0.01,0.119-0.045,0.205-0.114,0.26h0.782c-0.062-0.056-0.096-0.139-0.106-0.26H978.367z
		 M980.87,101.116c-0.01,0.114-0.041,0.2-0.112,0.259l2.462,0.002l0.083-0.26h-0.255c-0.181,0.17-0.395,0.211-0.693,0.211h-0.72
		c-0.153,0-0.205-0.051-0.205-0.207v-0.004L980.87,101.116L980.87,101.116z M984.342,101.116c-0.063,0.127-0.119,0.209-0.183,0.26
		h0.474c-0.04-0.039-0.062-0.093-0.06-0.149c0-0.032,0.006-0.073,0.019-0.112L984.342,101.116L984.342,101.116z M986.66,101.116
		c0.01,0.033,0.015,0.067,0.015,0.102c0,0.064-0.021,0.118-0.063,0.159h0.829c-0.059-0.052-0.111-0.135-0.168-0.261L986.66,101.116
		L986.66,101.116z M988.862,101.116c-0.012,0.114-0.049,0.2-0.123,0.259l0.495,0.002c-0.073-0.056-0.114-0.14-0.131-0.261
		L988.862,101.116L988.862,101.116z M991.188,101.116l0.23,0.259l0.271,0.002v-0.261L991.188,101.116L991.188,101.116z
		 M993.603,101.116c-0.01,0.115-0.043,0.202-0.12,0.26h1.159c-0.162-0.004-0.323-0.03-0.479-0.076v-0.184H993.603z M995.666,101.116
		c-0.257,0.164-0.554,0.254-0.859,0.26h1.043c0.165-0.071,0.314-0.158,0.446-0.26H995.666"/>
	<path class="st0" d="M904.924,100.856l-0.188,0.26l0.679,0.001l0.188-0.26L904.924,100.856L904.924,100.856z M907.528,100.856
		c-0.04,0.108-0.081,0.194-0.131,0.26l0.209,0.001l0.044-0.26L907.528,100.856L907.528,100.856z M909.111,100.856v0.162
		c0,0.035-0.002,0.068-0.005,0.098l0.561,0.001l-0.001-0.042v-0.218H909.111z M911.538,100.856
		c-0.052,0.096-0.117,0.184-0.193,0.261l0.245-0.001l0.085-0.26H911.538L911.538,100.856z M913.071,100.856v0.162
		c0,0.035-0.001,0.068-0.004,0.098l0.564,0.001c-0.003-0.031-0.005-0.063-0.005-0.094v-0.166L913.071,100.856L913.071,100.856z
		 M916.228,100.856v0.162c0,0.035-0.001,0.068-0.004,0.1l0.562-0.001c-0.002-0.019-0.002-0.039-0.002-0.058v-0.202L916.228,100.856
		L916.228,100.856z M919.198,100.856c0.033,0.094,0.077,0.182,0.133,0.26h0.56c-0.067-0.076-0.119-0.165-0.152-0.261
		L919.198,100.856L919.198,100.856z M921.689,100.856c-0.041,0.096-0.098,0.183-0.17,0.259l0.257,0.002
		c0.058-0.08,0.106-0.168,0.143-0.26L921.689,100.856L921.689,100.856z M923.952,100.856v0.172c0,0.029-0.002,0.059-0.005,0.088
		l0.241,0.001c-0.007-0.052-0.01-0.104-0.01-0.156v-0.104L923.952,100.856L923.952,100.856z M926.043,100.856l0.231,0.26h0.5v-0.26
		H926.043z M928.46,100.856c0.07,0.092,0.151,0.181,0.243,0.261l0.654-0.001c-0.092-0.077-0.176-0.164-0.249-0.26L928.46,100.856
		L928.46,100.856z M931.069,101.116h0.555v-0.26h-0.555V101.116z M935.98,100.856v0.162c0,0.035-0.001,0.069-0.004,0.1l0.564-0.001
		c-0.003-0.029-0.004-0.059-0.004-0.088v-0.172H935.98L935.98,100.856z M939.876,100.856c0.033,0.094,0.076,0.182,0.133,0.26h0.56
		c-0.066-0.077-0.117-0.165-0.151-0.261L939.876,100.856z M942.368,100.856c-0.041,0.096-0.098,0.183-0.17,0.259l0.257,0.002
		c0.057-0.08,0.105-0.168,0.143-0.26L942.368,100.856L942.368,100.856z M944.558,100.856v0.194l-0.002,0.067h0.561
		c-0.002-0.029-0.003-0.059-0.003-0.088v-0.172L944.558,100.856L944.558,100.856z M946.221,100.856l0.21,0.26h0.645
		c-0.053-0.057-0.103-0.116-0.151-0.177l-0.068-0.084H946.221z M951.26,100.856v0.162c0,0.035-0.001,0.068-0.003,0.099h0.558v-0.26
		H951.26z M953.609,100.856c-0.084,0.1-0.182,0.188-0.291,0.26h0.63c0.101-0.079,0.192-0.166,0.271-0.262L953.609,100.856z
		 M956.062,100.856v0.162c0,0.035-0.001,0.068-0.003,0.098l0.561,0.001l-0.001-0.042v-0.218H956.062L956.062,100.856z
		 M958.49,100.856c-0.052,0.096-0.116,0.183-0.192,0.261l0.244-0.001l0.084-0.26H958.49L958.49,100.856z M960.082,100.856
		c0.033,0.094,0.076,0.182,0.131,0.26h0.561c-0.066-0.077-0.118-0.165-0.151-0.261L960.082,100.856z M962.572,100.856
		c-0.04,0.096-0.097,0.183-0.169,0.259l0.256,0.002c0.057-0.08,0.107-0.168,0.143-0.26L962.572,100.856L962.572,100.856z
		 M965.33,100.856v0.162c0,0.035-0.002,0.068-0.005,0.1l0.562-0.001l-0.002-0.058v-0.202L965.33,100.856L965.33,100.856z
		 M968.049,100.856v0.26h0.389c-0.067-0.079-0.123-0.166-0.167-0.26L968.049,100.856L968.049,100.856z M969.833,100.856l0.002,0.023
		c0,0.083-0.02,0.165-0.058,0.238l0.441-0.001c0.048-0.082,0.083-0.168,0.104-0.259L969.833,100.856L969.833,100.856z
		 M971.717,100.856c0.065,0.094,0.141,0.182,0.223,0.261l0.617-0.001c-0.092-0.076-0.173-0.163-0.242-0.26H971.717z
		 M974.591,100.856c-0.079,0.098-0.169,0.186-0.27,0.261l0.189-0.001c0.071-0.08,0.139-0.165,0.199-0.259L974.591,100.856
		L974.591,100.856z M976.077,100.856v0.162c0,0.035-0.002,0.068-0.004,0.097l0.563,0.002c-0.003-0.028-0.003-0.06-0.003-0.094
		v-0.166L976.077,100.856L976.077,100.856z M978.371,100.856v0.162c0,0.035-0.002,0.068-0.004,0.097l0.563,0.002
		c-0.004-0.031-0.005-0.063-0.005-0.094v-0.166L978.371,100.856L978.371,100.856z M980.875,100.856v0.162
		c0,0.035,0,0.068-0.005,0.099h0.56v-0.26H980.875z M983.244,100.856c-0.052,0.096-0.118,0.184-0.196,0.26h0.255l0.083-0.26H983.244
		L983.244,100.856z M984.461,100.856l-0.049,0.111c-0.025,0.056-0.049,0.107-0.071,0.151l0.249-0.001
		c0.004-0.008,0.008-0.017,0.011-0.026l0.102-0.234L984.461,100.856L984.461,100.856z M986.556,100.856l0.052,0.121
		c0.022,0.044,0.039,0.09,0.051,0.138l0.613,0.002l-0.012-0.026l-0.101-0.234H986.556z M988.865,100.856v0.172
		c0,0.03-0.002,0.061-0.003,0.088l0.24,0.001c-0.007-0.052-0.01-0.104-0.01-0.156v-0.104L988.865,100.856L988.865,100.856z
		 M990.958,100.856l0.23,0.26h0.501v-0.26H990.958z M993.607,100.856v0.162c0,0.035-0.002,0.068-0.005,0.099h0.56v-0.26H993.607z
		 M995.957,100.856c-0.085,0.1-0.183,0.187-0.292,0.26h0.629c0.101-0.079,0.192-0.166,0.272-0.262L995.957,100.856"/>
	<path class="st0" d="M905.11,100.596l-0.187,0.26h0.679l0.189-0.26H905.11z M909.111,100.856h0.555v-0.26h-0.555V100.856z
		 M913.071,100.856h0.555v-0.26h-0.555V100.856z M916.228,100.856h0.555v-0.26h-0.555V100.856z M919.137,100.596
		c0.013,0.09,0.033,0.178,0.061,0.261l0.54-0.002c-0.029-0.084-0.047-0.171-0.054-0.26L919.137,100.596L919.137,100.596z
		 M921.765,100.596c-0.017,0.096-0.042,0.181-0.076,0.259l0.231,0.001c0.032-0.083,0.056-0.17,0.072-0.261L921.765,100.596
		L921.765,100.596z M923.952,100.856h0.226v-0.26h-0.226V100.856z M925.813,100.596l0.231,0.26h0.731v-0.26h-0.231v0.035
		l-0.031-0.035H925.813z M928.298,100.596c0.045,0.09,0.1,0.178,0.163,0.26l0.648-0.001c-0.061-0.08-0.115-0.167-0.161-0.261
		L928.298,100.596z M931.069,100.856h0.555v-0.26h-0.555V100.856z M935.98,100.856h0.555v-0.26h-0.555V100.856z M939.814,100.596
		c0.013,0.09,0.033,0.178,0.062,0.261l0.542-0.002c-0.03-0.084-0.048-0.171-0.055-0.26L939.814,100.596L939.814,100.596z
		 M942.443,100.596c-0.015,0.089-0.04,0.176-0.075,0.259l0.23,0.001c0.033-0.084,0.057-0.172,0.073-0.261L942.443,100.596
		L942.443,100.596z M944.558,100.856h0.555v-0.26h-0.555V100.856z M946.012,100.596l0.209,0.26h0.635l-0.21-0.26H946.012z
		 M951.26,100.856h0.555v-0.26h-0.555V100.856z M953.781,100.596c-0.047,0.093-0.105,0.18-0.172,0.26h0.61
		c0.066-0.081,0.125-0.168,0.176-0.26H953.781L953.781,100.596z M956.062,100.856h0.555v-0.26h-0.555V100.856z M960.019,100.596
		c0.013,0.09,0.034,0.178,0.063,0.261l0.541-0.002c-0.03-0.084-0.048-0.171-0.055-0.26L960.019,100.596L960.019,100.596z
		 M962.649,100.596c-0.018,0.096-0.043,0.181-0.077,0.259l0.23,0.001c0.033-0.083,0.057-0.17,0.073-0.261L962.649,100.596
		L962.649,100.596z M965.33,100.856h0.555v-0.26h-0.555V100.856z M968.049,100.596v0.26h0.221c-0.039-0.084-0.07-0.17-0.094-0.26
		H968.049z M969.759,100.596c0.045,0.08,0.07,0.169,0.074,0.26l0.487-0.001c0.015-0.065,0.022-0.132,0.022-0.199
		c0-0.02,0-0.041-0.002-0.062L969.759,100.596z M971.567,100.596c0.042,0.092,0.092,0.179,0.151,0.261l0.598-0.002
		c-0.057-0.081-0.105-0.168-0.144-0.26L971.567,100.596L971.567,100.596z M976.077,100.856h0.556v-0.26h-0.556V100.856z
		 M978.371,100.856h0.554v-0.26h-0.554V100.856z M980.875,100.856h0.555v-0.26h-0.555V100.856z M983.369,100.596
		c-0.036,0.089-0.078,0.177-0.124,0.261l0.142-0.002l0.076-0.241l-0.057-0.019H983.369L983.369,100.596z M984.574,100.596
		l-0.114,0.26h0.244l0.114-0.26H984.574z M986.441,100.596l0.116,0.26h0.604l-0.113-0.26H986.441z M988.865,100.856h0.227v-0.26
		h-0.227V100.856z M990.727,100.596l0.231,0.26h0.731v-0.26h-0.233v0.035l-0.03-0.035H990.727L990.727,100.596z M993.607,100.856
		h0.555v-0.26h-0.555V100.856z M996.129,100.596c-0.049,0.092-0.106,0.179-0.172,0.26h0.609c0.067-0.083,0.125-0.168,0.175-0.26
		H996.129z M907.651,100.856l0.041-0.241h-0.087c-0.023,0.081-0.048,0.161-0.076,0.241H907.651L907.651,100.856z M911.676,100.856
		l0.058-0.178h-0.108c-0.025,0.062-0.054,0.122-0.087,0.18L911.676,100.856z M958.627,100.856l0.059-0.178h-0.108
		c-0.026,0.062-0.055,0.122-0.088,0.18L958.627,100.856L958.627,100.856z M974.708,100.856c0.021-0.029,0.04-0.06,0.057-0.091
		l-0.078-0.05c-0.029,0.05-0.062,0.097-0.098,0.143L974.708,100.856"/>
	<path class="st0" d="M905.299,100.336l-0.189,0.26h0.68l0.188-0.26H905.299z M909.111,100.596h0.555v-0.26h-0.555V100.596z
		 M913.071,100.596h0.555v-0.26h-0.555V100.596z M916.228,100.596h0.555v-0.26h-0.555V100.596z M919.124,100.336v0.053
		c0,0.07,0.004,0.138,0.013,0.206l0.547,0.002c-0.003-0.038-0.005-0.076-0.005-0.115v-0.146L919.124,100.336L919.124,100.336z
		 M921.791,100.336c-0.003,0.088-0.012,0.175-0.027,0.261l0.227-0.002c0.014-0.084,0.022-0.17,0.022-0.258L921.791,100.336
		L921.791,100.336z M923.952,100.596h0.226v-0.26h-0.226V100.596z M925.583,100.336l0.23,0.26h0.699l-0.228-0.26H925.583z
		 M926.544,100.596h0.231v-0.26h-0.231V100.596z M928.194,100.336c0.027,0.088,0.061,0.176,0.104,0.26h0.649
		c-0.041-0.084-0.074-0.172-0.1-0.261L928.194,100.336L928.194,100.336z M931.069,100.596h0.555v-0.26h-0.555V100.596z
		 M935.98,100.596h0.555v-0.26h-0.555V100.596z M939.802,100.336v0.053c0,0.07,0.004,0.138,0.013,0.206l0.548,0.002
		c-0.003-0.038-0.005-0.076-0.006-0.115v-0.146L939.802,100.336L939.802,100.336z M942.47,100.336
		c-0.003,0.088-0.012,0.175-0.027,0.261l0.228-0.002c0.014-0.084,0.021-0.17,0.021-0.258L942.47,100.336L942.47,100.336z
		 M944.558,100.596h0.555v-0.26h-0.555V100.596z M945.803,100.336l0.209,0.26h0.634l-0.209-0.26H945.803z M951.26,100.596h0.555
		v-0.26h-0.555V100.596z M953.883,100.336c-0.026,0.089-0.06,0.176-0.103,0.258l0.614,0.002c0.045-0.081,0.083-0.169,0.114-0.26
		H953.883z M956.062,100.596h0.555v-0.26h-0.555V100.596z M960.007,100.336v0.053c0,0.07,0.005,0.138,0.013,0.206l0.548,0.002
		c-0.004-0.038-0.006-0.076-0.006-0.115v-0.146L960.007,100.336L960.007,100.336z M962.676,100.336
		c-0.003,0.088-0.012,0.175-0.027,0.261l0.227-0.002c0.014-0.084,0.021-0.17,0.021-0.258L962.676,100.336L962.676,100.336z
		 M965.33,100.596h0.555v-0.26h-0.555V100.596z M969.528,100.336c0.037,0.03,0.074,0.062,0.105,0.094
		c0.053,0.053,0.096,0.108,0.126,0.166h0.581c-0.007-0.089-0.028-0.176-0.06-0.258L969.528,100.336L969.528,100.336z
		 M971.467,100.336c0.025,0.09,0.059,0.178,0.1,0.261l0.605-0.002c-0.034-0.085-0.062-0.172-0.083-0.261L971.467,100.336
		L971.467,100.336z M976.077,100.596h0.556v-0.26h-0.556V100.596z M978.371,100.596h0.554v-0.26h-0.554V100.596z M980.875,100.596
		h0.555v-0.26h-0.555V100.596z M984.688,100.336l-0.114,0.26h0.244l0.1-0.228h1.423l0.1,0.228h0.607l-0.112-0.26H984.688
		L984.688,100.336z M988.865,100.596h0.227v-0.26h-0.227V100.596z M990.497,100.336l0.23,0.26h0.699l-0.227-0.26H990.497z
		 M991.457,100.596h0.233v-0.26h-0.233V100.596z M993.607,100.596h0.555v-0.26h-0.555V100.596z M996.23,100.336
		c-0.026,0.089-0.06,0.175-0.101,0.258l0.613,0.002c0.046-0.081,0.084-0.169,0.116-0.26H996.23z M968.177,100.596
		c-0.014-0.049-0.025-0.099-0.035-0.15h-0.092v0.15H968.177L968.177,100.596z M983.404,100.596l-0.03-0.01
		c-0.001,0.004-0.003,0.007-0.006,0.01H983.404"/>
	<path class="st0" d="M905.486,100.075l-0.187,0.26h0.679l0.189-0.26H905.486z M909.111,100.336h0.555v-0.26h-0.555V100.336z
		 M911.013,100.075c0.018,0.068,0.027,0.151,0.027,0.247h0.092v-0.247H911.013z M913.071,100.336h0.555v-0.26h-0.555V100.336z
		 M916.228,100.336h0.555v-0.26h-0.555V100.336z M919.124,100.336h0.555v-0.26h-0.555V100.336z M921.792,100.075v0.194l-0.001,0.066
		h0.222v-0.26H921.792z M923.952,100.336h0.226v-0.26h-0.226V100.336z M925.353,100.075l0.23,0.26h0.702l-0.227-0.26H925.353
		L925.353,100.075z M926.544,100.336h0.231v-0.26h-0.231V100.336z M928.138,100.075c0.01,0.085,0.029,0.174,0.055,0.26h0.653
		c-0.025-0.086-0.044-0.173-0.056-0.262L928.138,100.075z M931.064,100.075c0.003,0.033,0.005,0.067,0.005,0.102v0.159h0.555v-0.045
		c0-0.084,0.003-0.155,0.011-0.216L931.064,100.075L931.064,100.075z M935.98,100.336h0.555v-0.26h-0.555V100.336z M937.894,100.075
		c0.014,0.063,0.02,0.137,0.017,0.221h0.092v-0.221H937.894z M939.802,100.336h0.554v-0.26h-0.554V100.336z M942.471,100.075v0.194
		l-0.001,0.066h0.221v-0.26H942.471z M944.558,100.336h0.555v-0.26h-0.555V100.336z M945.595,100.075l0.208,0.26h0.635l-0.209-0.26
		H945.595z M951.26,100.336h0.555v-0.26h-0.555V100.336z M953.938,100.075c-0.012,0.088-0.03,0.175-0.054,0.26h0.625
		c0.029-0.083,0.05-0.17,0.065-0.26H953.938z M956.062,100.336h0.555v-0.26h-0.555V100.336z M957.964,100.075
		c0.018,0.068,0.027,0.151,0.027,0.247h0.092v-0.247H957.964L957.964,100.075z M960.007,100.336h0.555v-0.26h-0.555V100.336z
		 M962.676,100.075v0.26h0.221v-0.26H962.676z M965.33,100.336h0.555v-0.26h-0.555V100.336z M969.161,100.075
		c0.133,0.085,0.26,0.172,0.366,0.259l0.752,0.002c-0.039-0.094-0.09-0.181-0.154-0.26L969.161,100.075L969.161,100.075z
		 M971.413,100.075c0.012,0.09,0.029,0.177,0.053,0.26h0.622c-0.019-0.086-0.032-0.172-0.041-0.26L971.413,100.075L971.413,100.075z
		 M976.077,100.336h0.556v-0.26h-0.556V100.336z M978.371,100.336h0.554v-0.26h-0.554V100.336z M980.875,100.336h0.555v-0.26h-0.555
		V100.336z M984.802,100.075l-0.115,0.26h2.247l-0.115-0.26h-0.605l0.042,0.097h-1.255l0.043-0.097H984.802z M988.865,100.336h0.227
		v-0.26h-0.227V100.336z M990.267,100.075l0.23,0.26h0.703l-0.228-0.26H990.267L990.267,100.075z M991.457,100.336h0.233v-0.26
		h-0.233V100.336z M993.607,100.336h0.555v-0.26h-0.555V100.336z M996.284,100.075c-0.01,0.088-0.028,0.175-0.053,0.26h0.626
		c0.028-0.083,0.05-0.17,0.065-0.26H996.284"/>
	<path class="st0" d="M905.862,99.555l-0.376,0.52h0.68l0.377-0.52H905.862z M909.111,99.555v0.52h0.555v-0.28h0.89
		c0.267,0,0.403,0.084,0.456,0.28h0.119v-0.52h-0.331c-0.072,0.026-0.148,0.038-0.225,0.036h-0.91v-0.036H909.111z M913.071,100.075
		h0.555v-0.52h-0.555V100.075z M916.228,100.075h0.555v-0.52h-0.555V100.075z M919.124,100.075h0.555v-0.52h-0.555V100.075z
		 M921.792,100.075h0.221v-0.52h-0.221V100.075z M923.952,100.075h0.226v-0.52h-0.226V100.075z M924.892,99.555l0.461,0.52h0.706
		l-0.454-0.52H924.892L924.892,99.555z M926.544,100.075h0.231v-0.52h-0.231V100.075z M928.157,99.555
		c-0.02,0.114-0.03,0.229-0.03,0.345c0,0.057,0.003,0.116,0.011,0.174l0.652,0.002c-0.014-0.094-0.02-0.189-0.02-0.284
		c0-0.081,0.004-0.159,0.011-0.237L928.157,99.555L928.157,99.555z M935.98,99.555v0.52h0.555v-0.28h0.916
		c0.256,0,0.396,0.088,0.441,0.28l0.109-0.001v-0.52h-0.323c-0.092,0.027-0.188,0.039-0.284,0.036h-0.859v-0.036H935.98z
		 M939.802,100.075h0.554v-0.52h-0.554V100.075z M942.471,100.075h0.221v-0.52h-0.221V100.075z M944.558,99.555v0.52h0.555v-0.176
		h0.339l0.142,0.176h0.632l-0.183-0.227c0.264-0.065,0.467-0.165,0.614-0.293h-0.678c-0.177,0.112-0.422,0.17-0.723,0.17h-0.144
		v-0.17H944.558L944.558,99.555z M951.26,100.075h0.555v-0.52h-0.555V100.075z M953.937,99.555c0.024,0.173,0.025,0.348,0.001,0.521
		l0.636-0.001c0.029-0.173,0.031-0.348,0.007-0.522L953.937,99.555z M956.062,99.555v0.52h0.556v-0.28h0.89
		c0.267,0,0.403,0.084,0.456,0.28h0.119v-0.52h-0.331c-0.072,0.026-0.148,0.038-0.225,0.036h-0.91v-0.036H956.062z M960.007,100.075
		h0.555v-0.52h-0.555V100.075z M962.676,100.075h0.221v-0.52h-0.221V100.075z M965.33,100.075h0.555v-0.52h-0.555V100.075z
		 M968.35,99.555c0.182,0.151,0.511,0.331,0.812,0.52h0.965c-0.028-0.037-0.058-0.071-0.092-0.104
		c-0.135-0.137-0.35-0.28-0.571-0.417H968.35L968.35,99.555z M971.418,99.555c-0.026,0.172-0.027,0.347-0.004,0.52h0.636
		c-0.006-0.067-0.009-0.134-0.009-0.202c0-0.112,0.005-0.217,0.014-0.319H971.418L971.418,99.555z M976.077,99.555v0.52h0.556v-0.28
		h1.738v0.28h0.554v-0.52h-0.554v0.036h-1.738v-0.036H976.077z M980.875,100.075h0.555v-0.52h-0.555V100.075z M985.03,99.555
		l-0.228,0.52h0.245l0.226-0.52H985.03L985.03,99.555z M985.989,99.555l0.227,0.52h0.605l-0.224-0.52H985.989z M988.865,100.075
		h0.227v-0.52h-0.227V100.075z M989.805,99.555l0.462,0.52h0.705l-0.453-0.52H989.805z M991.457,100.075h0.233v-0.52h-0.233V100.075
		z M993.607,100.075h0.555v-0.52h-0.555V100.075z M996.284,99.555c0.013,0.085,0.018,0.172,0.018,0.262
		c0,0.088-0.006,0.176-0.018,0.259l0.638-0.001c0.029-0.173,0.031-0.349,0.006-0.522L996.284,99.555L996.284,99.555z
		 M931.636,100.075c0.032-0.227,0.139-0.304,0.456-0.325v-0.092h-1.517v0.092c0.352,0.004,0.465,0.122,0.488,0.327L931.636,100.075"
		/>
	<path class="st0" d="M906.049,99.295l-0.187,0.26h0.681l0.188-0.26H906.049z M909.111,99.555h0.555v-0.26h-0.555V99.555z
		 M911.017,99.295c-0.033,0.127-0.1,0.215-0.215,0.26h0.331v-0.26H911.017z M913.071,99.555h0.555v-0.26h-0.555V99.555z
		 M916.228,99.555h0.555v-0.26h-0.555V99.555z M919.124,99.555h0.555v-0.26h-0.555V99.555z M921.792,99.555h0.221v-0.26h-0.221
		V99.555z M923.952,99.555h0.226v-0.26h-0.226V99.555z M924.661,99.295l0.231,0.26h0.712l-0.228-0.26H924.661L924.661,99.295z
		 M926.544,99.555h0.231v-0.26h-0.231V99.555z M928.224,99.295c-0.029,0.085-0.051,0.173-0.066,0.261l0.625-0.002
		c0.009-0.089,0.022-0.177,0.041-0.26H928.224L928.224,99.295z M935.98,99.555h0.555v-0.26h-0.555V99.555z M937.901,99.295
		c-0.016,0.122-0.103,0.224-0.221,0.26h0.323v-0.26H937.901z M939.802,99.555h0.554v-0.26h-0.554V99.555z M942.471,99.555h0.221
		v-0.26h-0.221V99.555z M944.558,99.555h0.555v-0.26h-0.555V99.555z M946.221,99.295c-0.054,0.107-0.137,0.197-0.24,0.26h0.678
		c0.088-0.078,0.156-0.164,0.202-0.261L946.221,99.295L946.221,99.295z M951.26,99.555h0.555v-0.26h-0.555V99.555z M953.883,99.295
		c0.025,0.084,0.042,0.17,0.054,0.26h0.644c-0.012-0.088-0.03-0.175-0.054-0.26H953.883z M956.062,99.555h0.555v-0.26h-0.555V99.555
		z M957.967,99.295c-0.033,0.127-0.1,0.215-0.215,0.26h0.331v-0.26H957.967z M960.007,99.555h0.555v-0.26h-0.555V99.555z
		 M962.676,99.555h0.221v-0.26h-0.221V99.555z M965.33,99.555h0.555v-0.26h-0.555V99.555z M968.138,99.295
		c0.052,0.1,0.124,0.189,0.212,0.261l1.113-0.002c-0.145-0.089-0.294-0.176-0.426-0.257L968.138,99.295L968.138,99.295z
		 M971.475,99.295c-0.026,0.085-0.045,0.173-0.057,0.261l0.636-0.002c0.009-0.089,0.022-0.176,0.037-0.257L971.475,99.295
		L971.475,99.295z M976.077,99.555h0.556v-0.26h-0.556V99.555z M978.371,99.555h0.554v-0.26h-0.554V99.555z M980.875,99.555h0.555
		v-0.26h-0.555V99.555z M985.144,99.295l-0.114,0.26h0.243l0.114-0.26H985.144z M985.877,99.295l0.113,0.26h0.608l-0.114-0.26
		H985.877z M988.865,99.555h0.227v-0.26h-0.227V99.555z M989.574,99.295l0.23,0.26h0.714l-0.228-0.26H989.574z M991.457,99.555
		h0.233v-0.26h-0.233V99.555z M993.607,99.555h0.555v-0.26h-0.555V99.555z M996.23,99.295c0.025,0.084,0.042,0.17,0.053,0.26h0.645
		c-0.012-0.088-0.03-0.174-0.054-0.26H996.23"/>
	<path class="st0" d="M906.238,99.036l-0.188,0.259h0.682l0.188-0.259H906.238z M909.111,99.295h0.555v-0.259h-0.555V99.295z
		 M913.071,99.295h0.555v-0.259h-0.555V99.295z M916.228,99.295h0.555v-0.259h-0.555V99.295z M919.124,99.295h0.555v-0.259h-0.555
		V99.295z M921.792,99.295h0.221v-0.259h-0.221V99.295z M923.952,99.295h0.226v-0.259h-0.226V99.295z M924.43,99.036l0.231,0.259
		h0.715l-0.227-0.259H924.43z M926.544,99.295h0.231v-0.259h-0.231V99.295z M928.331,99.036c-0.042,0.083-0.078,0.169-0.107,0.257
		l0.599,0.002c0.021-0.092,0.048-0.178,0.08-0.258L928.331,99.036L928.331,99.036z M931.497,99.036
		c0.003,0.01,0.007,0.022,0.01,0.034h0.093l-0.003-0.034H931.497z M935.98,99.295h0.555v-0.259h-0.555V99.295z M939.802,99.295
		h0.554v-0.259h-0.554V99.295z M942.471,99.295h0.221v-0.259h-0.221V99.295z M944.558,99.295h0.555v-0.259h-0.555V99.295z
		 M946.293,99.036c-0.007,0.09-0.032,0.178-0.073,0.259h0.641c0.039-0.081,0.064-0.168,0.073-0.257L946.293,99.036z M951.26,99.295
		h0.555v-0.259h-0.555V99.295z M953.783,99.036c0.041,0.082,0.073,0.169,0.1,0.259h0.644c-0.025-0.088-0.057-0.175-0.096-0.258
		L953.783,99.036L953.783,99.036z M956.062,99.295h0.555v-0.259h-0.555V99.295z M960.007,99.295h0.555v-0.259h-0.555V99.295z
		 M962.676,99.295h0.221v-0.259h-0.221V99.295z M965.33,99.295h0.555v-0.259h-0.555V99.295z M968.046,99.036
		c0.017,0.088,0.047,0.178,0.092,0.261l0.899-0.002c-0.133-0.073-0.258-0.16-0.374-0.259L968.046,99.036L968.046,99.036z
		 M970.023,99.036c0.005,0.027,0.009,0.054,0.011,0.081h0.098v-0.081H970.023z M971.574,99.036c-0.04,0.084-0.073,0.17-0.099,0.259
		h0.614c0.018-0.092,0.04-0.178,0.067-0.259H971.574z M974.582,99.036c0.007,0.033,0.015,0.066,0.019,0.102h0.087l-0.008-0.102
		H974.582z M976.077,99.295h0.556v-0.259h-0.556V99.295z M978.371,99.295h0.554v-0.259h-0.554V99.295z M980.875,99.295h0.555v-0.259
		h-0.555V99.295z M985.258,99.036l-0.115,0.259h0.243l0.115-0.259H985.258z M985.762,99.036l0.115,0.259h0.607l-0.113-0.259H985.762
		L985.762,99.036z M988.865,99.295h0.227v-0.259h-0.227V99.295z M989.344,99.036l0.23,0.259h0.715l-0.228-0.259H989.344z
		 M991.457,99.295h0.233v-0.259h-0.233V99.295z M993.607,99.295h0.555v-0.259h-0.555V99.295z M996.131,99.036
		c0.04,0.084,0.073,0.17,0.1,0.259h0.644c-0.025-0.088-0.057-0.175-0.096-0.258L996.131,99.036L996.131,99.036z M911.132,99.295
		v-0.219h-0.092c0,0.083-0.007,0.155-0.023,0.219H911.132z M938.002,99.295v-0.204h-0.092c0.006,0.08,0.002,0.148-0.01,0.204
		H938.002z M958.084,99.295v-0.219h-0.092c0,0.083-0.008,0.155-0.024,0.219H958.084"/>
	<path class="st0" d="M904.808,98.776l-0.006,0.119h0.092c0.005-0.043,0.01-0.083,0.017-0.12L904.808,98.776z M906.424,98.776
		l-0.187,0.26h0.682l0.188-0.26H906.424z M909.111,99.036h0.555v-0.26h-0.555V99.036z M911.353,98.776l0.004,0.026h0.087
		l-0.001-0.026H911.353L911.353,98.776z M913.071,99.036h0.555v-0.26h-0.555V99.036z M914.924,98.776l-0.002,0.048h0.093
		l0.004-0.049L914.924,98.776L914.924,98.776z M916.228,99.036h0.555v-0.26h-0.555V99.036z M917.99,98.776l0.007,0.048h0.098
		l-0.002-0.048H917.99z M919.124,99.036h0.555v-0.26h-0.555V99.036z M921.792,99.036h0.221v-0.26h-0.221V99.036z M923.952,99.036
		h0.226v-0.26h-0.226V99.036z M924.2,98.776l0.231,0.26h0.718l-0.227-0.26H924.2L924.2,98.776z M926.544,99.036h0.231v-0.26h-0.231
		V99.036z M928.489,98.776c-0.06,0.082-0.113,0.169-0.158,0.26h0.572c0.036-0.093,0.08-0.18,0.131-0.259L928.489,98.776
		L928.489,98.776z M931.385,98.776c0.046,0.079,0.084,0.164,0.112,0.258l0.1,0.002l-0.021-0.26H931.385z M935.98,99.036h0.555v-0.26
		h-0.555V99.036z M938.423,98.776l0.001,0.006h0.097v-0.006H938.423z M939.802,99.036h0.554v-0.26h-0.554V99.036z M942.471,99.036
		h0.221v-0.26h-0.221V99.036z M944.558,99.036h0.555v-0.26h-0.555V99.036z M946.274,98.776c0.023,0.085,0.029,0.174,0.019,0.261
		l0.641-0.001c0.009-0.086,0.006-0.174-0.01-0.259L946.274,98.776L946.274,98.776z M951.26,99.036h0.555v-0.26h-0.555V99.036z
		 M953.62,98.776c0.062,0.08,0.116,0.167,0.162,0.26l0.648-0.001c-0.042-0.09-0.092-0.177-0.149-0.259L953.62,98.776L953.62,98.776z
		 M956.062,99.036h0.555v-0.26h-0.555V99.036z M958.304,98.776l0.005,0.026h0.088l-0.001-0.026H958.304z M960.007,99.036h0.555
		v-0.26h-0.555V99.036z M962.676,99.036h0.221v-0.26h-0.221V99.036z M964.024,98.776l-0.002,0.048h0.092
		c0.002-0.017,0.002-0.033,0.004-0.049L964.024,98.776L964.024,98.776z M965.33,99.036h0.555v-0.26h-0.555V99.036z M967.092,98.776
		c0.002,0.016,0.003,0.031,0.007,0.048h0.096l-0.002-0.048H967.092L967.092,98.776z M968.033,98.776
		c-0.009,0.087-0.005,0.175,0.012,0.261l0.617-0.001c-0.08-0.068-0.137-0.158-0.165-0.259L968.033,98.776L968.033,98.776z
		 M969.949,98.776c0.033,0.082,0.059,0.169,0.074,0.26l0.109-0.001v-0.26H969.949L969.949,98.776z M971.721,98.776
		c-0.055,0.083-0.105,0.17-0.147,0.26l0.582-0.001c0.029-0.09,0.066-0.178,0.111-0.262L971.721,98.776L971.721,98.776z
		 M974.489,98.776c0.04,0.08,0.072,0.166,0.093,0.26h0.099l-0.019-0.26H974.489L974.489,98.776z M976.077,99.036h0.556v-0.26h-0.556
		V99.036z M978.371,99.036h0.554v-0.26h-0.554V99.036z M980.875,99.036h0.555v-0.26h-0.555V99.036z M985.371,98.776l-0.113,0.26
		h0.243l0.113-0.26H985.371z M985.648,98.776l0.114,0.26h0.609l-0.113-0.26H985.648L985.648,98.776z M988.865,99.036h0.227v-0.26
		h-0.227V99.036z M989.115,98.776l0.229,0.26h0.718l-0.227-0.26H989.115L989.115,98.776z M991.457,99.036h0.233v-0.26h-0.233V99.036
		z M993.607,99.036h0.555v-0.26h-0.555V99.036z M995.967,98.776c0.062,0.08,0.116,0.167,0.163,0.26l0.648-0.001
		c-0.043-0.09-0.092-0.177-0.149-0.259L995.967,98.776"/>
	<path class="st0" d="M904.824,98.516l-0.016,0.26h0.102c0.017-0.107,0.037-0.192,0.066-0.26L904.824,98.516L904.824,98.516z
		 M906.613,98.516l-0.189,0.26h0.683l0.188-0.26H906.613L906.613,98.516z M909.111,98.776h0.555v-0.26h-0.555V98.776z
		 M911.271,98.516c0.034,0.072,0.062,0.158,0.083,0.26l0.091-0.001l-0.014-0.26L911.271,98.516L911.271,98.516z M913.071,98.516
		v0.26h0.555V98.56l0.001-0.045L913.071,98.516L913.071,98.516z M914.932,98.516l-0.008,0.26h0.096
		c0.009-0.092,0.036-0.181,0.081-0.261L914.932,98.516L914.932,98.516z M916.228,98.776h0.555v-0.26h-0.555V98.776z M917.904,98.516
		c0.044,0.081,0.073,0.169,0.086,0.26l0.103-0.001l-0.008-0.26L917.904,98.516L917.904,98.516z M919.117,98.516
		c0.004,0.062,0.006,0.125,0.006,0.187v0.072h0.555V98.56l0.001-0.044H919.117L919.117,98.516z M921.791,98.516
		c0.001,0.009,0.001,0.019,0.001,0.028v0.232h0.221V98.56l0.001-0.045L921.791,98.516z M923.945,98.516l0.007,0.008v0.252h0.226
		v-0.025l0.022,0.025h0.722l-0.227-0.26L923.945,98.516L923.945,98.516z M926.544,98.516v0.26h0.231v-0.164l0.002-0.096
		L926.544,98.516L926.544,98.516z M928.711,98.516c-0.081,0.08-0.156,0.167-0.222,0.26h0.545c0.061-0.097,0.131-0.183,0.209-0.258
		L928.711,98.516z M931.178,98.516c0.08,0.076,0.151,0.162,0.207,0.258l0.189,0.002l-0.021-0.26H931.178z M935.98,98.516v0.26h0.555
		v-0.26H935.98z M938.349,98.516c0.036,0.072,0.061,0.158,0.073,0.258l0.098,0.002l-0.012-0.26H938.349L938.349,98.516z
		 M939.796,98.516c0.005,0.055,0.006,0.117,0.006,0.187v0.072h0.554V98.56l0.001-0.044H939.796z M942.471,98.516v0.26h0.221V98.56
		l0.001-0.045L942.471,98.516L942.471,98.516z M944.558,98.516v0.26h0.555v-0.26H944.558z M946.155,98.516
		c0.055,0.076,0.096,0.163,0.119,0.257l0.65,0.002c-0.018-0.092-0.053-0.18-0.101-0.26L946.155,98.516L946.155,98.516z
		 M951.26,98.516v0.26h0.555v-0.26H951.26z M953.351,98.516c0.1,0.074,0.19,0.162,0.269,0.261l0.663-0.002
		c-0.065-0.094-0.14-0.181-0.223-0.26L953.351,98.516L953.351,98.516z M956.062,98.776h0.555v-0.26h-0.555V98.776z M958.223,98.516
		c0.034,0.072,0.062,0.158,0.082,0.26l0.092-0.001l-0.014-0.26L958.223,98.516L958.223,98.516z M960.001,98.516
		c0.004,0.062,0.006,0.125,0.006,0.187v0.072h0.555V98.56l0.001-0.044H960.001z M962.676,98.516v0.26h0.221V98.56l0.002-0.045
		L962.676,98.516L962.676,98.516z M964.032,98.516l-0.008,0.26h0.095c0.01-0.091,0.038-0.18,0.081-0.261L964.032,98.516
		L964.032,98.516z M965.33,98.776h0.555v-0.26h-0.555V98.776z M967.005,98.516c0.041,0.074,0.069,0.161,0.087,0.26l0.102-0.001
		l-0.009-0.26L967.005,98.516L967.005,98.516z M968.096,98.516c-0.033,0.081-0.057,0.167-0.063,0.258l0.465,0.002
		c-0.02-0.086-0.017-0.176,0.01-0.26L968.096,98.516L968.096,98.516z M969.801,98.516c0.059,0.076,0.11,0.165,0.149,0.26h0.182
		v-0.26H969.801L969.801,98.516z M971.937,98.516c-0.08,0.08-0.151,0.166-0.216,0.26l0.546-0.001c0.051-0.1,0.112-0.185,0.18-0.259
		L971.937,98.516L971.937,98.516z M974.305,98.516c0.073,0.078,0.135,0.166,0.183,0.261l0.173-0.002l-0.018-0.26L974.305,98.516
		L974.305,98.516z M976.076,98.516l0.001,0.039v0.221h0.556V98.56v-0.043L976.076,98.516z M978.37,98.516
		c0.001,0.011,0.001,0.022,0.001,0.033v0.227h0.554V98.56l0.001-0.043L978.37,98.516L978.37,98.516z M980.875,98.516v0.26h0.555
		V98.56l0.001-0.045L980.875,98.516L980.875,98.516z M985.485,98.516l-0.115,0.26h0.243l0.017-0.041l0.018,0.041h0.609l-0.113-0.26
		H985.485z M988.861,98.516l0.005,0.008v0.252h0.227v-0.025l0.022,0.025h0.72l-0.227-0.26L988.861,98.516L988.861,98.516z
		 M991.457,98.516v0.26h0.233v-0.164l0.001-0.096L991.457,98.516L991.457,98.516z M993.607,98.516l0.001,0.028v0.232h0.555v-0.26
		L993.607,98.516L993.607,98.516z M995.699,98.516c0.1,0.074,0.19,0.162,0.268,0.261l0.663-0.002
		c-0.065-0.094-0.14-0.181-0.222-0.26L995.699,98.516"/>
	<path class="st0" d="M904.839,98.256l-0.015,0.26h0.153c0.049-0.137,0.169-0.236,0.312-0.26H904.839z M906.8,98.256l-0.187,0.26
		h0.683l0.188-0.26H906.8L906.8,98.256z M909.042,98.256c0.05,0.074,0.075,0.163,0.07,0.253v0.008h0.555v-0.26H909.042z
		 M910.979,98.256c0.127,0.038,0.224,0.121,0.292,0.261l0.159-0.001l-0.014-0.26H910.979L910.979,98.256z M913.002,98.256
		c0.045,0.065,0.065,0.151,0.069,0.262l0.556-0.002c-0.002-0.091,0.02-0.18,0.065-0.259L913.002,98.256L913.002,98.256z
		 M914.94,98.256l-0.008,0.26h0.167c0.075-0.139,0.211-0.235,0.367-0.26L914.94,98.256L914.94,98.256z M916.228,98.516h0.555v-0.26
		h-0.555V98.516z M917.491,98.256c0.198,0.025,0.332,0.117,0.413,0.261l0.182-0.001l-0.009-0.26H917.491z M919.049,98.256
		c0.044,0.08,0.068,0.169,0.069,0.26h0.562c-0.004-0.091,0.019-0.182,0.066-0.26H919.049L919.049,98.256z M921.721,98.256
		c0.049,0.078,0.074,0.169,0.071,0.261l0.223-0.001c0.003-0.115,0.022-0.199,0.065-0.261L921.721,98.256z M923.724,98.256
		c0.08,0.062,0.152,0.147,0.221,0.259l0.75,0.002l-0.228-0.26L923.724,98.256L923.724,98.256z M926.501,98.256
		c0.032,0.061,0.043,0.147,0.043,0.26l0.233,0.001c0.002-0.118,0.011-0.202,0.034-0.262L926.501,98.256L926.501,98.256z
		 M929.047,98.256c-0.122,0.074-0.234,0.162-0.336,0.262l0.531-0.002c0.116-0.112,0.247-0.199,0.389-0.261L929.047,98.256z
		 M930.774,98.256c0.149,0.064,0.287,0.151,0.404,0.261l0.376-0.001l-0.021-0.26H930.774z M935.909,98.256
		c0.052,0.076,0.077,0.168,0.072,0.26l0.555,0.001v-0.26L935.909,98.256L935.909,98.256z M938.061,98.256
		c0.126,0.046,0.229,0.139,0.288,0.259l0.16,0.002l-0.012-0.26L938.061,98.256L938.061,98.256z M939.727,98.256
		c0.041,0.062,0.06,0.147,0.069,0.26h0.562c0.005-0.115,0.025-0.199,0.066-0.26H939.727z M942.399,98.256
		c0.049,0.078,0.074,0.169,0.072,0.261l0.221-0.001c-0.003-0.092,0.02-0.182,0.066-0.261L942.399,98.256z M944.487,98.256
		c0.052,0.076,0.077,0.167,0.072,0.259l0.555,0.002v-0.224c0.031-0.014,0.06-0.025,0.086-0.035L944.487,98.256z M945.811,98.256
		c0.138,0.051,0.258,0.142,0.344,0.261l0.668-0.001c-0.059-0.101-0.136-0.189-0.229-0.26L945.811,98.256L945.811,98.256z
		 M951.19,98.256c0.048,0.078,0.072,0.168,0.069,0.26l0.555,0.001v-0.213c0.055-0.018,0.113-0.033,0.171-0.045L951.19,98.256
		L951.19,98.256z M952.782,98.256c0.214,0.049,0.406,0.138,0.57,0.26l0.709,0.001c-0.106-0.102-0.226-0.19-0.355-0.26
		L952.782,98.256z M955.993,98.256c0.048,0.062,0.068,0.147,0.068,0.253v0.008h0.556v-0.26H955.993z M957.931,98.256
		c0.131,0.04,0.238,0.135,0.292,0.261l0.159-0.001l-0.014-0.26H957.931L957.931,98.256z M959.932,98.256
		c0.041,0.062,0.061,0.147,0.069,0.26h0.562c-0.002-0.091,0.02-0.181,0.065-0.26H959.932z M962.605,98.256
		c0.048,0.078,0.073,0.169,0.071,0.261l0.222-0.001c0.004-0.115,0.023-0.199,0.065-0.261L962.605,98.256z M964.041,98.256
		l-0.01,0.26h0.168c0.075-0.139,0.211-0.235,0.367-0.26L964.041,98.256L964.041,98.256z M965.33,98.516h0.555v-0.26h-0.555V98.516z
		 M966.593,98.256c0.198,0.025,0.331,0.117,0.413,0.261l0.181-0.001l-0.007-0.26H966.593L966.593,98.256z M968.265,98.256
		c-0.072,0.076-0.129,0.164-0.169,0.26h0.413c0.038-0.105,0.107-0.197,0.199-0.26H968.265z M969.515,98.256
		c0.108,0.065,0.206,0.153,0.285,0.26l0.331,0.001v-0.26L969.515,98.256L969.515,98.256z M972.256,98.256
		c-0.115,0.074-0.222,0.161-0.318,0.259l0.51,0.002c0.098-0.109,0.217-0.198,0.351-0.26L972.256,98.256z M973.931,98.256
		c0.14,0.064,0.267,0.151,0.374,0.261l0.339-0.001l-0.018-0.26H973.931z M976.005,98.256c0.049,0.078,0.074,0.169,0.071,0.261
		l0.557-0.001c-0.003-0.091,0.02-0.182,0.068-0.26L976.005,98.256L976.005,98.256z M978.302,98.256
		c0.047,0.065,0.065,0.151,0.069,0.26l0.556,0.001c-0.003-0.092,0.021-0.183,0.069-0.262L978.302,98.256L978.302,98.256z
		 M980.801,98.256c0.05,0.065,0.069,0.154,0.073,0.26h0.556c-0.003-0.09,0.018-0.18,0.061-0.26L980.801,98.256L980.801,98.256z
		 M985.598,98.256l-0.113,0.26h0.66l-0.113-0.26H985.598z M988.636,98.256c0.082,0.062,0.153,0.147,0.224,0.259l0.747,0.002
		l-0.227-0.26L988.636,98.256L988.636,98.256z M991.415,98.256c0.033,0.082,0.047,0.171,0.042,0.26l0.233,0.001
		c0.002-0.118,0.012-0.202,0.034-0.262L991.415,98.256L991.415,98.256z M993.537,98.256c0.048,0.078,0.072,0.168,0.069,0.26
		l0.556,0.001v-0.213c0.056-0.018,0.113-0.034,0.17-0.045L993.537,98.256L993.537,98.256z M995.129,98.256
		c0.215,0.049,0.406,0.138,0.57,0.26l0.709,0.001c-0.106-0.102-0.226-0.189-0.355-0.26L995.129,98.256"/>
	<path class="st0" d="M929.671,97.996c-0.221,0.051-0.431,0.139-0.624,0.258l0.584,0.002c0.175-0.078,0.367-0.118,0.564-0.118
		c0.194,0,0.394,0.041,0.579,0.119l0.758-0.001l-0.021-0.26h-0.11c-0.023,0.117-0.08,0.188-0.157,0.188
		c-0.079,0-0.285-0.117-0.605-0.189L929.671,97.996L929.671,97.996z M968.678,97.996c-0.157,0.05-0.299,0.139-0.413,0.259
		l0.443,0.001c0.115-0.078,0.251-0.119,0.39-0.118c0.148,0,0.29,0.043,0.417,0.119l0.617-0.001v-0.26h-0.12
		c-0.044,0.092-0.1,0.136-0.172,0.136c-0.126,0-0.253-0.082-0.446-0.138L968.678,97.996z M972.864,97.996
		c-0.216,0.051-0.421,0.138-0.608,0.259l0.542,0.001c0.172-0.08,0.365-0.118,0.568-0.118c0.197,0,0.391,0.04,0.566,0.118h0.693
		l-0.019-0.26h-0.107c-0.039,0.112-0.113,0.178-0.181,0.178c-0.084,0-0.252-0.11-0.534-0.178H972.864z M985.713,97.996l-0.115,0.26
		h0.434l-0.114-0.26H985.713L985.713,97.996z M905.289,98.256c0.099-0.022,0.221-0.03,0.376-0.03h1.158l-0.022,0.03h0.684
		l0.171-0.237h-2.803l-0.014,0.237H905.289L905.289,98.256z M909.666,98.256v-0.03h1.1c0.079,0,0.15,0.009,0.212,0.029l0.438,0.002
		l-0.013-0.237h-2.803v0.093c0.221-0.003,0.363,0.041,0.44,0.143L909.666,98.256L909.666,98.256z M913.692,98.256
		c0.08-0.117,0.231-0.147,0.469-0.143v-0.093h-1.625v0.093c0.251-0.003,0.392,0.041,0.465,0.144L913.692,98.256z M915.467,98.256
		c0.041-0.006,0.084-0.009,0.13-0.009h0.632v0.009h0.555v-0.009h0.581c0.045,0,0.088,0.002,0.127,0.007l0.586,0.002l-0.007-0.237
		h-3.122l-0.007,0.237H915.467z M919.746,98.256c0.07-0.104,0.202-0.141,0.422-0.143v-0.093h-1.58v0.093
		c0.253-0.006,0.389,0.034,0.46,0.143L919.746,98.256L919.746,98.256z M922.08,98.256c0.075-0.107,0.219-0.147,0.479-0.143v-0.093
		h-1.296v0.093c0.238-0.01,0.382,0.039,0.459,0.145L922.08,98.256L922.08,98.256z M924.467,98.256l-0.206-0.237h-1.029v0.093
		c0.202,0,0.358,0.041,0.492,0.143L924.467,98.256z M926.811,98.256c0.047-0.122,0.152-0.143,0.382-0.143h0.139v-0.093h-1.302v0.093
		h0.139c0.183,0,0.284,0.041,0.332,0.142L926.811,98.256z M936.536,98.256v-0.061h1.095c0.174,0,0.316,0.02,0.429,0.063l0.436-0.002
		l-0.012-0.237h-2.998v0.093c0.203,0,0.344,0.039,0.422,0.142L936.536,98.256z M940.423,98.256c0.071-0.104,0.202-0.141,0.422-0.143
		v-0.093h-1.579v0.093c0.253-0.006,0.389,0.034,0.46,0.143L940.423,98.256z M942.759,98.256c0.073-0.107,0.217-0.147,0.478-0.143
		v-0.093h-1.295v0.093c0.237-0.01,0.381,0.039,0.458,0.145L942.759,98.256L942.759,98.256z M945.2,98.256
		c0.115-0.042,0.201-0.056,0.309-0.056c0.108,0,0.209,0.019,0.301,0.054l0.783,0.002c-0.214-0.158-0.474-0.241-0.74-0.237h-1.783
		v0.093c0.217,0,0.346,0.049,0.417,0.142L945.2,98.256L945.2,98.256z M951.986,98.256c0.129-0.025,0.268-0.041,0.405-0.041
		c0.138,0,0.268,0.014,0.391,0.041l0.923-0.001c-0.269-0.147-0.604-0.237-1.01-0.237h-1.954v0.093c0.23,0,0.373,0.04,0.449,0.143
		H951.986z M956.618,98.256v-0.03h1.1c0.079,0,0.15,0.009,0.213,0.029l0.438,0.002l-0.012-0.237h-2.803v0.093
		c0.221-0.003,0.362,0.041,0.44,0.143L956.618,98.256z M960.628,98.256c0.071-0.104,0.204-0.141,0.423-0.143v-0.093h-1.579v0.093
		c0.253-0.006,0.389,0.034,0.46,0.143L960.628,98.256z M962.963,98.256c0.075-0.107,0.219-0.147,0.479-0.143v-0.093h-1.296v0.093
		c0.239-0.01,0.382,0.039,0.458,0.145L962.963,98.256L962.963,98.256z M964.568,98.256c0.041-0.006,0.084-0.009,0.128-0.009h0.634
		v0.009h0.555v-0.009h0.581c0.045,0,0.086,0.002,0.127,0.007l0.585,0.002l-0.009-0.237h-3.122l-0.007,0.237H964.568L964.568,98.256z
		 M976.701,98.256c0.068-0.1,0.205-0.149,0.451-0.143v-0.093h-1.583v0.093c0.237-0.006,0.368,0.047,0.437,0.143H976.701z
		 M978.995,98.256c0.072-0.103,0.208-0.147,0.446-0.143v-0.093h-1.596v0.093c0.247-0.006,0.384,0.041,0.456,0.143L978.995,98.256z
		 M981.492,98.256c0.069-0.105,0.202-0.147,0.437-0.143v-0.093h-1.584v0.093c0.249-0.006,0.386,0.045,0.456,0.142L981.492,98.256
		L981.492,98.256z M989.381,98.256l-0.207-0.237h-1.029v0.093c0.204,0,0.359,0.041,0.491,0.143L989.381,98.256z M991.724,98.256
		c0.048-0.122,0.151-0.143,0.381-0.143h0.14v-0.093h-1.302v0.093h0.139c0.182,0,0.283,0.041,0.333,0.142L991.724,98.256z
		 M994.333,98.256c0.13-0.025,0.268-0.041,0.405-0.041s0.268,0.014,0.391,0.041l0.923-0.001c-0.268-0.147-0.605-0.237-1.011-0.237
		h-1.954v0.093c0.231,0,0.373,0.04,0.449,0.143H994.333"/>
	<path class="st0" d="M930.638,97.996c-0.318-0.071-0.649-0.071-0.967,0.001L930.638,97.996z M931.511,97.996l-0.005-0.053h-0.097
		c-0.001,0.018-0.004,0.035-0.008,0.053L931.511,97.996z M969.394,97.996c-0.119-0.037-0.243-0.055-0.367-0.053
		c-0.125,0-0.241,0.019-0.349,0.053H969.394z M970.132,97.996v-0.053h-0.098c-0.006,0.019-0.014,0.037-0.022,0.055L970.132,97.996z
		 M973.784,97.996c-0.303-0.07-0.618-0.07-0.921-0.001L973.784,97.996z M974.605,97.996l-0.004-0.053h-0.088
		c-0.004,0.018-0.009,0.036-0.015,0.054L974.605,97.996L974.605,97.996z M985.918,97.996l-0.056-0.132h-0.092l-0.057,0.132H985.918
		L985.918,97.996z M940.78,96.969c-0.15,0-0.273,0.123-0.273,0.272s0.123,0.273,0.273,0.273c0.148,0,0.272-0.123,0.272-0.273
		C941.051,97.091,940.928,96.969,940.78,96.969z M941.658,96.969c-0.15,0-0.272,0.123-0.272,0.272s0.123,0.273,0.272,0.273
		c0.151-0.008,0.266-0.137,0.258-0.288C941.909,97.087,941.797,96.976,941.658,96.969"/>
</g>
</svg>
