<?xml version="1.0" encoding="utf-8"?>
<!-- Generator: Adobe Illustrator 19.1.1, SVG Export Plug-In . SVG Version: 6.00 Build 0)  -->
<svg version="1.1" id="Layer_1" xmlns="http://www.w3.org/2000/svg" xmlns:xlink="http://www.w3.org/1999/xlink" x="0px" y="0px"
	 width="85.175px" height="12px" viewBox="784.012 111.086 85.175 12" style="enable-background:new 784.012 111.086 85.175 12;"
	 xml:space="preserve">
<style type="text/css">
	.st0{fill:#B3B3B3;}
</style>
<path class="st0" d="M789.007,111.087c-0.081,0.004-0.159,0.024-0.234,0.073c0.311,0.062,0.675,0.104,0.871,0.387
	c0.098,0.104,0.068,0.265-0.031,0.357c-0.186,0.222-0.505,0.291-0.778,0.22c-0.926-0.219-1.801-0.643-2.752-0.754
	c-0.509-0.067-1.007,0.178-1.359,0.532c-0.325,0.326-0.443,0.82-0.378,1.266c0.072,0.353,0.333,0.72,0.712,0.772
	c-0.224-0.243-0.267-0.666-0.034-0.919c0.131-0.163,0.365-0.185,0.559-0.155c0.737,0.137,1.455,0.359,2.19,0.508
	c0.412,0.112,0.818,0.246,1.239,0.322c0.008,0.503,0.008,1.005,0,1.508c-0.271,0.203-0.531,0.421-0.797,0.63
	c0.259,0.194,0.527,0.376,0.795,0.558c0.017,0.711-0.003,1.422,0.01,2.133c-0.439,0.339-1.026,0.394-1.56,0.331
	c-0.567-0.032-1.07-0.369-1.442-0.779c0.623-0.332,1.257-0.645,1.894-0.95c0.022-1.121,0.004-2.243,0.01-3.365
	c-0.796,0.334-1.583,0.685-2.376,1.024c0.229-0.586,0.696-1.061,1.252-1.344c-0.145,0.009-0.298-0.002-0.433,0.061
	c-1.041,0.411-1.899,1.295-2.222,2.373c-0.216,0.685-0.146,1.433,0.088,2.103c0.29,0.745,0.828,1.404,1.54,1.78
	c0.4,0.207,0.83,0.401,1.289,0.406c0.949,0.079,1.947-0.279,2.588-0.993c0.28-0.3,0.421-0.691,0.559-1.07
	c0.128-0.373,0.186-0.77,0.173-1.164c-0.307,0.609-0.716,1.182-1.274,1.586c0.004-0.709-0.001-1.417,0.001-2.126
	c0.243-0.185,0.486-0.37,0.721-0.564c-0.241-0.213-0.48-0.427-0.721-0.641c0.001-0.498-0.001-0.997,0-1.495
	c0.543-0.029,1.167-0.315,1.313-0.884c0.102-0.371,0.155-0.811-0.073-1.147c-0.209-0.238-0.481-0.445-0.8-0.503
	C789.37,111.148,789.184,111.078,789.007,111.087L789.007,111.087z M786.468,114.504c-0.002,1.08,0.006,2.16-0.004,3.24
	c-0.18,0.071-0.358,0.148-0.535,0.227c-0.327-0.473-0.53-1.03-0.624-1.596c-0.025-0.477,0.063-0.961,0.229-1.409
	C785.849,114.817,786.156,114.655,786.468,114.504z M848.691,111.087c-0.087-0.003-0.173,0.015-0.253,0.073
	c0.183,0.042,0.377,0.06,0.549,0.146c0.153,0.073,0.254,0.225,0.307,0.382c0.029,0.17-0.096,0.326-0.244,0.39
	c-0.267,0.123-0.57,0.066-0.842-0.008c-0.652-0.2-1.287-0.458-1.952-0.614c-0.342-0.073-0.7-0.142-1.046-0.051
	c-0.374,0.105-0.755,0.285-0.976,0.619c-0.285,0.368-0.321,0.875-0.182,1.308c0.115,0.289,0.347,0.573,0.675,0.61
	c-0.107-0.138-0.291-0.276-0.238-0.472c0.03-0.195,0.11-0.392,0.266-0.518c0.156-0.118,0.369-0.116,0.55-0.064
	c0.663,0.123,1.311,0.309,1.966,0.465c0.444,0.094,0.871,0.26,1.318,0.343c0.008,0.501,0.002,1.002,0.004,1.503
	c-0.24,0.212-0.481,0.425-0.718,0.641c0.239,0.185,0.474,0.374,0.717,0.555c0.003,0.713-0.001,1.426,0.004,2.14
	c-0.421,0.315-0.974,0.393-1.485,0.322c-0.564-0.034-1.057-0.373-1.431-0.774c0.153-0.107,0.329-0.176,0.494-0.262
	c0.466-0.229,0.925-0.469,1.395-0.69c0.015-1.122,0.002-2.245,0.006-3.367c-0.791,0.337-1.575,0.689-2.369,1.019
	c0.181-0.43,0.471-0.824,0.861-1.088c0.117-0.106,0.235-0.218,0.395-0.255c-0.16,0.011-0.326,0.006-0.471,0.08
	c-1.118,0.452-2.072,1.439-2.282,2.651c-0.08,0.615-0.023,1.254,0.192,1.838c0.276,0.685,0.761,1.293,1.392,1.681
	c0.302,0.184,0.627,0.332,0.965,0.434c0.811,0.135,1.681,0.018,2.391-0.413c0.468-0.327,0.903-0.75,1.099-1.299
	c0.21-0.466,0.295-0.975,0.306-1.484c-0.098,0.128-0.155,0.28-0.238,0.416c-0.269,0.452-0.618,0.862-1.043,1.175
	c0.005-0.711-0.006-1.421,0.006-2.132c0.24-0.174,0.466-0.367,0.708-0.54c-0.223-0.231-0.476-0.431-0.713-0.647
	c-0.005-0.498,0.006-0.997-0.005-1.495c0.466-0.03,0.938-0.239,1.188-0.648c0.261-0.42,0.259-0.993,0.008-1.416
	c-0.198-0.262-0.51-0.43-0.832-0.479C848.987,111.15,848.836,111.091,848.691,111.087z M846.132,114.502
	c0.006,1.078,0,2.156,0.003,3.234c-0.184,0.077-0.365,0.158-0.549,0.236c-0.266-0.374-0.473-0.794-0.579-1.242
	c-0.118-0.586-0.087-1.221,0.186-1.761C845.508,114.818,845.819,114.66,846.132,114.502z M808.247,111.446
	c0.304,0.532,0.114,1.253-0.343,1.636c-0.281,0.183-0.604,0.284-0.92,0.386c0.007,2.175,0.001,4.351,0.002,6.526
	c0.022,0.099-0.069,0.177-0.162,0.138c-0.185-0.009-0.234-0.204-0.312-0.335c-1.138-2.093-2.264-4.192-3.411-6.281
	c-0.022,1.536,0,3.073-0.011,4.61c0.542,0.102,1.07,0.364,1.424,0.795c0.165-0.127,0.271-0.351,0.482-0.403
	c-0.054,0.097-0.131,0.177-0.206,0.259c-0.41,0.454-0.819,0.91-1.229,1.365c-0.19-0.239-0.443-0.467-0.76-0.499
	c-0.208-0.008-0.449,0.003-0.601,0.167c-0.175,0.156-0.292,0.419-0.167,0.641c0.146,0.319,0.514,0.406,0.824,0.482
	c-0.387,0.076-0.821,0.032-1.133-0.228c-0.249-0.212-0.474-0.482-0.539-0.811c-0.087-0.453,0.048-0.957,0.387-1.279
	c0.37-0.366,0.913-0.503,1.422-0.474c0.014-0.669,0.008-1.339,0.003-2.008c-0.247-0.039-0.584-0.004-0.699,0.254
	c-0.067,0.209,0.09,0.386,0.246,0.5c-0.193-0.034-0.406-0.07-0.546-0.22c-0.164-0.202-0.291-0.441-0.339-0.699
	c-0.047-0.332,0.04-0.71,0.316-0.923c0.289-0.224,0.673-0.254,1.026-0.246v-1.415c-0.128-0.192-0.251-0.412-0.47-0.511
	c-0.144-0.06-0.331-0.081-0.455,0.031c-0.171,0.145-0.212,0.376-0.28,0.578c-0.066-0.494-0.016-1.053,0.33-1.441
	c0.418-0.541,1.302-0.561,1.759-0.061c0.198,0.203,0.333,0.454,0.468,0.701c0.846,1.506,1.674,3.021,2.529,4.522
	c0.005-1.244,0.008-2.49-0.001-3.735c-0.147-0.057-0.31-0.056-0.46-0.107c-0.278-0.073-0.51-0.253-0.716-0.447
	c-0.128,0.151-0.258,0.301-0.378,0.458c-0.028-0.015-0.084-0.045-0.112-0.061c0.438-0.552,0.908-1.079,1.364-1.617
	c0.239,0.252,0.551,0.457,0.906,0.48C807.855,112.134,808.221,111.837,808.247,111.446L808.247,111.446z M836.683,112.651
	c0.611-0.398,1.222-0.8,1.835-1.196c0.005,2.35-0.005,4.701,0.005,7.052c0.132,0.18,0.313,0.329,0.474,0.487
	c0.101-0.108,0.206-0.211,0.31-0.316c0.024,0.024,0.073,0.073,0.098,0.097c-0.49,0.424-0.964,0.865-1.456,1.285
	c-0.31-0.318-0.631-0.626-0.939-0.946c-0.138,0.123-0.264,0.257-0.394,0.388c-0.027-0.02-0.08-0.062-0.106-0.082
	c0.235-0.225,0.487-0.43,0.724-0.653c-0.002-1.781,0.002-3.563-0.002-5.344C837.226,113.091,837.056,112.692,836.683,112.651
	L836.683,112.651z M791.038,112.72c0.526-0.392,1.042-0.799,1.569-1.189c0.003,1.295,0,2.59,0.002,3.886
	c0.446-0.368,0.895-0.731,1.336-1.104c0.354,0.367,0.685,0.757,1.049,1.113c0.154-0.111,0.312-0.215,0.473-0.314
	c-0.029,0.205-0.275,0.276-0.402,0.419c0.002,0.708,0,1.416,0,2.124c0.01,0.529-0.066,1.055-0.082,1.584
	c-0.024,0.574-0.247,1.16-0.694,1.536c-0.364,0.325-0.861,0.442-1.335,0.481c-0.008,0.011-0.026,0.034-0.034,0.046l0.013-0.042
	c-0.164,0-0.327-0.006-0.49-0.018c0.205-0.106,0.437-0.174,0.598-0.349c0.185-0.207,0.401-0.404,0.493-0.674
	c0.149-0.413,0.154-0.857,0.169-1.29c-0.004-0.97,0.005-1.941-0.005-2.911c-0.216-0.282-0.475-0.53-0.704-0.802
	c-0.125,0.134-0.276,0.247-0.383,0.395c-0.009,1.002-0.001,2.004-0.004,3.005c0.13,0.129,0.259,0.26,0.39,0.388
	c0.105-0.105,0.21-0.211,0.315-0.317c0.023,0.023,0.07,0.069,0.093,0.092c-0.509,0.398-1.014,0.803-1.523,1.201
	c-0.322-0.286-0.637-0.581-0.955-0.873c-0.106,0.079-0.213,0.16-0.32,0.239c-0.023-0.024-0.068-0.072-0.091-0.096
	c0.245-0.157,0.484-0.322,0.726-0.482c-0.001-1.781-0.001-3.561,0-5.342c-0.005-0.136,0.002-0.283-0.07-0.404
	c-0.047-0.093-0.154-0.122-0.234-0.178C790.922,112.782,791.007,112.757,791.038,112.72L791.038,112.72z M826.124,111.775
	c-0.479,0.388-0.947,0.787-1.421,1.181c-0.005-0.371,0.006-0.741-0.006-1.112c-0.073-0.004-0.106,0.03-0.096,0.099
	c-0.003,2.621,0.001,5.243-0.001,7.864c-0.259-0.049-0.518-0.101-0.774-0.159c-0.004-2.211,0-4.421-0.001-6.633
	c-0.006-0.28-0.096-0.561-0.28-0.774c-0.229-0.272-0.588-0.398-0.933-0.422c-0.41-0.012-0.786,0.204-1.072,0.481
	c-0.263,0.25-0.405,0.637-0.33,0.996c0.032-0.223,0.105-0.473,0.309-0.597c0.225-0.096,0.524-0.019,0.658,0.192
	c0.115,0.17,0.127,0.383,0.131,0.582c0.001,0.598-0.001,1.195,0,1.793c-0.394,0.006-0.86,0.07-1.088,0.436
	c-0.229,0.286-0.3,0.692-0.143,1.029c0.103,0.333,0.45,0.505,0.772,0.558c-0.18-0.117-0.364-0.322-0.257-0.55
	c0.143-0.229,0.469-0.263,0.711-0.196c0.01,1.061,0.005,2.121,0.003,3.181c-0.362,0.126-0.714,0.346-0.907,0.686
	c-0.141,0.243-0.144,0.534-0.132,0.806c0.043,0.478,0.359,0.914,0.782,1.132c0.32,0.15,0.68,0.154,1.026,0.143
	c0.983-0.059,1.917-0.449,2.902-0.481c0.293-0.022,0.465,0.302,0.388,0.557c-0.059,0.23-0.251,0.385-0.433,0.52
	c0.346-0.073,0.69-0.203,0.96-0.438c0.305-0.258,0.445-0.675,0.425-1.066c-0.023-0.387-0.335-0.675-0.66-0.842
	c-0.427-0.251-0.943-0.195-1.414-0.144c-0.883,0.102-1.744,0.382-2.636,0.406c-0.303,0.02-0.585-0.194-0.646-0.49
	c-0.068-0.286,0.164-0.536,0.399-0.658c0.508-0.24,1.094-0.151,1.624-0.039c0.615,0.064,1.192,0.315,1.807,0.378
	c0.349,0.04,0.721-0.027,1.007-0.239c0.295-0.182,0.429-0.538,0.437-0.872c0.004-2.087-0.004-4.173,0.004-6.259
	c0.191-0.166,0.401-0.314,0.567-0.506c-0.232,0.058-0.378,0.275-0.568,0.409C826.863,112.412,826.495,112.092,826.124,111.775
	L826.124,111.775z M825.082,112.829c0.214,0.183,0.425,0.37,0.638,0.555c0,0.657-0.002,1.314,0,1.971
	c-0.101,0.1-0.212,0.205-0.36,0.224c-0.241,0.051-0.477-0.069-0.658-0.218c0.001-0.767,0.001-1.534,0-2.301
	C824.829,112.984,824.956,112.908,825.082,112.829L825.082,112.829z M824.701,115.544c0.313,0.159,0.715,0.207,1.019,0.001
	c-0.001,0.298-0.001,0.597,0,0.895c-0.123-0.12-0.282-0.216-0.458-0.215c-0.208-0.005-0.399,0.093-0.56,0.215
	C824.702,116.142,824.701,115.843,824.701,115.544z M825.259,116.32c0.202,0.005,0.357,0.156,0.461,0.315
	c-0.001,0.832,0.001,1.664,0,2.496c0.016,0.255-0.159,0.474-0.351,0.62c-0.185,0.147-0.437,0.152-0.662,0.14
	c-0.013-1.087-0.001-2.175-0.005-3.262C824.847,116.471,825.031,116.317,825.259,116.32L825.259,116.32z M850.338,113.131
	c0.33-0.289,0.641-0.6,0.978-0.881c0.285,0.301,0.586,0.587,0.876,0.884c-0.348,0.326-0.698,0.648-1.05,0.969
	C850.875,113.777,850.601,113.459,850.338,113.131L850.338,113.131z M812.239,113.44c0.206-0.142,0.467-0.133,0.706-0.164
	c-0.18,0.142-0.38,0.307-0.404,0.552c-0.04,0.219,0.098,0.416,0.26,0.548c0.294,0.235,0.671,0.367,0.911,0.668
	c0.115,0.146,0.185,0.33,0.18,0.517c-0.002,0.988,0.001,1.976-0.002,2.964c0.263,0.212,0.527,0.422,0.789,0.635
	c0.076-0.049,0.153-0.099,0.23-0.148c-0.004-1.078,0.006-2.157-0.005-3.235c-0.135-0.159-0.322-0.274-0.476-0.416
	c0.379-0.349,0.75-0.707,1.137-1.047c0.336,0.33,0.69,0.642,1.035,0.963c-0.131,0.139-0.266,0.273-0.404,0.404
	c-0.003,0.948,0,1.896-0.002,2.844c0.344,0.267,0.689,0.534,1.037,0.797c0.049-0.029,0.098-0.057,0.149-0.085
	c-0.005-1.158,0-2.315-0.003-3.473c-0.159-0.136-0.325-0.266-0.482-0.404c0.372-0.351,0.748-0.697,1.122-1.046
	c0.372,0.291,0.745,0.583,1.116,0.877c0.128-0.142,0.26-0.282,0.407-0.406c0.019,0.027,0.058,0.082,0.076,0.109
	c-0.317,0.282-0.632,0.568-0.939,0.861c-0.026,0.923,0,1.849-0.013,2.773c-0.806,0.53-1.648,1.013-2.467,1.529
	c-0.432-0.309-0.851-0.635-1.277-0.952c-0.382,0.307-0.765,0.615-1.149,0.919c-0.055,0.061-0.112-0.028-0.157-0.053
	c-0.36-0.289-0.717-0.58-1.081-0.862c-0.153,0.133-0.313,0.258-0.467,0.392c-0.024-0.023-0.072-0.07-0.097-0.093
	c0.187-0.129,0.37-0.265,0.557-0.395c0.001-0.895,0.001-1.79,0-2.685c0-0.239-0.085-0.482-0.248-0.659
	c-0.18-0.195-0.422-0.332-0.565-0.561c-0.158-0.266-0.173-0.596-0.112-0.893C811.689,113.879,811.956,113.624,812.239,113.44z
	 M868.934,114.08c0.037,0.094,0.048,0.198,0.003,0.292c-0.113,0.257-0.419,0.356-0.68,0.351c-0.273-0.024-0.486-0.221-0.67-0.406
	c-0.309,0.207-0.619,0.412-0.927,0.619c-0.356,0.239-0.748,0.416-1.142,0.581c-0.002,0.506,0,1.012-0.001,1.518
	c0.288,0.24,0.584,0.469,0.866,0.716c-0.216,0.229-0.43,0.462-0.634,0.702c-0.21,0.253-0.408,0.545-0.42,0.884
	c-0.012,0.386,0.153,0.803,0.494,1.007c0.151,0.089,0.334,0.168,0.509,0.099c-0.218-0.078-0.486-0.236-0.467-0.502
	c0.061-0.252,0.359-0.42,0.607-0.348c0.257,0.073,0.47,0.257,0.634,0.464c0.661-0.476,1.358-0.902,2.081-1.277
	c-0.006-0.642,0.009-1.286-0.006-1.928c-0.319-0.224-0.624-0.468-0.94-0.697c0.334-0.423,0.67-0.871,0.81-1.401
	C869.101,114.53,869.119,114.248,868.934,114.08L868.934,114.08z M866.804,115.042c0.214,0.308,0.498,0.608,0.888,0.671
	c0.388,0.091,0.763-0.119,1.018-0.399c-0.348,0.643-0.888,1.16-1.445,1.622c-0.151-0.16-0.313-0.309-0.462-0.47
	C866.808,115.993,866.803,115.517,866.804,115.042L866.804,115.042z M867.351,116.963c0.167,0.141,0.332,0.284,0.499,0.425
	c0.076,0.046,0.039,0.142,0.05,0.214c-0.005,0.552,0.007,1.105-0.006,1.657c-0.125-0.282-0.312-0.545-0.576-0.712
	c-0.383-0.25-0.909-0.265-1.298-0.022c-0.178,0.099-0.321,0.246-0.456,0.396c0.193-0.377,0.505-0.674,0.799-0.973
	C866.698,117.626,867.033,117.303,867.351,116.963L867.351,116.963z M798.562,114.315c-0.44,0.255-0.865,0.533-1.296,0.801
	c-0.365,0.191-0.736,0.37-1.104,0.555c0.002,1.032-0.002,2.063,0.003,3.095c-0.157,0.122-0.34,0.209-0.483,0.349
	c0.028,0.016,0.082,0.049,0.11,0.066c0.123-0.106,0.245-0.215,0.381-0.306c0.456,0.379,0.886,0.789,1.341,1.17
	c0.022-0.012,0.068-0.035,0.09-0.047c0.77-0.597,1.548-1.185,2.319-1.782l-0.096-0.084c-0.429,0.334-0.846,0.686-1.271,1.025
	c-0.351-0.316-0.69-0.644-1.04-0.962c-0.119-0.087-0.052-0.252-0.061-0.376c0.719-0.526,1.438-1.053,2.146-1.593
	C799.246,115.594,798.904,114.955,798.562,114.315L798.562,114.315z M797.451,115.076c0.364,0.598,0.729,1.193,1.089,1.793
	c-0.366,0.257-0.728,0.518-1.09,0.779C797.447,116.791,797.445,115.933,797.451,115.076L797.451,115.076z M810.475,114.314
	c-0.31,0.204-0.622,0.406-0.94,0.599c-0.464,0.29-0.967,0.509-1.453,0.759c0.002,1.031-0.003,2.062,0.001,3.093
	c-0.15,0.112-0.315,0.2-0.461,0.317c0.015,0.027,0.047,0.081,0.062,0.108c0.161-0.109,0.321-0.22,0.487-0.322
	c0.417,0.399,0.841,0.792,1.261,1.187c0.786-0.584,1.557-1.188,2.336-1.783c0.1-0.02,0.018-0.182-0.046-0.12
	c-0.422,0.327-0.831,0.671-1.247,1.006c-0.326-0.323-0.65-0.648-0.974-0.973c-0.105-0.092-0.043-0.246-0.048-0.367
	c0.692-0.513,1.362-1.056,2.055-1.568C811.188,115.594,810.814,114.961,810.475,114.314z M809.443,115.096
	c0.357,0.581,0.683,1.181,1.012,1.778c-0.34,0.249-0.668,0.513-1.005,0.767C809.435,116.793,809.451,115.944,809.443,115.096
	L809.443,115.096z M830.568,114.316c-0.34,0.198-0.676,0.402-1.006,0.616c-0.388,0.236-0.811,0.404-1.224,0.59
	c0.01,1.082,0.003,2.164,0.004,3.246c-0.138,0.137-0.277,0.275-0.411,0.415c0.028-0.002,0.084-0.006,0.112-0.008
	c0.098-0.104,0.2-0.206,0.301-0.308c0.463,0.379,0.919,0.766,1.379,1.149c0.076,0.073,0.162-0.036,0.236-0.062
	c0.74-0.404,1.439-0.881,2.201-1.244c0.012-1.008,0.004-2.016,0.005-3.025c0.138-0.138,0.277-0.275,0.411-0.415
	c-0.027,0.001-0.081,0.003-0.108,0.004c-0.128,0.105-0.258,0.208-0.387,0.312C831.576,115.163,831.074,114.737,830.568,114.316z
	 M829.706,115.064c0.364,0.342,0.734,0.679,1.098,1.021c-0.004,1.073-0.003,2.146-0.003,3.219c-0.373-0.327-0.727-0.674-1.095-1.006
	L829.706,115.064L829.706,115.064z"/>
<path class="st0" d="M838.582,116.721c0.525-0.805,1.061-1.604,1.599-2.401c0.233,0.198,0.521,0.32,0.825,0.352
	c0.297,0.001,0.551-0.176,0.775-0.353c-0.057,0.435-0.201,0.886-0.535,1.188c-0.291,0.267-0.732,0.331-1.098,0.201
	c-0.216-0.073-0.416-0.188-0.594-0.33c-0.032,0.074-0.058,0.151-0.076,0.23c0.745,1.122,1.476,2.254,2.208,3.385
	c0.168-0.109,0.315-0.247,0.464-0.381c0.029,0.018,0.087,0.055,0.116,0.073c-0.526,0.469-1.069,0.919-1.609,1.374
	C839.961,118.948,839.283,117.827,838.582,116.721L838.582,116.721z M863.777,114.315c-0.324,0.197-0.649,0.394-0.969,0.597
	c-0.443,0.308-0.95,0.499-1.42,0.759c0.005,1.031,0,2.063,0.003,3.093c-0.162,0.107-0.322,0.216-0.484,0.321
	c0.021,0.025,0.063,0.078,0.084,0.103c0.14-0.103,0.266-0.226,0.417-0.316c0.42,0.391,0.86,0.76,1.286,1.145
	c0.041,0.065,0.1-0.002,0.141-0.028c0.768-0.592,1.538-1.18,2.308-1.77c-0.09-0.158-0.193-0.005-0.283,0.06
	c-0.361,0.294-0.722,0.588-1.084,0.88c-0.37-0.338-0.728-0.688-1.105-1.018c-0.006-0.106-0.006-0.212-0.001-0.318
	c0.721-0.522,1.433-1.057,2.148-1.587C864.473,115.595,864.128,114.954,863.777,114.315L863.777,114.315z M862.665,115.093
	c0.39,0.576,0.732,1.185,1.098,1.778c-0.371,0.254-0.732,0.523-1.1,0.779C862.669,116.798,862.663,115.946,862.665,115.093z
	 M834.049,114.4c0.291,0.265,0.536,0.578,0.807,0.865c0.294-0.282,0.582-0.573,0.867-0.865c0.207,0.132,0.422,0.318,0.688,0.265
	c0.187-0.013,0.284-0.196,0.443-0.271c0,0.39-0.089,0.799-0.347,1.102c-0.295,0.354-0.854,0.457-1.25,0.214
	c-0.152-0.074-0.253-0.215-0.394-0.303c0.003,1.066,0.002,2.131,0.001,3.197c0.21,0.161,0.42,0.322,0.636,0.476
	c0.157-0.103,0.278-0.292,0.476-0.31c-0.466,0.443-0.954,0.865-1.439,1.287c-0.365-0.344-0.738-0.679-1.098-1.027
	c-0.141,0.126-0.271,0.264-0.404,0.397c-0.021-0.025-0.064-0.074-0.086-0.099c0.177-0.197,0.374-0.374,0.555-0.567
	c-0.007-0.912,0.004-1.824-0.005-2.735c-0.097-0.23-0.265-0.43-0.387-0.65c-0.167,0.098-0.288,0.303-0.495,0.31
	C833.088,115.25,833.58,114.838,834.049,114.4L834.049,114.4z M852.952,115.54c0.434-0.38,0.858-0.769,1.294-1.145
	c0.313,0.345,0.636,0.68,0.943,1.03c0.461-0.333,0.903-0.69,1.359-1.03c0.319,0.342,0.633,0.69,0.955,1.03
	c0.452-0.342,0.898-0.692,1.353-1.03c0.311,0.346,0.631,0.684,0.946,1.027c0.193-0.123,0.369-0.27,0.565-0.388
	c0.015,0.114-0.089,0.166-0.161,0.229c-0.105,0.085-0.207,0.173-0.312,0.257c-0.009,0.949,0.002,1.897-0.006,2.846
	c0.181,0.188,0.365,0.372,0.553,0.552c0.099-0.103,0.201-0.205,0.298-0.311c0.029,0.018,0.088,0.055,0.117,0.073
	c-0.475,0.468-0.965,0.922-1.453,1.377c-0.344-0.406-0.704-0.799-1.04-1.212c0.082-0.075,0.161-0.153,0.239-0.231
	c0.001-0.818,0-1.636,0-2.454c-0.26-0.29-0.519-0.581-0.786-0.863c-0.077,0.079-0.155,0.157-0.231,0.237
	c-0.001,1.023,0.004,2.046-0.003,3.069c0.129,0.145,0.274,0.274,0.405,0.418c-0.352,0.312-0.691,0.639-1.041,0.955
	c-0.327-0.344-0.649-0.692-0.965-1.046c0.09-0.111,0.271-0.192,0.242-0.361c-0.004-0.798,0.004-1.596-0.004-2.393
	c-0.218-0.304-0.463-0.598-0.715-0.875c-0.074,0.078-0.149,0.155-0.224,0.232c0.002,0.991-0.006,1.982,0.004,2.973
	c0.107,0.182,0.266,0.332,0.399,0.496c-0.342,0.359-0.695,0.708-1.051,1.053c-0.34-0.405-0.693-0.8-1.036-1.203
	c0.107-0.083,0.215-0.165,0.322-0.248c-0.003-0.837-0.006-1.674,0.002-2.511c-0.201-0.249-0.421-0.481-0.632-0.721
	c-0.15,0.111-0.282,0.251-0.453,0.329C852.826,115.625,852.903,115.587,852.952,115.54L852.952,115.54z"/>
<path class="st0" d="M849.937,115.606c0.448-0.411,0.912-0.805,1.365-1.211c0.322,0.367,0.636,0.742,0.957,1.11
	c0.167-0.13,0.316-0.285,0.5-0.393c-0.014,0.059-0.029,0.119-0.084,0.152c-0.138,0.115-0.275,0.23-0.414,0.341
	c0.002,0.95-0.004,1.9,0.003,2.85c0.181,0.205,0.369,0.405,0.538,0.621c0.141-0.086,0.259-0.204,0.393-0.299
	c0.029,0.015,0.086,0.045,0.115,0.06c-0.448,0.42-0.912,0.822-1.379,1.22c-0.31-0.373-0.629-0.74-0.946-1.107
	c-0.138,0.125-0.253,0.277-0.404,0.386c-0.021-0.02-0.064-0.061-0.086-0.081c0.135-0.127,0.261-0.263,0.398-0.389
	c0.011-0.863,0.001-1.727,0.005-2.59c-0.008-0.12,0.031-0.262-0.063-0.358c-0.166-0.206-0.319-0.423-0.496-0.62
	C850.207,115.404,850.082,115.52,849.937,115.606L849.937,115.606z"/>
</svg>
