<?xml version="1.0" encoding="utf-8"?>
<!-- Generator: Adobe Illustrator 19.1.1, SVG Export Plug-In . SVG Version: 6.00 Build 0)  -->
<svg version="1.1" id="svg10490" xmlns:svg="http://www.w3.org/2000/svg"
	 xmlns="http://www.w3.org/2000/svg" xmlns:xlink="http://www.w3.org/1999/xlink" x="0px" y="0px" width="107px" height="18.632px"
	 viewBox="-37 204.21 107 18.632" style="enable-background:new -37 204.21 107 18.632;" xml:space="preserve">
<style type="text/css">
	.st0{fill:#B3B3BD;}
</style>
<path id="path10468" class="st0" d="M-35.493,215.619v-5.442H-37v-1.488l1.507-0.202v-1.856l3.252-0.457v2.314h2.157v1.696h-2.157
	v5.161c0,0.969,0.27,1.466,1.224,1.466c0.339,0,0.802-0.036,1.038-0.085v1.259c-0.521,0.308-1.636,0.569-2.665,0.569
	c-1.938,0-2.847-0.854-2.847-2.936H-35.493z M-13.813,209.351c0.817,0,1.258,0.145,1.258,3.031l-2.726,0.16
	C-15.245,209.925-14.85,209.351-13.813,209.351z M-15.254,213.716h5.861c0-4.126-1.417-5.442-4.365-5.442
	c-2.928,0-4.85,1.885-4.85,5.122c0,3.344,1.742,5.194,5.12,5.194c1.815,0,3.281-0.812,3.736-1.43v-0.957
	c-0.682,0.206-1.384,0.339-2.641,0.339c-1.775,0-2.69-0.921-2.862-2.835V213.716z M-29.698,217.452l1.042-0.48v-10.698l-1.096-0.509
	v-0.893l4.054-0.654h0.275v5.353h0.109c0.884-0.8,2.072-1.299,3.392-1.299c1.66,0,2.484,0.826,2.484,2.629v6.07l1.054,0.481v0.905
	h-5.367v-0.905l1.054-0.481v-5.334c0-0.998-0.436-1.371-1.321-1.371c-0.485,0-0.945,0.088-1.345,0.25v6.457l1.054,0.482v0.905h-5.38
	v-0.909L-29.698,217.452z"/>
<path id="path10470" class="st0" d="M41.439,208.914v0.894l1.095,0.509v6.663l-1.044,0.485v0.909h5.359v-0.897l-1.044-0.485v-8.723
	h-0.275l-4.09,0.653L41.439,208.914z M52.549,216.456v-2.657l-0.761,0.073c-0.757,0.073-1.378,0.575-1.378,1.517
	c0,1.084,0.596,1.442,1.224,1.442c0.363,0,0.733-0.179,0.913-0.376L52.549,216.456z M50.242,209.594l-0.691,2.006H47.86v-2.581
	c0.913-0.284,2.027-0.746,3.751-0.746c2.623,0,4.199,0.775,4.199,2.98v5.718l1.042,0.485v0.741c-0.32,0.172-1.044,0.391-1.835,0.391
	c-1.024,0-1.942-0.327-2.094-1.393h-0.097c-0.436,0.872-1.599,1.405-2.823,1.405c-1.745,0-2.847-1.127-2.847-2.762
	c0-2.011,1.321-2.338,3.477-2.787l1.878-0.327v-1.283c0-1.262-0.388-1.89-1.636-1.89c-0.17,0-0.472,0.022-0.666,0.041H50.242z
	 M57.119,217.453l1.042-0.472v-6.663l-1.096-0.509v-0.884l4.055-0.642h0.275v1.308h0.109c0.884-0.8,2.072-1.296,3.392-1.296
	c1.66,0,2.484,0.824,2.484,2.629v6.07l1.054,0.485v0.909h-5.367v-0.897l1.054-0.475v-5.378c0-0.998-0.436-1.371-1.321-1.371
	c-0.485,0-0.945,0.088-1.345,0.25v6.457l1.042,0.482v0.905h-5.355v-0.909L57.119,217.453z M36.886,206.283l-1.093-0.497v-0.897
	l4.088-0.654h0.275v12.442l1.042,0.569v0.848l-3.877,0.448h-0.267v-1.018h-0.109c-0.412,0.521-1.248,1.066-2.472,1.066
	c-1.793,0-3.937-1.139-3.937-4.907c0-3.962,2.193-5.391,4.798-5.391c0.545,0,1.187,0.121,1.587,0.412v-2.423L36.886,206.283z
	 M36.886,216.629v-6.653c-0.254-0.194-0.521-0.355-1.115-0.355c-1.023,0-1.805,0.921-1.805,3.695c0,2.43,0.618,3.489,1.912,3.489
	c0.503,0,0.785-0.102,1.006-0.191L36.886,216.629z M-3.668,221.633c-1.786,0-2.399-0.63-2.399-1.308c0-0.473,0.126-0.8,0.378-1.102
	h3.456c0.808,0,1.175,0.242,1.175,0.751C-1.055,220.991-1.621,221.633-3.668,221.633L-3.668,221.633z M-3.64,209.421
	c0.715,0,1.175,0.315,1.175,2.278c0,1.963-0.462,2.167-1.164,2.167s-1.156-0.164-1.156-2.165c0-1.999,0.448-2.278,1.161-2.278
	L-3.64,209.421z M-1.472,216.242h-3.513c-0.376,0-0.691-0.291-0.691-0.63c0-0.267,0.194-0.545,0.436-0.727
	c0.533,0.158,0.969,0.206,1.623,0.206c2.532,0,4.265-1.151,4.265-3.295c0-0.957-0.4-1.502-1.03-2.06v-0.073l1.623,0.569l0.218,0.012
	v-1.976H1.278l-2.499,0.497H-1.36c-0.623-0.23-1.49-0.473-2.278-0.473c-2.532,0-4.284,1.256-4.284,3.39
	c0,1.3,0.654,2.268,1.632,2.803v0.103c-0.565,0.397-1.648,1.214-1.648,2.26c0,0.763,0.504,1.518,1.558,1.745v0.105
	c-1.109,0.23-2.35,0.594-2.35,1.866c0,1.308,1.896,2.278,4.987,2.278c3.841,0,5.503-1.478,5.503-3.816
	c0-1.926-1.066-2.823-3.235-2.823L-1.472,216.242z M23.134,208.924v0.897l1.102,0.509v6.663l-1.042,0.485v0.909h5.645v-0.897
	l-1.345-0.485v-5.489c0.557-0.267,1.29-0.356,2.169-0.356c0.288,0,0.63,0.036,0.827,0.088v-2.87
	c-0.109-0.036-0.323-0.053-0.485-0.053c-1.078,0-1.959,0.694-2.535,2.011h-0.097v-2.074h-0.279l-3.962,0.652L23.134,208.924z
	 M18.627,216.472v-2.665l-0.751,0.073c-0.751,0.073-1.369,0.582-1.369,1.527c0,1.09,0.594,1.442,1.224,1.442
	c0.363,0,0.734-0.182,0.913-0.376H18.627z M16.313,209.603l-0.691,2.011h-1.696v-2.594c0.921-0.284,2.035-0.746,3.756-0.746
	c2.629,0,4.204,0.775,4.204,2.98v5.718l1.042,0.485v0.741c-0.315,0.172-1.042,0.391-1.829,0.391c-1.018,0-1.938-0.327-2.084-1.393
	h-0.097c-0.436,0.872-1.599,1.405-2.816,1.405c-1.741,0-2.835-1.127-2.835-2.762c0-2.011,1.329-2.338,3.484-2.787l1.888-0.327
	v-1.283c0-1.262-0.38-1.89-1.636-1.89c-0.164,0-0.472,0.022-0.669,0.041L16.313,209.603z M2.817,210.317l-1.09-0.509v-0.884
	l4.095-0.642H6.1v6.917c0,1.121,0.549,1.321,1.375,1.321c0.606,0,0.848-0.109,1.175-0.234v-5.969l-1.102-0.509v-0.893l4.083-0.652
	h0.267v8.408l1.09,0.569v0.853l-3.974,0.436H8.728l-0.004-1.308H8.615c-0.628,0.775-1.663,1.345-2.992,1.345
	c-1.975,0-2.819-1.405-2.819-3.114v-5.136L2.817,210.317z M44.105,204.21c0.969,0,1.751,0.784,1.751,1.752
	c0,0.967-0.784,1.752-1.752,1.752c-0.969,0-1.757-0.775-1.757-1.745s0.787-1.745,1.757-1.745L44.105,204.21z M67.911,217.823
	L70,217.828"/>
</svg>
