<?xml version="1.0" encoding="utf-8"?>
<!-- Generator: Adobe Illustrator 19.1.1, SVG Export Plug-In . SVG Version: 6.00 Build 0)  -->
<svg version="1.1" id="Layer_1" xmlns="http://www.w3.org/2000/svg" xmlns:xlink="http://www.w3.org/1999/xlink" x="0px" y="0px"
	 width="170.841px" height="12px" viewBox="776.397 -924.644 170.841 12"
	 style="enable-background:new 776.397 -924.644 170.841 12;" xml:space="preserve">
<style type="text/css">
	.st0{fill:#B3B3B3;}
</style>
<g>
	<path class="st0" d="M891.084-924.477L891.084-924.477c-1.859,0.042-3.178-0.083-5.037-0.083l-0.181,0.248
		c0.181,0.331,1.022,0.042,1.38,0.248c0.3,0.207,0.42,0.415,0.541,0.663v4.262l-0.06,2.399c0,0.91,0.239,2.235-0.181,3.063
		c-0.3,0.207-0.6,0.372-1.139,0.29c-0.6-0.166-0.9-0.58-0.96-1.076c0-0.372,0.66-0.372,0.719-0.703c0.361-0.249,0-0.662,0.06-1.034
		c-0.12-0.207-0.48-0.29-0.781-0.372c-0.6,0.041-1.02,0.248-1.259,0.621c-0.541,0.993,0.178,1.862,0.839,2.523
		c0.539,0.414,1.32,0.787,2.52,0.578c1.2-0.205,1.741-1.033,2.1-1.86v-4.634c0-0.496,0.06-1.117,0-1.655
		c-0.06-0.207,0.06-0.455,0-0.579c0.18-0.703-0.3-1.573,0.12-2.234c0.361-0.29,0.96-0.29,1.56-0.372
		C891.445-924.311,891.385-924.518,891.084-924.477z"/>
	<path class="st0" d="M849.513-915.417c-0.06,0.373-0.181,0.787-0.121,1.159c-0.12,0.125-0.18,0.332-0.48,0.373
		c-0.172-0.036-0.307-0.13-0.36-0.249c-0.24-0.62-0.06-1.406-0.121-2.109c-0.18,0-0.3-0.084-0.24-0.208
		c0.059-0.083,0.18,0,0.18,0.084c0-0.745-0.121-1.697-0.96-2.111c-0.239-0.247-0.66-0.247-0.539-0.538
		c0.659-0.29,1.139-0.662,1.559-1.076c0.841-0.786,0.601-2.275,0.181-3.186c-0.48-0.621-1.32-1.075-2.34-1.282v0.001h-5.816
		c-0.24,0.041-0.3,0.166-0.24,0.331c0.12,0.207,0.66,0.083,0.96,0.165c0.479,0.124,0.6,0.497,0.719,0.869
		c-0.06,0.414,0,1.034-0.06,1.448c0.06,0.662,0.06,1.531,0.06,2.151c-0.06,0.869,0,1.82,0,2.813l-0.06,2.399
		c0.12,0.206-0.06,0.455-0.06,0.662c-0.18,0.125-0.36,0.331-0.66,0.372c-0.24,0.125-0.78-0.082-0.78,0.207
		c-0.24,0.498,0.779,0.125,1.079,0.29c0.06-0.082,0.24,0,0.361,0l3.119-0.041l0.121-0.125c0.059-0.331-0.361-0.29-0.66-0.331
		c-0.3-0.082-0.42-0.29-0.54-0.537v-4.594l0.121-0.165c0.299-0.166,0.899-0.083,1.26,0c0.839,0.165,1.02,0.786,1.2,1.366v2.979
		l0.18,0.786c0.295,0.341,0.766,0.592,1.319,0.703c0.539,0.042,0.899-0.042,1.26-0.207c0.9-0.455,0.96-1.448,0.84-2.4
		C849.873-915.582,849.693-915.333,849.513-915.417z M845.912-919.305c-0.48,0.207-1.5,0.166-1.98,0.042l-0.06-4.22
		c0.06-0.29,0.24-0.579,0.78-0.579c0.361-0.083,0.72,0.041,1.141,0.041c1.68,0.703,1.02,2.482,0.959,3.806
		C846.631-919.843,846.332-919.553,845.912-919.305z"/>
	<path class="st0" d="M878.246-924.311l-0.12-0.124c-1.02-0.042-7.319-0.165-7.738,0.042c-0.12,0.827-0.059,1.862-0.059,2.689
		l0.059,2.317l0.361,0.042c0.3-0.207,0.059-0.703,0.181-1.075l0.478-2.234c0.299-0.538,0.361-1.282,1.441-1.365
		c0.239,0.042,0.359,0.165,0.478,0.29v5.461l-0.059,4.634c-0.181,0.373-0.839,0.331-1.38,0.414c-0.12,0.125-0.12,0.414,0.239,0.372
		c1.56-0.082,3.12,0.125,4.68,0c0.241-0.041,0.361-0.165,0.3-0.372c-0.481-0.247-1.681,0.083-1.8-0.496v-10.054l0.241-0.166
		c0.12-0.125,0.539-0.125,0.719,0c0.781,0.662,1.02,1.531,1.259,2.483l0.181,2.027c0.12,0.042,0.299,0.166,0.48,0.042
		c0.12-0.538-0.061-1.199,0.12-1.738L878.246-924.311z"/>
	<path class="st0" d="M868.407-915.498c0-0.207,0.3-0.207,0.361-0.372c0.839-0.249,0.299-1.241,0.48-1.862l-0.12-0.083
		c-0.181-0.083-0.3-0.042-0.422,0.041l-0.12,1.324c0,0.373-0.3,0.705-0.181,1.034c-0.478,0.827-0.84,1.779-2.159,2.069
		c-0.6,0.084-1.261,0.042-1.739-0.123c-0.721-0.414-0.3-1.49-0.361-2.153h-0.06v-2.688l0.121-0.291c0.179-0.082,0.54-0.082,0.659,0
		c1.08,0.58,1.08,1.822,1.2,2.772c0.061,0.125,0.3,0.166,0.42,0.084c0.241-0.58,0-1.365,0.181-1.986v-1.117
		c-0.06-0.455,0.061-0.745-0.06-1.117c0-0.165,0.122-0.165,0-0.248v-1.696c-0.12-0.083-0.419-0.083-0.478,0
		c-0.241,1.117-0.122,2.483-1.741,2.772c-0.179,0-0.24-0.083-0.3-0.207v-4.013c0-0.331,0.241-0.497,0.541-0.704
		c0.478,0,1.02-0.166,1.5-0.042c2.158,0.579,2.1,2.482,2.339,4.096c0.12,0.082,0.42,0.082,0.48-0.042c0.059-1.49,0-2.814,0-4.344
		c-0.18-0.249-1.019-0.042-1.319-0.166c-0.96,0-7.199-0.041-7.262,0.124c-0.12,0.331,0.3,0.29,0.66,0.29
		c0.6,0,0.959,0.29,1.14,0.621v2.938l0.06,2.358c-0.12,0.828,0.06,2.027,0,2.937c-0.06,0.538,0.239,1.366-0.3,1.655
		c-0.36,0.373-1.079,0.289-1.619,0.414c-0.12,0.083-0.12,0.331,0.06,0.372c1.86,0,3.66-0.041,5.58,0.042c1.02,0,1.98,0.042,3-0.042
		c0.481-0.082,0.181-0.536,0.3-0.826l0.059-2.4h-0.12C868.948-915.829,868.648-915.663,868.407-915.498z"/>
	<path class="st0" d="M856.291-913.348c-0.84,0-1.74,0.207-2.1-0.29c0.06-0.746,0-1.696,0-2.441c0-0.827-0.06-1.49,0.06-2.4
		l0.181-0.083c1.139,0.165,1.379,0.992,1.619,1.697c0.18,0.372-0.12,1.075,0.3,1.324c0.24,0,0.36-0.084,0.36-0.249
		c-0.06-0.717-0.06-1.435,0-2.151c-0.06-0.62-0.06-1.406-0.06-1.986c0.181-0.579-0.059-1.241,0.06-1.779l-0.06-0.248
		c-0.36-0.042-0.48,0.042-0.48,0.207c0,1.158-0.181,2.317-1.62,2.772c-0.42,0.042-0.299-0.29-0.36-0.414v-1.159
		c0.06-0.29-0.121-0.373,0-0.621c0-0.704-0.181-1.945,0.18-2.69c0.361-0.29,1.26-0.29,1.8-0.166
		c1.559,0.538,2.219,1.697,2.399,2.979c0.121,0.372-0.299,1.117,0.54,1.075c0.12-0.248,0-0.662,0.12-0.951
		c0.06-0.248-0.18-0.413,0-0.662c-0.18-0.579,0.121-1.324-0.06-1.986c-0.06-0.29,0.18-0.869-0.24-0.993v0.001h-8.399l-0.121,0.124
		c-0.06,0.497,0.84,0.248,1.26,0.372c0.24,0.083,0.42,0.29,0.54,0.497v9.764c-0.121,0.165-0.24,0.331-0.48,0.414
		c-0.361,0.247-1.5-0.207-1.32,0.455c0.48,0.124,1.32,0,1.8,0.082l6.959-0.041l0.181-0.125v-3.061l-0.72-0.125
		C858.33-915.044,857.79-913.803,856.291-913.348z"/>
	<path class="st0" d="M828.516-919.47c-1.08-0.703-2.52-1.2-3.42-2.069c-0.36-0.414-0.48-1.282-0.06-1.738
		c0.3-0.372,0.719-0.745,1.44-0.786c0.361,0.005,0.713,0.077,1.02,0.207c1.679,0.745,1.86,2.358,1.979,3.93h0.361
		c0.18,0,0.059-0.248,0.18-0.29v-4.344l-0.3-0.042c-0.48-0.042-0.24,0.373-0.48,0.538c-0.12,0.042-0.419,0.166-0.659,0.042
		c-0.39-0.263-0.862-0.462-1.38-0.58c-0.72-0.124-1.56,0.042-2.1,0.29c-1.14,0.828-1.92,2.193-1.32,3.559
		c0.24,0.29,0.24,0.621,0.54,0.869c1.08,1.035,2.76,1.531,3.899,2.483c0.84,0.455,1.319,1.075,1.44,1.903
		c0,0.952-0.42,1.822-1.559,2.151c-0.781,0.167-1.44-0.041-1.98-0.29c-1.799-0.867-1.86-2.647-1.979-4.344
		c-0.121-0.041-0.42-0.041-0.541,0v2.69l0.06,2.4l0.42,0.083c0.24-0.083,0.3-0.248,0.3-0.496c0.121-0.083,0.18-0.29,0.48-0.207
		l1.26,0.579c0.9,0.249,2.1,0.207,2.88-0.165c1.379-0.786,2.1-1.986,1.92-3.434C830.856-917.857,829.596-918.685,828.516-919.47z"/>
	<path class="st0" d="M816.156-918.187c-0.239,0.58-0.12,1.283-0.299,1.862c-0.241,1.117-0.601,2.235-1.8,2.896
		c-0.299,0.124-0.899,0.124-1.2,0.083c-1.32-0.041-0.48-1.282-0.84-1.903h0.06l0.06-5.048c0-1.282,0-2.234,0.121-3.517
		c0.12-0.455,1.019-0.29,1.559-0.455c0.12-0.083,0-0.249-0.06-0.331v0.002h-5.16c-0.54,0.662,0.9,0.248,1.26,0.538
		c0.18,0.124,0.36,0.372,0.42,0.579v5.295l-0.06,0.538c0.121,0.662-0.06,1.283,0.06,1.862c-0.12,0.662,0.06,1.49-0.18,2.11
		c-0.3,0.33-1.02,0.289-1.619,0.33c-0.06,0.124-0.181,0.414,0.12,0.414h1.86l3.42,0.042c0.72-0.042,1.74-0.042,2.699-0.042
		l0.06-0.207v-5.047C816.482-918.227,816.31-918.227,816.156-918.187z"/>
	<path class="st0" d="M831.395-924.477v5.007l0.36,0.083c0.3,0,0.181-0.207,0.3-0.331c-0.12-1.118,0.12-2.027,0.42-2.938
		c0.24-0.621,0.479-1.282,1.379-1.448c0.239,0.041,0.42,0.083,0.539,0.29v9.93c-0.24,0.496-0.959,0.537-1.62,0.621
		c-0.059,0.083-0.12,0.331,0.06,0.372c0.54,0,1.32,0,1.68,0.041c0.361-0.123,0.78,0.084,1.201-0.041v0.041h1.319
		c0.299-0.123,0.959,0.124,0.959-0.206c-0.059-0.456-0.78-0.124-1.2-0.331c-0.66-0.289-0.48-1.076-0.54-1.697h0.058v-8.813
		c0.12-0.166,0.42-0.166,0.72-0.166c0.36,0.124,0.659,0.331,0.78,0.579c0.6,1.2,0.9,2.523,0.84,4.013l0.3,0.083
		c0.121-0.042,0.24-0.083,0.3-0.207v-4.758l-0.12-0.207C837.273-924.6,832.174-924.642,831.395-924.477z"/>
	<path class="st0" d="M797.799-914.009c-0.361-0.869-0.48-1.822-0.781-2.772l-1.26-4.262c-0.24-1.159-0.719-2.151-0.959-3.269
		c0.121-0.454-1.02-0.33-1.08-0.124c-0.299,1.034-0.479,2.069-0.78,3.062l-0.6,2.4l-0.66,2.896c-0.3,0.745-0.3,1.573-0.72,2.234
		c-0.36,0.249-0.78,0.497-1.5,0.456c-0.12,0.083-0.18,0.455,0.18,0.372l3.42-0.041l0.06-0.249c-0.18-0.125-0.66-0.083-0.9-0.207
		c-0.66-0.745,0.12-1.573,0.18-2.318l0.24-0.083h2.4c0.6,0.29,0.36,0.994,0.66,1.408c0.059,0.247,0.18,0.661-0.121,0.868
		c-0.121,0.455-1.44-0.041-1.26,0.58c0.239,0.124,0.839,0,0.959,0.124h3.539l0.181-0.124c0.12-0.084-0.06-0.166-0.06-0.291
		C798.339-913.388,797.979-913.636,797.799-914.009z M793.12-916.366l-0.48-0.042l0.06-0.538l0.54-2.358l0.42-1.531l0.12,0.042
		l0.659,2.069l0.6,2.234C794.62-916.16,793.78-916.491,793.12-916.366z"/>
	<path class="st0" d="M947.238-917.277c-0.18-0.084-0.42-0.084-0.48,0l-0.42,2.151c-0.42,0.744-0.601,1.572-1.559,1.985
		c-0.601,0.124-1.681,0.166-2.161-0.041c-0.239-0.167-0.539-0.373-0.359-0.663v-9.226c0.12-0.248,0.12-0.621,0.539-0.745
		c0.299-0.165,1.08,0,1.2-0.29c0-0.207-0.241-0.248-0.48-0.29v0h-4.62c-0.239,0.041-0.12,0.207-0.12,0.372
		c0.601,0,1.259,0.042,1.559,0.455v9.763l-0.059,0.414c-0.18,0.372-0.96,0.165-1.319,0.331c-0.06,0.082-0.06,0.248,0.059,0.29
		c1.02,0.207,2.4,0.083,3.661,0.125l3.239-0.042l0.181,0.042c0.239-0.042,0.719,0.041,1.02-0.042
		c0.12-0.207,0.059-0.538,0.059-0.745h0.06V-917.277z"/>
	<path class="st0" d="M936.438-915.499l-1.078-3.434c-0.18-1.199-0.719-2.234-0.96-3.392h0l-0.658-2.027l-0.781-0.042
		c-0.419,0.496-0.541,1.199-0.719,1.82l-0.541,2.068l-0.9,3.558l-0.719,2.813c-0.12,0.372-0.361,0.745-0.9,0.952
		c-0.181,0.082-0.781-0.083-0.781,0.165c-0.178,0.414,0.48,0.249,0.781,0.331c0.96,0,2.1,0.042,3.06-0.083
		c0.42-0.621-0.78-0.249-1.08-0.456c-0.719-0.414-0.241-1.159-0.12-1.655c0.058-0.331,0.12-0.661,0.359-0.868
		c0.841-0.083,1.98-0.083,2.94-0.042c0.359,0.456,0.478,1.077,0.659,1.655c0.06,0.372,0,0.703-0.3,0.87
		c-0.359,0.165-1.38-0.084-1.08,0.496c1.441,0.125,3.299,0.083,4.68,0.041l0.06-0.082c0.179-0.331-0.18-0.331-0.48-0.372
		C936.738-913.595,936.798-914.672,936.438-915.499z M934.16-916.242l-2.4,0.041l-0.3-0.125c0.059-0.455,0.181-0.951,0.359-1.448
		l0.48-2.193c0.12-0.331,0.181-0.703,0.361-0.993l0.24,0.042c0.361,1.572,1.08,2.979,1.38,4.592L934.16-916.242z"/>
	<path class="st0" d="M790.181-923.814c0.299-0.249,0.84-0.331,1.379-0.414c0.06-0.083,0.121-0.29-0.06-0.331
		c-0.36-0.042-3.119,0-4.02,0c-0.06,0.106-0.06,0.225,0,0.331c0.36,0.041,0.78,0,1.02,0.165c0.36,0.166,0.539,0.414,0.42,0.786
		c-0.361,1.158-0.6,2.358-1.08,3.475l-0.9,2.69h-0.06c-0.479-0.456-0.479-1.159-0.66-1.738l-0.719-2.606
		c0.059-0.869-0.841-1.655-0.181-2.4c0.299-0.29,0.84-0.248,1.319-0.372c0.06-0.106,0.06-0.225,0-0.331
		c-0.66-0.042-3.359,0-4.199-0.042c-0.299,0-0.48,0.124-0.36,0.331c1.44,0.496,1.14,1.945,1.5,3.02
		c-0.36,1.406-0.719,2.814-1.2,4.22h-0.18c-0.36-0.952-0.659-1.945-0.959-2.896l-0.72-2.938c-0.12-0.29-0.12-0.744,0.06-0.993
		c0.18-0.248,0.72-0.248,0.9-0.538c-0.059-0.166-0.239-0.166-0.36-0.207v-0.001h-4.559c-0.24,0.042-0.18,0.29-0.06,0.373
		c0.42,0.166,0.78,0.042,1.2,0.124c0.24,0.166,0.6,0.331,0.66,0.579c0.299,0.91,0.66,1.862,0.84,2.813l0.6,2.358l0.9,3.268
		l0.3,1.324c0.12,0.249-0.06,0.621,0.36,0.705c0.48,0.083,0.72-0.084,0.781-0.331c0.354-1.215,0.714-2.429,1.08-3.642l0.719-2.441
		h0.121l0.48,1.489l0.9,3.559c0.18,0.454,0.18,0.993,0.539,1.324c0.121,0.083,0.421,0.083,0.54-0.042c0.6-1.82,1.26-3.64,1.86-5.419
		l1.02-3.228C789.641-922.448,789.821-923.152,790.181-923.814z"/>
	<path class="st0" d="M928.762-924.394h-3.48c-0.239,0.041-0.12,0.289-0.12,0.33c0.6,0,1.138,0.083,1.439,0.373
		c0,0.579,0.18,1.282,0.06,1.779c0.18,0.042-0.121,0.166,0.06,0.249c-0.06,0.538,0.059,0.911-0.06,1.407
		c0.12,0.91,0,1.738,0.06,2.606c-0.241,0.124,0.239,0.373-0.122,0.414c-1.378-2.234-2.279-4.634-3.478-6.951
		c-0.061-0.125-0.3-0.166-0.422-0.249h0c-0.959,0-1.859-0.042-2.756,0.041c0,0.082-0.181,0.207,0,0.29
		c0.661,0.124,1.5,0.166,1.619,0.745v3.971l0.06,4.759c0,0.454,0,0.91-0.241,1.241c-0.239,0.414-1.259,0.083-1.5,0.414
		c0,0.207,0.3,0.207,0.541,0.247l3.359-0.041l0.06-0.166c0-0.372-0.719-0.123-1.02-0.247c-0.3-0.125-0.42-0.331-0.541-0.538v-3.682
		l0.06-2.234c-0.121-0.497-0.121-0.91,0.06-1.406l0.12-0.042c0.179,0.372,0.48,0.703,0.659,1.117l1.2,2.359
		c0.661,1.075,1.022,2.359,1.681,3.475c0.42,0.372,0.361,0.992,0.781,1.366c0.12,0.083,0.42,0.041,0.539-0.042
		c0.12-0.331,0-0.868,0.06-1.199v-7.075l0.059-2.234l0.241-0.414c0.239-0.248,0.781-0.207,1.139-0.331
		C928.882-924.187,929.001-924.352,928.762-924.394z"/>
	<path class="st0" d="M807.697-918.062c-0.059-0.125-0.12-0.248-0.36-0.207c-0.42,0.827-0.24,1.904-0.6,2.731
		c-0.12,0.454-0.42,0.827-0.6,1.282c-0.48,0.249-0.78,0.787-1.5,0.869c-0.48-0.042-1.2,0.124-1.44-0.125
		c-0.361-0.124-0.3-0.496-0.3-0.827v-8.193c0.121-0.579-0.18-1.406,0.72-1.614c0.36-0.083,1.02,0.042,1.08-0.248
		c0.06-0.166-0.06-0.207-0.24-0.249v0.001h-4.86c-0.18,0.042-0.24,0.083-0.3,0.166c-0.12,0.455,0.84,0.124,1.14,0.331
		c0.72,0.372,0.42,1.323,0.42,2.027c0,0.704-0.06,1.655,0,2.4v5.834c0,0.537-1.08,0.33-1.14,0.786
		c0.121,0.165,0.48,0.124,0.72,0.165h6.659l0.54-0.083c0-0.125,0.181-0.331,0.06-0.455V-918.062z"/>
	<path class="st0" d="M919.281-915.25c-0.122,0.538,0.058,1.282-0.661,1.448c-0.54-0.167-0.48-0.787-0.48-1.159l-0.12-2.11
		c0-0.455-0.239-0.744-0.48-1.075c-0.239-0.289-0.839-0.372-0.839-0.745c1.081-0.331,1.5-1.158,2.039-1.82
		c0.419-0.91,0.06-1.945-0.539-2.606c-0.719-0.993-2.519-1.241-4.319-1.075c-1.021,0-1.741,0-2.641-0.042
		c-0.419,0.124-0.778-0.124-0.958,0.166c0,0.29,0.539,0.165,0.839,0.248c0.361,0.124,0.42,0.373,0.541,0.621v9.517l-0.181,0.414
		c-0.3,0.207-0.719,0.33-1.261,0.33c-0.12,0.042-0.12,0.249,0,0.331l1.739,0.082l3.18-0.041c-0.059-0.124,0-0.249-0.059-0.331
		c-0.421-0.082-0.6-0.042-0.96-0.082c-0.42-0.124-0.48-0.414-0.539-0.663c0.059-1.695-0.241-3.019,0-4.634l0.12-0.125
		c0.601-0.165,1.38-0.083,1.8,0.166c0.6,0.289,0.659,0.91,0.719,1.448v2.399l0.181,1.201c0.359,0.207,0.359,0.621,0.9,0.621
		c0.48,0.125,1.019-0.042,1.439-0.166c0.781-0.537,1.081-1.406,0.9-2.316C919.58-915.292,919.341-915.292,919.281-915.25z
		 M915.801-919.222c-0.48,0.125-1.56,0.125-2.161,0c-0.059-1.572-0.059-2.772-0.059-4.344c0.059-0.207,0.3-0.414,0.659-0.497
		c1.142-0.166,1.743,0.248,2.281,0.703h0c0.181,0.29,0.181,0.703,0.239,0.993l-0.059,2.193
		C916.521-919.76,916.341-919.388,915.801-919.222z"/>
	<path class="st0" d="M898.165-923.359c-0.362-0.455-0.961-0.827-1.561-1.117c-0.958-0.207-2.098-0.083-2.698,0.373
		c-1.5,1.2-2.28,2.896-2.4,4.675c-0.06,2.648,0.478,4.924,2.759,6.372c0.48,0.33,1.561,0.29,2.281,0.165
		c0.813-0.34,1.476-0.827,1.92-1.406c1.2-1.572,1.5-4.055,1.08-6.207C899.185-921.539,898.946-922.615,898.165-923.359z
		 M897.204-914.505c-0.12,0.414-0.42,0.703-0.719,1.034c-0.42,0.247-1.139,0.207-1.559,0.041c-0.9-0.414-1.08-1.199-1.02-1.903
		c-0.06-0.58,0.239-1.076,0-1.614c0.059-0.621,0-1.324,0.12-1.986c-0.12-0.042,0-0.29-0.12-0.331c0.239-0.207-0.06-0.331,0-0.538
		c0.059-1.034,0-1.82,0-3.02c0.239-0.538,0.6-1.159,1.439-1.283c0.901-0.042,1.381,0.331,1.74,0.786l0.12,0.786v2.606l0.06,0.042
		L897.204-914.505z"/>
	<path class="st0" d="M909.082-924.435l-3.18,0.042l-0.06,0.29c0.361,0.042,0.899,0.042,1.201,0.207
		c0.298,0.29,0.419,0.703,0.359,1.075l-0.06,3.641l0.06,0.248v4.137c-0.12,0.456-0.239,0.911-0.839,1.201
		c-0.361,0.289-1.08,0.331-1.619,0.247c-0.661-0.247-1.08-0.703-1.261-1.199c-0.12-1.283,0-2.109-0.12-3.351l0.059-0.042v-4.717
		c0-0.414,0-0.828,0.241-1.118c0.239-0.124,0.48-0.248,0.839-0.248c0.241-0.042,0.48-0.083,0.42-0.331
		c-0.179-0.207-0.659-0.166-0.9-0.083h0l-3.538-0.04c-0.181,0.083-0.6-0.042-0.539,0.207c0,0.248,0.539,0.165,0.839,0.248
		c0.299,0.124,0.48,0.29,0.6,0.538v5.337c0.181,1.117-0.299,2.813,0.42,3.848c0.361,0.786,1.38,1.364,2.58,1.53
		c0.539-0.084,1.5,0.041,1.98-0.249c0.719-0.414,1.319-0.992,1.439-1.696v-8.275l0.181-0.662c0-0.207,0.299-0.373,0.6-0.414
		c0.12-0.083,0.6,0.042,0.6-0.165C909.383-924.311,909.263-924.435,909.082-924.435z"/>
</g>
</svg>
